<?xml version="1.0" encoding="utf-8"?>
<!-- Generator: Adobe Illustrator 25.2.0, SVG Export Plug-In . SVG Version: 6.00 Build 0)  -->
<svg version="1.1" id="Calque_1" xmlns="http://www.w3.org/2000/svg" xmlns:xlink="http://www.w3.org/1999/xlink" x="0px" y="0px"
	 viewBox="0 0 1069 1069" style="enable-background:new 0 0 1069 1069;" xml:space="preserve">
<style type="text/css">
	.st0{fill:#7D414D;}
	.st1{fill:#D98D6B;}
</style>
<g id="Calque_2_1_">
	<g id="Calque_1-2">
		<g id="Fond">
			<path class="st0" d="M710.5,417.6c6.4-38.8-56.1-251.3-145.6-339c-20.9-20.5-60-51.2-110.6-67.5c-22-7.1-51.5-4.7-51.5-4.7
				S373.2,0.9,364,0.5c-138.8-7.9-199,72.2-211.4,86.3c-13,0.8-41.9,22.6-61.1,54.9c-22,38,2.6,72.2,2.6,72.2s2.3,10.2,7.3,15.4
				c5.1,5.3,12.6,6.6,11.5,5.3c-1.9-2.1-7.5-9.2-7.5-15.2c0.4-11.1,8.1-15.6,13.5-16.2c4.3-0.6,8.7,8.8,8.7,8.8l-0.2,3.4
				c-0.8,12.3-0.9,24.7-0.4,37.1c0.7,5.9,2,11.7,3.8,17.3c4.5,12.6,19.8,33.5,19.8,33.5c-1,6.5-2.5,13-4.3,19.4
				c-4.1,13.5-10,28.4-11.9,31.4c-6.4,9.8-10.9,18.6-11.1,24.6c-0.3,3.2,0.3,6.5,1.7,9.4c3.7,5.8,9.7,9.8,16.6,10.7l1.7,0.8
				c6.6,4.9,20.1,17.1,9.6,29.5l-0.2,0.2c-1.1,3.3-0.9,6.9,0.8,10c1.3,2.8,4.7,8.7,10.7,10.7l9.2,2.8c-11.1,3.8-10.2,10.9-10,14.9
				c0.2,3.4,3.6,9,13.7,9.4c4.3,0.4,8.7-0.4,12.6-2.3c0.4-0.2,3.4,2.8,4.3,5.3c2.3,6.4,0.4,8.3,0.6,15.4c0.4,9,3,18.4,8.8,24.3
				c4.4,4.3,10.1,7.1,16.2,8.1c7.4,1.4,15,1.1,22.2-0.9c13.6-3.1,26.9-7.4,39.7-12.8c9-3.6,22.6-9.4,35.4-15.8l5.6-1.5
				c13.9,6.2,30.3,10.5,44.8,28.2c10.3,12.4,13,25.2,8.7,26.1c-13.9,3.4-23.3,6.6-45.3,15.8c-9.6,4-24.8,4.7-39.1,4.9
				c-23.9,0.6-68.1-1.1-93.5-2.8c-14.7-0.9-28.6,2.8-35.9,5.1c-37.4,10.7-58.1,33.7-70.5,53.4c-9.6,15.2-10.2,26.9-13,32.7
				c-12.4,24.6-22.4,66-24.3,100.8c-1.1,20.3,1.7,56.8,25.2,79.2c20.7,19.6,53,25.4,72.8,30.9c88.2,23.7,242.5,32.4,287.6,136.9
				c5.5,12.6,16,39.5,23.5,51c9,13.9,14.1,10.2,18.2,5.8c4.7-4.9,17.7-27.3,24.1-37.4c26-41,75.6-90.7,172.1-116.4
				c103.8-28.2,174.4-85.4,223.9-149.5c97.1-125.8,110.2-279.7,113.4-323.2c0.2-3-9.6,1.9-16.4,3.4c-3.7,1.1-7.7,0.8-11.1-0.9
				c-1.8-1.5-3.4-3.3-4.7-5.3c4.9-0.5,9.6-2.4,13.5-5.5c2.2-1.9,4.2-4.1,5.8-6.6c3.3-5.2,5.1-11.2,5.3-17.3
				c1.3-25.6-14.9-89-14.9-89c-4-23.1-35-135.4-45.9-155c-4-7.1-5.1-8.1-5.3,2.1c-0.6,27.8-9.6,69.2-19.4,92.7
				c-22.2,53.6-55.9,109.5-156.5,145.4c-12.2,4.3-32,10-55.1,15.6"/>
		</g>
		<g id="BO">
			
				<rect id="Crochet_1" x="419.5" y="344.5" transform="matrix(0.9997 -2.286182e-02 2.286182e-02 0.9997 -8.2716 9.7507)" class="st1" width="5.6" height="44.2"/>
			
				<rect id="Crochet_2" x="420.4" y="418.3" transform="matrix(0.9996 -2.722377e-02 2.722377e-02 0.9996 -11.737 11.6848)" class="st1" width="5.6" height="37.2"/>
			<path id="BO_pièce_2" class="st1" d="M424,452c-17.2,0-31.2,14-31.2,31.2c0,17.2,14,31.2,31.2,31.2s31.2-14,31.2-31.2l0,0
				C455.2,466,441.2,452,424,452z"/>
			<path id="BO_pièce_1" class="st1" d="M422.3,386.3L422.3,386.3c-30.1,0-54.6,24.4-54.6,54.6v2.3h109.1v-2.3
				C476.9,410.8,452.4,386.3,422.3,386.3z"/>
		</g>
	</g>
</g>
</svg>
