<?xml version="1.0" encoding="UTF-8"?>
<svg xmlns="http://www.w3.org/2000/svg" viewBox="0 0 670.45 735.51">
  <defs>
    <style>
      .cls-1 {
        fill: none;
      }

      .cls-1, .cls-2, .cls-3 {
        stroke: #d98d6b;
        stroke-miterlimit: 10;
      }

      .cls-1, .cls-3 {
        stroke-width: 3px;
      }

      .cls-2 {
        stroke-width: 2px;
      }

      .cls-2, .cls-4, .cls-3 {
        fill: #d98d6b;
      }
    </style>
  </defs>
  <g id="Fée">
    <g id="Lower_body" data-name="Lower body">
      <g id="Body">
        <path class="cls-3" d="m305.02,403.69l-5.72-2.32c-5.7-2.37-10.2-7.15-5.89-13.61,2.35-3.51,5.61-5.98,8.95-8.14,3.86-2.62,20.71-11.12,22.71-3.66.2,6.98-10.05,14.56-15.3,18.21-9.8,6.58-20.51,11.65-31.47,15.94-7.33,2.79-14.78,5.3-22.56,6.76-13.51,2.79-25.27-3.29-25.03-18.35.05-2.97,1.12-8.39-2.86-8.86v-.02c-.09-.94.88-1.6,1.73-1.21,2.43,1.13,3.07,4.62,2.91,7.17-1.14,8.58,2.51,17.71,11.68,19.58,13.61,3.14,42.07-9.88,54.6-16.64,6.71-3.74,13.38-7.89,18.85-13.29,1.98-2,3.8-4.18,4.96-6.73,2.68-5.63-6.13-2.94-8.75-2.1-6.9,2.54-15.72,6.29-20.01,12.33-4.09,6.32,3.59,9.69,9.36,11.47,3.8,1.17,7.39,2.94,10.63,5.25,5.83,4.15,11.29,8.91,14.5,15.4,1.74,3.35,2.84,8.92-1.25,9.6-7.17,2.13-14.3,4.6-21.2,7.51l-1.29.56c-3.14,1.46-6.65,1.77-10.01,2.12-20.79,1.46-41.66.12-62.41-1.04-5.47-.03-11.08,1.02-16.38,2.41-22.47,5.85-39.06,22.68-44.65,45.24-7.41,17.61-12.63,36.69-12.9,55.89-.15,14.12,3.29,29.1,13.61,39.2,10.78,9.54,25.63,12.6,39.34,16.12,52.64,12.46,125.88,17.77,152.14,72.94,1.88,4.2,3.75,9.2,5.58,13.44,2.42,5.47,4.64,11.06,8.11,15.88,2.36,3.02,4.11,3.58,6.95-.02,2.46-2.91,5.68-8.71,7.83-12.03,14.85-25.27,37.25-45.98,64.04-58.02,13.12-6.32,27.42-9.94,41.29-14.14,109.12-34.26,161.25-137.05,169.52-245.19.51-3.49-9.5,2.68-13.8-.98-.69-.59-2.1-2.31-2.1-2.31,0,0,1.66-.43,3.01-1.39,3.76-2.65,10.62-8.95,8.78-19.14-1.25-14.4-4.4-28.59-7.62-42.68-5.58-23.5-12.05-46.83-19.67-69.76-1.84-5.06-3.35-10.45-5.98-15-.32.1,1.11.3,1.26-.27.1-.2.03-.09.03-.01l-.03.41c-2.24,27.8-9.08,55.96-24.76,79.38-28.41,43.38-78.15,55.81-125.72,65.99-8.11,1.76-19.86,5.27-27.93,7.73-18.36,5.54-37.13,11.39-52.62,22.99-23.51,17.53-34.95,46.04-42.28,73.55-17.36,58.86-3.08,114.63,29.07,165.5,15.5,24.46,34.22,46.92,55.3,66.78,7.05,6.57,14.37,12.88,22.54,18.02,20.36,13.23,47.49,20.72,63.58-2.84,7.88-11.72-5.37-14.57-14.53-14.63-17.22.02-40.81,5.65-53.36,18-3.22,3.34-5.53,7.89-4.66,12.58l-1.24.21c-.96-5.08,1.51-10.1,4.97-13.67,10.59-10.34,25.54-14.66,39.73-17.29,4.81-.78,9.68-1.25,14.57-1.17,4.92.15,10.01.54,14.39,3.13,8.19,4.88,1.47,14.63-3.43,19.32-17.07,17.79-42.85,9.35-60.85-2.37-8.25-5.18-15.67-11.55-22.78-18.16-21.22-19.92-40.02-42.44-55.64-67.02-32.46-51.2-46.9-107.51-29.48-166.84,7.38-27.9,19.04-56.85,42.89-74.65,19.55-14.65,44.19-20.46,67.13-27.54,23.32-6.41,47.42-10.17,70.1-18.5,37.69-13.08,67.34-37.95,81.51-75.88,6.47-16.85,9.8-34.81,11.26-52.76l.05-.5c.05-.22.02-.43.28-.88.3-.89,2.15-.58,2.04-.28.78.64,1.04,1.56,1.47,2.29,3.97,9,6.68,18.24,9.65,27.56,5.7,18.53,10.82,37.24,15.28,56.11,3.24,14.19,6.42,28.47,7.68,43.02.24,3.69.02,6.66-1.21,10.21-1.78,5.15-6.12,8.44-7.64,9.47-1.27.82-2.69,2.09-.64,2.86.81.31,4.78-.38,5.41-.56,1.42-.4,5.3-2.11,6.84-2.11s1.46,2.37,1.4,3.34c-8.63,112.2-63.78,217.85-178.11,250.22-30.21,7.62-59.48,22-80.17,45.79-6.38,7.18-11.91,15.08-16.96,23.29-1.95,3.01-5.54,9.37-8,12.29-4.98,6.31-9.25,2.76-12.57-3.19-4.82-8.5-8.02-17.7-11.88-26.61-25.71-54.1-98.84-59.37-150.6-71.66-14-3.58-29.24-6.74-40.4-16.69-10.82-10.53-14.49-26.29-14.32-40.85.3-19.61,5.5-38.73,13.05-56.73,5.66-22.77,22.68-40.49,46.18-46.61,5.62-1.46,11.29-2.55,17.13-2.49l5.64.35c15.05.85,30.14,1.49,45.17,1.25,6.43-.25,13.09-.15,19.27-1.97.67-.24,1.86-.81,2.55-1.09,7.11-2.97,14.34-5.57,21.75-7.64,2.02-.74.19-4.81-.49-6.36-2.72-5.49-7.33-9.76-12.31-13.45-2.01-1.49-4.2-2.74-6.5-3.73l-2.36-1.01Z"/>
      </g>
    </g>
    <g id="Forehead">
      <path class="cls-2" d="m196.06,327.32c.82-1.47,1.64-2.81,2.26-3.71.95-2.15,1.88-4.3,2.71-6.5,2.5-6.52,4.57-13.34,5.71-20.23l.22.89c-5.88-8.3-12.12-17.3-12.66-27.83-.19-10.24.16-20.25.88-30.46.59-6.86,1.17-13.5,2.99-20.25l2.35.78-.89,2.52.91-2.54c-3.15,12.89-3.39,26.52-3.71,39.77-.04,3.39-.22,6.75-.04,10.01.54,10.22,6.78,18.83,12.49,26.95-1.56,9.71-4.74,19.02-8.72,27.96-2.13,3.56-4.57,7.62-5.31,11.74-.85,4.69,1.96,8.64,6.24,10.05l1.89.59-.12-.02c2.88.25,13.97.77,10.06-4.44-1.74-2.17-5.78-2.35-7.91-1.57-3.97,1.94-1.66,3.96,1.17,4.51,10.65,1.94,22.18,2.62,16.21-12.44h.66c2.84,4.46,4.41,11.45-1.5,13.7-2.67,1.01-5.42.67-7.9.37-3.18-.42-6.4-.68-9.5-1.71-1.11-.36-2.55-1.63-1.63-3.06,1.54-2.03,4.31-2.5,6.71-2.36,2.08.14,4.26,1.56,4.88,3.67,1.84,5.73-8.11,5.13-11.48,5.02h-.06l-2.08-.59c-5.18-1.53-9.32-6.5-8.08-12.13h0c.65-3.04,1.75-5.97,3.27-8.69Z"/>
    </g>
    <g id="Lips">
      <path class="cls-3" d="m203.66,347.79c3.76,2.36,7.11,5.08,8.19,9.61.35,2.37-.32,3.45-1.43,5.37-.09.24.15.12.15.12,6.33-.96,11.11,3.63,16.76,6.31,3.53,1.51,8.21,3.07,11.91,1.33l1.71,1.35c-1.98,5.52-3.89,11.12-8.55,14.95-3.4,2.92-8.11,3.71-12.42,2.95-1.42-.27-2.95-.73-4.09-1.87-1.73-1.73-1.79-4.2-1.52-6.41.42-4.2,4.98-5.41,8.43-5.97,5.56-.98,11.18-1.61,16.33-3.84,0,0,.41-.16.42-.16l.57.31c.74.42.15,1.48-.63,1.92-.44.28-.41.39-.9.45-6.12.21-12.1,1.53-18.21,1.79-1.62.04-3.26.11-4.88-.38-4.74-1.68-8.39-7.96-7.01-11.34l1.56-.27c-.58,1.26-.63,2.84-.25,4.31,1.21,4.93,5.5,7.93,10.56,7.36,5.86-.27,13.94-1.15,18.25-3.68-.62.46.2,1.94.2,1.94-2.88.33-4.7.91-7.5,1.3-4.13.68-8.4.88-12.31,2.31-1.59.59-2.88,1.59-3.36,3.18-.22.93-.32,2-.27,2.95,0,2.9,2.05,4.63,4.83,4.97,3.97.67,8.29-.1,11.33-2.85,3.92-3.57,6.71-8.26,7.09-13.56l-.06-.09c-4.66.78-7.15-.05-11.35-1.83-4.78-2.36-9.44-5.14-14.79-5.87-.93-.12-1.87-.19-2.79-.05-.2.06-.54-.02-.7-.2-.28-.25-.33-.7-.16-.98.59-.94,1.03-1.8,1.37-2.77,1.83-5.04-3.45-9.54-7.23-12.06l.57-.99h-.01l.2.39Z"/>
    </g>
    <g id="Hair_ear" data-name="Hair + ear">
      <path id="Ear_lobe" data-name="Ear lobe" class="cls-1" d="m336.66,274.94c4.09-9.35,13.78-20.02,24.58-10.19,14.41,13.1,14.68,22.38,12.22,30.11-.51,1.59-1.37,3.67-2.51,5.98-5.68,11.69-17.93,29.75-23.25,25.02-9.01-8.01.02-14.7,7.44-20.77,3.29-2.68,6.24-5.23,7.19-7.71.74-1.95,1.32-3.81,1.77-5.56,5.26-20.88-9.42-27.64-15.54-7.52"/>
      <path class="cls-4" d="m361.23,304.33c-.75.28-1.52.53-2.32.74-1.1.28-2.48.47-3.52.57l.38-1.11c1.69.19,3.56.11,5.46-.2Z"/>
      <path id="Ear_hole" data-name="Ear hole" class="cls-1" d="m364.09,291.8c-.44,1.75-1.03,3.61-1.77,5.56-.95,2.48-3.9,5.04-7.19,7.71-4.76-.19-9.77-2.68-8.3-12.84.43-3.01,1.03-5.67,1.72-7.97,6.13-20.12,20.81-13.34,15.54,7.52h0Z"/>
      <g id="Ear_loop" data-name="Ear loop">
        <path class="cls-2" d="m342.02,285.26c-1.14,1.24-2.05,2.96-3.96,2.82-1.87-.2-3.13-1.96-3.74-3.57-1.07-3.51.52-7.09,1.33-10.5l.73-.27c2.82-.64,5.1-1.84,8.13-2.27,5.09-.33,2.16,5.58,1.03,8.11,0,0-2.04,3.97-3.52,5.68Zm3.25-11.41c-2.66.11-4.39-1.26-7.43.81l-1.92,1.23c-.95,1.84-1.62,3.93-1.78,5.85-.13,2.81,2.23,7.01,5.33,5.61,2.74-1.59,4.65-8.36,4.65-8.36,0,0,1.47-3.9,1.15-5.14Z"/>
      </g>
      <g id="Hair">
        <path class="cls-3" d="m513.36,364.69c-7.52,20.88-47.29,40.17-66.76,49.84-12.7,5.96-25.53,12.45-39.59,14.35-20.98,3.03-42.75.64-62.46-7.2-3.13-1.35-14.69-6.44-9.18-10.85.9-.61,2.89-1.14,3.89-1.53,7.17-2.84,13.63-7.25,19.66-12.13,12.91-10.71,17.58-17.43,19.26-34.49,1.69-20.93-2.24-40.16-8.06-60.2,2.72-5.35,5.3-11.96,3.75-17.9-1.85-7.18-8.19-14.04-13.54-18.97-6.25-5.79-12.92-3.92-17.98,2.34-1.99,2.4-2.86,4.26-5.3,7.19-2.65,1.8-4.02,2.42-6.9,1.37,0,0-.97-.33-1.02-.33-7.77-2.94-26.75-10.69-29.53,1.8-.37,1.63-.28,3.36-.73,5-1.69,8.8-11.42,8.8-18.2,6.66-6.64-1.93-12.74-4.95-18.63-8.49l-.27-.17-.17-.33c-1.8-3.46-5.46-7.18-9.65-5.88-3.31.82-5.3,4.3-8.4,5.79-10.09,4.23-20.3-11.12-24.86-18.39,0,0-2.31-4.45-2.32-4.47l4.05,2.8c2.68,1.78,6.36,1.42,8.95-.52,4.23-2.92,6.72-8.13,8.44-12.91.58-1.58.91-3.41.96-5.09.26-17.69-23.39-23.14-37.24-24.85-.05,0-.76-.04-.76-.04,0,0-5.4,29.3-5.41,29.3l-.54,3.55-1.73-3.03c-.58-1.03-1.85-2.05-3.11-1.82-2.57.54-5.19,4.09-5.46,6.73-.28,2.83,1.28,5.76,2.91,7.98.09.19.93.97.62,1.16-.25.15-.75.1-.75.1-5.61-.59-9.65-7.98-10.49-11.07-7.78-12.12-8.5-27.2-1.12-39.67,6.75-11.54,19.43-26.55,32.67-29.49l.34-.12c28.28-35.07,71.71-49.63,115.49-45.28,5.45.51,14.25,1.72,17.94,2.88,7.93-.7,15.94-.42,23.72,1.25,23.27,4.79,45.55,21.66,63.1,37.37,36.19,33.46,71.44,122.01,77.7,170.86.27,1.95.37,3.94.51,5.92.06,1.07.11,1.92.63,2.84,1.42,2.72,6.56,4.29,5.6,8.13h-.01Zm-2.36-.74c.11-.37-.11-.74-.33-1.03-1.61-1.74-3.68-2.82-5.04-5.14-.67-1.15-.94-2.64-.95-3.94-.15-1.93-.22-3.84-.49-5.77-6.19-48.25-41.14-136.18-76.91-169.31-18.32-16.4-41.88-33.78-66.46-37.58-6.18-.93-12.44-.93-18.63-.4-5.92-1.41-12.08-2.31-18.21-2.89-42.97-4.25-85.85,10.27-113.61,44.69l-.31.36-.44.09c-12.5,2.84-25.34,17.6-31.74,28.51-6.98,11.79-6.2,25.96,1.19,37.34.77,4.25,3.44,10.42,7.76,12.08.41.14-4.12-5.9-3.86-9.25.32-3.57,3.15-7.64,6.65-8.62,2.22-.51,4.29.77,5.58,2.51,0,0,.16.82.17.79l3.51-31,.14-1.25c7.62,1.1,12.57,2.8,19.73,5.49,11.75,4.41,25.27,13.38,20.15,27.8-1.82,5.07-4.28,10.45-8.57,13.86-3.04,2.52-5.95,3.24-9.55,1.32l-.9-.19c4.14,6.54,9.83,12.1,16.89,15.69,6.96,3.14,8.51-4.15,14.53-5.73,2.58-.83,5.54-.15,7.69,1.41,2.13,1.56,3.2,2.94,4.41,5.23l.31.23c7.03,4.08,23.71,13.33,30.87,7.03,2.34-2.22,2.09-5.82,2.66-8.81.38-1.78,1.12-3.6,2.41-5.05,7.35-7.97,23.56-1.21,29.98,1.37,2.05.75,3.32.64,5.66.07l1.06-.79c1.28-2.89,2.14-4.24,4.18-6.7,5.87-7.3,14.18-9.37,21.54-2.58,5.72,5.29,11.24,11.37,13.25,19.15,1.68,6.28-.32,12.32-3.15,17.85l.08.48c6.93,24.42,14.62,58.58,2.91,82.28-3.83,6.2-9.14,10.9-14.58,15.54-6.83,5.54-14.39,10.64-22.87,13.42-.7.2-1.27.64-1.22.72-.09,0,.1.61.63,1.12,2.21,2.22,5.56,3.77,8.5,5.05,19.18,7.65,40.7,10,61.1,7.03,13.88-1.88,26.38-8.28,38.91-14.14,18.94-9.39,58.07-28.42,65.47-48.35h-.05Z"/>
      </g>
    </g>
    <g id="BO">
      <line id="Crochet_1" data-name="Crochet 1" class="cls-1" x1="352.12" y1="318.99" x2="352.65" y2="342.51"/>
      <line id="Crochet_2" data-name="Crochet 2" class="cls-1" x1="352.64" y1="358.16" x2="353.17" y2="377.9"/>
      <circle id="BO_pièce_2" data-name="BO pièce 2" class="cls-2" cx="353.27" cy="391.62" r="15.31"/>
      <path id="BO_pièce_1" data-name="BO pièce 1" class="cls-2" d="m352.38,342.48c-15.33,0-27.75,12.42-27.75,27.75h55.51c0-15.33-12.42-27.75-27.75-27.75h-.01Z"/>
    </g>
  </g>
  <g id="Calque_4" data-name="Calque 4">
    <g>
      <path class="cls-4" d="m64.96,455.14l9.82,23.5-42.92,17.94-2.84-6.79,41.47-17.33-6.99-16.71,1.45-.6Z"/>
      <path class="cls-4" d="m46.88,429.64l10.22.77.51,2.26-40.62-3.06-8.97-.77-.55-2.46,43.14-24.74,1.75,7.77-8.91,5.08,3.42,15.14Zm-26.62-1.96l24.7,1.83-3.16-14.02-21.54,12.19Z"/>
      <path class="cls-4" d="m22.84,333.51l.78-14.08,1.56.09-.78,14.07,22.44,1.24-.41,7.34-46.44-2.57,1.25-22.64,1.56.09-.85,15.3,20.87,1.16Z"/>
      <path class="cls-4" d="m29.53,280.94l3.7-16.55,1.53.34-3.69,16.55,20.4,4.56,3.96-17.75,1.53.34-5.58,24.99-45.39-10.14,5.58-24.99,1.53.34-3.96,17.75,20.4,4.56Z"/>
      <path class="cls-4" d="m45.62,227.38l6.44-15.69,1.45.59-6.44,15.69,19.34,7.94,6.9-16.82,1.45.59-9.72,23.69-43.03-17.66,9.72-23.69,1.45.59-6.9,16.82,19.34,7.94Z"/>
      <path class="cls-4" d="m97.76,125.52c7.83,6.23,6.93,15.35-1.68,26.17l13.64,10.86-4.58,5.75-36.39-28.97,4.58-5.75c8.37-10.4,14.52-15.94,24.43-8.05Zm-5.05,6.34c-7.25-5.77-12.06-5.08-18.37,2.52l20.72,16.5c2.08-3.05,6.6-11.9-2.35-19.02Z"/>
      <path class="cls-4" d="m130.83,104l12.64-11.31,1.05,1.17-12.64,11.31,13.94,15.58,13.55-12.13,1.04,1.17-19.08,17.08-31.02-34.66,19.08-17.08,1.04,1.17-13.55,12.13,13.94,15.58Z"/>
      <path class="cls-4" d="m207.75,77.86l-6.9,4.26-19.04-8.81c-1.32.97-2.36,1.62-3.23,2.16l9.12,14.78-6.26,3.86-24.42-39.58,6.26-3.86c11.39-6.95,19.06-10.08,25.71.69,3.61,5.85,3.09,11.62-1.56,17.05l20.32,9.46Zm-25.66-22.26c-4.86-7.88-9.63-8.86-18.14-3.85l13.91,22.54c2.99-2.16,10.24-8.96,4.23-18.69Z"/>
      <path class="cls-4" d="m253.95,57.94l-23.72,9.29-16.96-43.31,6.85-2.68,16.39,41.85,16.87-6.6.57,1.46Z"/>
      <path class="cls-4" d="m281.68,25.66l16.62-3.39.31,1.54-16.62,3.39,4.18,20.49,17.82-3.64.31,1.53-25.09,5.12-9.3-45.57,25.09-5.12.31,1.53-17.82,3.64,4.18,20.49Z"/>
      <path class="cls-4" d="m358.6,29.24c.05-2.93,2.51-5.12,5.39-5.02,2.88.1,5.13,2.47,5.02,5.34-.1,2.92-2.47,5.12-5.39,5.02-2.88-.1-5.13-2.42-5.02-5.34Z"/>
      <path class="cls-4" d="m451.92,43.95c-2.13,7.74-8.59,12.26-17.28,9.86-3.62-1.08-6.8-2.92-9.25-6.72l9.17-33.3,5.9,1.62-4.14,15.05c2.25-1.34,5.66-2.25,8.91-1.36,5.73,1.58,8.78,7.27,6.7,14.85Zm-6.59-.25c1.89-6.87.9-12.28-3.9-13.61-1.77-.49-3.78.16-5.34,1.19l-4.96,18.03c.49,2.01,1.97,3.39,4.1,3.98,4.37,1.2,8.25-2.85,10.11-9.59Z"/>
      <path class="cls-4" d="m480.49,41.97l5.66,2.38-9.83,23.4-5.66-2.38,9.83-23.4Zm2.34-7.46c.75-1.79,2.86-2.51,4.81-1.69,1.95.82,2.92,2.86,2.18,4.63-.78,1.86-2.89,2.53-4.84,1.71-1.95-.82-2.93-2.79-2.15-4.64Z"/>
      <path class="cls-4" d="m489.92,85.42c1.83.8,4.89.76,6.18.41,1.02-1.85,2.2-3.9,3.19-5.77l12.74-23.22,5.36,2.94-10.78,19.64c-3.22,5.87-9.4,8.97-16.92,6.6l.22-.6Zm25.23-35.89c.93-1.7,3.14-2.21,4.99-1.19,1.9,1.04,2.67,3.19,1.74,4.89-.99,1.81-3.18,2.24-5.08,1.2-1.85-1.02-2.64-3.09-1.65-4.9Z"/>
      <path class="cls-4" d="m533.11,84.01c5.54-7.52,14.53-5.81,18.6-2.81,6.28,4.63,7.42,12.46,2.92,18.59-5.57,7.56-14.54,5.87-18.67,2.82-6.22-4.58-7.43-12.37-2.85-18.6Zm15.16,13.75c2.19-2.98,7.57-12.71,2.77-16.25-1.74-1.28-6.66-2.12-11.5,4.45-2.21,3-7.76,12.76-2.9,16.34,1.76,1.3,6.72,2.13,11.63-4.54Z"/>
      <path class="cls-4" d="m598.9,124.05l-18.06,17.83-.71-.72.66-6.28c-4.58.77-8.59-.89-11.46-3.79-3.18-3.22-3.3-7.46-.04-10.68l13.17-13,4.32,4.37-13.02,12.86c-2.33,2.3-2.58,4.88-.35,7.14,1.8,1.83,3.97,2.63,6.23,2.66l14.94-14.75,4.32,4.37Z"/>
      <path class="cls-4" d="m610.2,160.01l5.92-15.7,4.1,5.64-3.81,9.96-.48,1.19h2.4l10.22.32.47.65-13.37-.36-6.27,16.51-4.01-5.52,3.92-10.41.67-1.64-13.37-.02-.46-.63,14.06.02Z"/>
    </g>
  </g>
</svg>