<svg xmlns="http://www.w3.org/2000/svg" viewBox="0 0 515.04 601.34"><defs><style>.cls-1,.cls-2,.cls-3{fill:#7d414d;}.cls-2,.cls-3,.cls-4{stroke:#7d414d;}.cls-2,.cls-3,.cls-4,.cls-5,.cls-6{stroke-miterlimit:10;}.cls-2,.cls-6{stroke-width:2px;}.cls-3,.cls-4,.cls-5{stroke-width:3px;}.cls-4,.cls-5{fill:none;}.cls-5,.cls-6{stroke:#d98d6b;}.cls-6{fill:#d98d6b;}</style></defs><g id="Calque_2" data-name="Calque 2"><path class="cls-1" d="M208.7,180.71s-27.53,12.22-35.81,35.44c-3.24,9.08-1.83,19.27,2.77,31.93,2.91,8,14.28,15.16,11.77,11.72C180.18,249.85,189,241,194,247c6.49,7.87-10,23.71,12.73,49.85,3.5,4-13.27,33.77-14.14,40.72-1,7.64,10.53,9.92,15.78,16.59,7,8.93-.87,6.85.09,13.57.82,5.77,8.12,8.11,8.12,8.11s-5.62,8.44-.7,12c7.06,5.18,14.79-1.34,14.91,5.31.23,13.43,1.33,29.06,28.87,22.82,31.1-7.05,30-13.05,38.73-15.07,3.51-.81,18.37,8.33,25.14,16.75,3.08,3.83,4.51,9.95,3.07,10.54-20.78,8.44-9.45,2.95-26.56,9.31-8.12,1.46-17.29,1.53-25.87,1.43-25.43-.29-30.9-3.37-59.08.85-17.72,2.66-33.24,16.59-41,32.67-7.12,14.78-12.9,35.81-14.46,43.9-3.53,18.24-11.85,62.21,26,76.94,14.32,5.58,26.74,7.67,34.6,9.54,14.35,3.43,26.95,4.67,69.42,15.33,28.32,7.11,59.3,29.54,69.37,48,5.33,9.81,11.25,32,19.46,38.81,2.28,1.9,3.55,2.55,11.64-8.77,3.9-5.45,9.09-14.68,17.27-25.95,5-6.88,13.68-15.11,20.48-20.08,32.06-23.42,80.42-36.75,80.42-36.75s50.42-13.07,96.65-67.95c13-15.39,32.35-44.09,45.73-84.51,7.11-21.5,16.78-53.22,16.78-91.06,0-4.12-12.69,5.6-13.56-2.25-.15-1.37,8.6-9.9,8.6-9.9V338.25s-21-108.87-31.86-119.84c-4.92-4.95-1.91,49-26.8,81.36-30.28,39.34-52.31,44.6-96.46,58.24-5,1.54,5-18.95-27.62-99.72-7.92-19.57-44.52-79.63-66.35-94.35-13.49-9.1-24.18-17.51-36.65-21.27-9.93-3-21.15-1.84-34.63-4.36-20.69-3.87-46-5.64-67.59.62-8.44,2.45-25.71,8.89-38.3,17.38A145.49,145.49,0,0,0,208.7,180.71Z" transform="translate(-154.86 -133.68)"/></g><g id="Calque_3" data-name="Calque 3"><path class="cls-1" d="M461.93,717.07s43.62-26.57,68.41-10c7,4.67-13.68,25.23-25.83,26.69-10.67,1.28-34.27-6.55-40.24-12.34A47,47,0,0,1,461.93,717.07Z" transform="translate(-154.86 -133.68)"/></g><g id="Calque_1" data-name="Calque 1"><g id="Fée"><g id="Lower_body" data-name="Lower body"><g id="Body"><path class="cls-2" d="M305,403.69l-5.72-2.32c-5.7-2.37-10.2-7.15-5.89-13.61a29.61,29.61,0,0,1,8.95-8.14c3.86-2.62,20.71-11.12,22.71-3.66.2,7-10.05,14.56-15.3,18.21a162.07,162.07,0,0,1-31.47,15.94,132,132,0,0,1-22.56,6.76c-13.51,2.79-25.27-3.29-25-18.35,0-3,1.12-8.39-2.86-8.86v0a1.22,1.22,0,0,1,1.73-1.21c2.43,1.13,3.07,4.62,2.91,7.17-1.14,8.58,2.51,17.71,11.68,19.58,13.61,3.14,42.07-9.88,54.6-16.64,6.71-3.74,13.38-7.89,18.85-13.29a23.8,23.8,0,0,0,5-6.73c2.68-5.63-6.13-2.94-8.75-2.1-6.9,2.54-15.72,6.29-20,12.33-4.09,6.32,3.59,9.69,9.36,11.47a37.13,37.13,0,0,1,10.63,5.25c5.83,4.15,11.29,8.91,14.5,15.4,1.74,3.35,2.84,8.92-1.25,9.6a204.44,204.44,0,0,0-21.2,7.51l-1.29.56c-3.14,1.46-6.65,1.77-10,2.12-20.79,1.46-41.66.12-62.41-1A64.18,64.18,0,0,0,215.77,442a61.15,61.15,0,0,0-44.65,45.24c-7.41,17.61-12.63,36.69-12.9,55.89-.15,14.12,3.29,29.1,13.61,39.2,10.78,9.54,25.63,12.6,39.34,16.12,52.64,12.46,125.88,17.77,152.14,72.94,1.88,4.2,3.75,9.2,5.58,13.44,2.42,5.47,4.64,11.06,8.11,15.88,2.36,3,4.11,3.58,6.95,0,2.46-2.91,5.68-8.71,7.83-12,14.85-25.27,37.25-46,64-58,13.12-6.32,27.42-9.94,41.29-14.14,109.12-34.26,161.25-137,169.52-245.19.51-3.49-9.5,2.68-13.8-1a27.26,27.26,0,0,1-2.1-2.31,10.44,10.44,0,0,0,3-1.39c3.76-2.65,10.62-9,8.78-19.14-1.25-14.4-4.4-28.59-7.62-42.68-5.58-23.5-12-46.83-19.67-69.76-1.84-5.06-3.35-10.45-6-15-.32.1,1.11.3,1.26-.27.1-.2,0-.09,0,0l0,.41c-2.24,27.8-9.08,56-24.76,79.38C577.34,343,527.6,355.4,480,365.58c-8.11,1.76-19.86,5.27-27.93,7.73-18.36,5.54-37.13,11.39-52.62,23-23.51,17.53-35,46-42.28,73.55-17.36,58.86-3.08,114.63,29.07,165.5a347.87,347.87,0,0,0,55.3,66.78c7.05,6.57,14.37,12.88,22.54,18,20.36,13.23,47.49,20.72,63.58-2.84,7.88-11.72-5.37-14.57-14.53-14.63-17.22,0-40.81,5.65-53.36,18-3.22,3.34-5.53,7.89-4.66,12.58l-1.24.21c-1-5.08,1.51-10.1,5-13.67,10.59-10.34,25.54-14.66,39.73-17.29a82.62,82.62,0,0,1,14.57-1.17c4.92.15,10,.54,14.39,3.13,8.19,4.88,1.47,14.63-3.43,19.32-17.07,17.79-42.85,9.35-60.85-2.37-8.25-5.18-15.67-11.55-22.78-18.16a348.53,348.53,0,0,1-55.64-67C352.4,585,338,528.73,355.38,469.4c7.38-27.9,19-56.85,42.89-74.65,19.55-14.65,44.19-20.46,67.13-27.54,23.32-6.41,47.42-10.17,70.1-18.5,37.69-13.08,67.34-37.95,81.51-75.88,6.47-16.85,9.8-34.81,11.26-52.76l.05-.5a2.09,2.09,0,0,1,.28-.88c.3-.89,2.15-.58,2-.28a7.25,7.25,0,0,1,1.47,2.29c4,9,6.68,18.24,9.65,27.56q8.55,27.8,15.28,56.11c3.24,14.19,6.42,28.47,7.68,43a24.15,24.15,0,0,1-1.21,10.21c-1.78,5.15-6.12,8.44-7.64,9.47-1.27.82-2.69,2.09-.64,2.86.81.31,4.78-.38,5.41-.56,1.42-.4,5.3-2.11,6.84-2.11s1.46,2.37,1.4,3.34c-8.63,112.2-63.78,217.85-178.11,250.22-30.21,7.62-59.48,22-80.17,45.79a164.87,164.87,0,0,0-17,23.29c-1.95,3-5.54,9.37-8,12.29-5,6.31-9.25,2.76-12.57-3.19-4.82-8.5-8-17.7-11.88-26.61-25.71-54.1-98.84-59.37-150.6-71.66-14-3.58-29.24-6.74-40.4-16.69-10.82-10.53-14.49-26.29-14.32-40.85.3-19.61,5.5-38.73,13-56.73a63.4,63.4,0,0,1,46.18-46.61,65.32,65.32,0,0,1,17.13-2.49l5.64.35c15,.85,30.14,1.49,45.17,1.25,6.43-.25,13.09-.15,19.27-2,.67-.24,1.86-.81,2.55-1.09a186.93,186.93,0,0,1,21.75-7.64c2-.74.19-4.81-.49-6.36-2.72-5.49-7.33-9.76-12.31-13.45a32.5,32.5,0,0,0-6.5-3.73l-2.36-1Z" transform="translate(-154.86 -133.68)"/></g></g><g id="Forehead"><path class="cls-2" d="M196.06,327.32c.82-1.47,1.64-2.81,2.26-3.71,1-2.15,1.88-4.3,2.71-6.5a104.77,104.77,0,0,0,5.71-20.23l.22.89c-5.88-8.3-12.12-17.3-12.66-27.83-.19-10.24.16-20.25.88-30.46.59-6.86,1.17-13.5,3-20.25l2.35.78-.89,2.52.91-2.54c-3.15,12.89-3.39,26.52-3.71,39.77,0,3.39-.22,6.75,0,10,.54,10.22,6.78,18.83,12.49,27a113.07,113.07,0,0,1-8.72,28c-2.13,3.56-4.57,7.62-5.31,11.74a8.8,8.8,0,0,0,6.24,10.05l1.89.59-.12,0c2.88.25,14,.77,10.06-4.44-1.74-2.17-5.78-2.35-7.91-1.57-4,1.94-1.66,4,1.17,4.51,10.65,1.94,22.18,2.62,16.21-12.44h.66c2.84,4.46,4.41,11.45-1.5,13.7-2.67,1-5.42.67-7.9.37a50.65,50.65,0,0,1-9.5-1.71c-1.11-.36-2.55-1.63-1.63-3.06,1.54-2,4.31-2.5,6.71-2.36a5.53,5.53,0,0,1,4.88,3.67c1.84,5.73-8.11,5.13-11.48,5H203l-2.08-.59c-5.18-1.53-9.32-6.5-8.08-12.13h0a31.17,31.17,0,0,1,3.27-8.69Z" transform="translate(-154.86 -133.68)"/></g><g id="Lips"><path class="cls-3" d="M203.66,347.79c3.76,2.36,7.11,5.08,8.19,9.61.35,2.37-.32,3.45-1.43,5.37-.09.24.15.12.15.12,6.33-1,11.11,3.63,16.76,6.31,3.53,1.51,8.21,3.07,11.91,1.33l1.71,1.35c-2,5.52-3.89,11.12-8.55,14.95-3.4,2.92-8.11,3.71-12.42,2.95a7.6,7.6,0,0,1-4.09-1.87c-1.73-1.73-1.79-4.2-1.52-6.41.42-4.2,5-5.41,8.43-6,5.56-1,11.18-1.61,16.33-3.84l.42-.16.57.31c.74.42.15,1.48-.63,1.92-.44.28-.41.39-.9.45-6.12.21-12.1,1.53-18.21,1.79a15.21,15.21,0,0,1-4.88-.38c-4.74-1.68-8.39-8-7-11.34l1.56-.27a6.58,6.58,0,0,0-.25,4.31,9.49,9.49,0,0,0,10.56,7.36c5.86-.27,13.94-1.15,18.25-3.68-.62.46.2,1.94.2,1.94-2.88.33-4.7.91-7.5,1.3-4.13.68-8.4.88-12.31,2.31a5.07,5.07,0,0,0-3.36,3.18,10.86,10.86,0,0,0-.27,2.95c0,2.9,2,4.63,4.83,5,4,.67,8.29-.1,11.33-2.85a20.55,20.55,0,0,0,7.09-13.56l-.06-.09c-4.66.78-7.15,0-11.35-1.83-4.78-2.36-9.44-5.14-14.79-5.87a10,10,0,0,0-2.79-.05.78.78,0,0,1-.7-.2.82.82,0,0,1-.16-1,13.45,13.45,0,0,0,1.37-2.77c1.83-5-3.45-9.54-7.23-12.06l.57-1h0l.2.39Z" transform="translate(-154.86 -133.68)"/></g><g id="Hair_ear" data-name="Hair ear"><path id="Ear_lobe" data-name="Ear lobe" class="cls-4" d="M336.66,274.94c4.09-9.35,13.78-20,24.58-10.19,14.41,13.1,14.68,22.38,12.22,30.11a45.93,45.93,0,0,1-2.51,6c-5.68,11.69-17.93,29.75-23.25,25-9-8,0-14.7,7.44-20.77,3.29-2.68,6.24-5.23,7.19-7.71a52.6,52.6,0,0,0,1.77-5.56c5.26-20.88-9.42-27.64-15.54-7.52" transform="translate(-154.86 -133.68)"/><path class="cls-1" d="M361.23,304.33a24.15,24.15,0,0,1-2.32.74,25.24,25.24,0,0,1-3.52.57l.38-1.11A20.3,20.3,0,0,0,361.23,304.33Z" transform="translate(-154.86 -133.68)"/><path id="Ear_hole" data-name="Ear hole" class="cls-4" d="M364.09,291.8a50.37,50.37,0,0,1-1.77,5.56c-.95,2.48-3.9,5-7.19,7.71-4.76-.19-9.77-2.68-8.3-12.84a54.75,54.75,0,0,1,1.72-8c6.13-20.12,20.81-13.34,15.54,7.52h0Z" transform="translate(-154.86 -133.68)"/><g id="Ear_loop" data-name="Ear loop"><path class="cls-2" d="M342,285.26c-1.14,1.24-2,3-4,2.82s-3.13-2-3.74-3.57c-1.07-3.51.52-7.09,1.33-10.5l.73-.27c2.82-.64,5.1-1.84,8.13-2.27,5.09-.33,2.16,5.58,1,8.11a39.12,39.12,0,0,1-3.52,5.68Zm3.25-11.41c-2.66.11-4.39-1.26-7.43.81l-1.92,1.23a16.14,16.14,0,0,0-1.78,5.85c-.13,2.81,2.23,7,5.33,5.61,2.74-1.59,4.65-8.36,4.65-8.36s1.47-3.9,1.15-5.14Z" transform="translate(-154.86 -133.68)"/></g><g id="Hair"><path class="cls-2" d="M513.36,364.69c-7.52,20.88-47.29,40.17-66.76,49.84-12.7,6-25.53,12.45-39.59,14.35a122.46,122.46,0,0,1-62.46-7.2c-3.13-1.35-14.69-6.44-9.18-10.85a24.18,24.18,0,0,1,3.89-1.53c7.17-2.84,13.63-7.25,19.66-12.13,12.91-10.71,17.58-17.43,19.26-34.49,1.69-20.93-2.24-40.16-8.06-60.2,2.72-5.35,5.3-12,3.75-17.9-1.85-7.18-8.19-14-13.54-19-6.25-5.79-12.92-3.92-18,2.34-2,2.4-2.86,4.26-5.3,7.19-2.65,1.8-4,2.42-6.9,1.37,0,0-1-.33-1-.33-7.77-2.94-26.75-10.69-29.53,1.8-.37,1.63-.28,3.36-.73,5-1.69,8.8-11.42,8.8-18.2,6.66A79,79,0,0,1,262,281.15l-.27-.17-.17-.33c-1.8-3.46-5.46-7.18-9.65-5.88-3.31.82-5.3,4.3-8.4,5.79-10.09,4.23-20.3-11.12-24.86-18.39l-2.32-4.47,4,2.8a7.9,7.9,0,0,0,9-.52c4.23-2.92,6.72-8.13,8.44-12.91a16.68,16.68,0,0,0,1-5.09c.26-17.69-23.39-23.14-37.24-24.85l-.76,0s-5.4,29.3-5.41,29.3l-.54,3.55-1.73-3a3.29,3.29,0,0,0-3.11-1.82c-2.57.54-5.19,4.09-5.46,6.73-.28,2.83,1.28,5.76,2.91,8,.09.19.93,1,.62,1.16a1.56,1.56,0,0,1-.75.1c-5.61-.59-9.65-8-10.49-11.07-7.78-12.12-8.5-27.2-1.12-39.67,6.75-11.54,19.43-26.55,32.67-29.49l.34-.12c28.28-35.07,71.71-49.63,115.49-45.28,5.45.51,14.25,1.72,17.94,2.88a79.64,79.64,0,0,1,23.72,1.25c23.27,4.79,45.55,21.66,63.1,37.37,36.19,33.46,71.44,122,77.7,170.86.27,1.95.37,3.94.51,5.92a6,6,0,0,0,.63,2.84c1.42,2.72,6.56,4.29,5.6,8.13h0ZM511,364a1.21,1.21,0,0,0-.33-1c-1.61-1.74-3.68-2.82-5-5.14a8.22,8.22,0,0,1-.95-3.94c-.15-1.93-.22-3.84-.49-5.77-6.19-48.25-41.14-136.18-76.91-169.31C409,162.36,385.4,145,360.82,141.18a79.56,79.56,0,0,0-18.63-.4A133.06,133.06,0,0,0,324,137.89c-43-4.25-85.85,10.27-113.61,44.69l-.31.36-.44.09c-12.5,2.84-25.34,17.6-31.74,28.51-7,11.79-6.2,26,1.19,37.34.77,4.25,3.44,10.42,7.76,12.08.41.14-4.12-5.9-3.86-9.25.32-3.57,3.15-7.64,6.65-8.62a5.58,5.58,0,0,1,5.58,2.51s.16.82.17.79l3.51-31,.14-1.25c7.62,1.1,12.57,2.8,19.73,5.49C230.5,224,244,233,238.9,247.43c-1.82,5.07-4.28,10.45-8.57,13.86-3,2.52-6,3.24-9.55,1.32l-.9-.19a43.48,43.48,0,0,0,16.89,15.69c7,3.14,8.51-4.15,14.53-5.73a8.85,8.85,0,0,1,7.69,1.41A13.51,13.51,0,0,1,263.4,279l.31.23c7,4.08,23.71,13.33,30.87,7,2.34-2.22,2.09-5.82,2.66-8.81a11,11,0,0,1,2.41-5.05c7.35-8,23.56-1.21,30,1.37,2.05.75,3.32.64,5.66.07l1.06-.79a24,24,0,0,1,4.18-6.7c5.87-7.3,14.18-9.37,21.54-2.58,5.72,5.29,11.24,11.37,13.25,19.15,1.68,6.28-.32,12.32-3.15,17.85l.08.48c6.93,24.42,14.62,58.58,2.91,82.28-3.83,6.2-9.14,10.9-14.58,15.54-6.83,5.54-14.39,10.64-22.87,13.42-.7.2-1.27.64-1.22.72s.1.61.63,1.12c2.21,2.22,5.56,3.77,8.5,5a120,120,0,0,0,61.1,7c13.88-1.88,26.38-8.28,38.91-14.14,18.94-9.39,58.07-28.42,65.47-48.35H511Z" transform="translate(-154.86 -133.68)"/></g></g><g id="BO"><line id="Crochet_1" data-name="Crochet 1" class="cls-5" x1="197.26" y1="185.31" x2="197.79" y2="208.83"/><line id="Crochet_2" data-name="Crochet 2" class="cls-5" x1="197.78" y1="224.48" x2="198.31" y2="244.22"/><circle id="BO_pièce_2" data-name="BO pièce 2" class="cls-6" cx="198.41" cy="257.94" r="15.31"/><path id="BO_pièce_1" data-name="BO pièce 1" class="cls-6" d="M352.38,342.48a27.74,27.74,0,0,0-27.75,27.75h55.51a27.74,27.74,0,0,0-27.75-27.75Z" transform="translate(-154.86 -133.68)"/></g></g></g></svg>