<svg xmlns="http://www.w3.org/2000/svg" viewBox="0 0 516.77 603"><defs><style>.cls-1{fill:#7d414d;}.cls-2{fill:#d98d6b;}</style></defs><g id="Calque_2" data-name="Calque 2"><g id="Calque_1-2" data-name="Calque 1"><g id="Fée"><path id="Body" class="cls-1" d="M516.72,235.3a3.17,3.17,0,0,0-1.5-2.1,3.42,3.42,0,0,0-1.4-.4,5.65,5.65,0,0,0-1.3,0,3.16,3.16,0,0,0-.9.2c-.9.2-1.7.5-2.4.7l-.2.1c-.5.2-1,.3-1.5.5-1,.3-2,.7-2.9.9a6.78,6.78,0,0,1-1.8.3,15.34,15.34,0,0,0,3.1-1.9,18.49,18.49,0,0,0,5.4-7.6,24.27,24.27,0,0,0,1.4-8.9,60.63,60.63,0,0,0-.6-8.3,304.55,304.55,0,0,0-6-32l-1.4-5.7c-.1-.7-.3-1.4-.4-2.1-.5-2.5-1.1-5-1.8-7.9-1.4-5.6-2.8-11.1-4-15.7-3.1-11.3-6-21.5-8.9-31.1-1.8-6-3.4-10.9-5-15.4-1-2.9-1.9-5.3-2.9-7.7-.2-.5-.4-.9-.6-1.4l-.3-.6c-.3-.6-.7-1.3-1-2l-.1-.2a11.88,11.88,0,0,0-1.1-1.8,2.86,2.86,0,0,0-.6-.7,2.3,2.3,0,0,0-.7-.5l-.2-.1a2.63,2.63,0,0,0-1.9-.4,3,3,0,0,0-2.2,1.2,4.4,4.4,0,0,0-.5.9,5.76,5.76,0,0,0-.3,1,9.54,9.54,0,0,0-.2,2.2l-.2,4.1-.1,2c-.2,2.4-.5,4.9-.9,7.8-.7,5-1.7,10.2-2.9,15.6a144.55,144.55,0,0,1-4.3,15.2A162.77,162.77,0,0,1,450,161.9a107.17,107.17,0,0,1-9.1,12.7,110.86,110.86,0,0,1-23.2,21,147.64,147.64,0,0,1-27.8,14.8l-1.2.5c-2,.8-4.1,1.7-6.3,2.4s-4.6,1.7-7.5,2.6c-4.5,1.4-9.4,2.8-15.4,4.4-4.9,1.3-9.9,2.6-15.6,3.9-2.4.6-4.8,1.1-7.3,1.7-2.8.6-5.6,1.3-8.4,2-9.6,2.3-19.8,5.1-31.2,8.6l-2.5.8c-9.4,2.8-19,5.7-28.3,9.8a108.19,108.19,0,0,0-14.6,7.7q-3.3,2.1-6.9,4.5c-2.4,1.7-4.5,3.2-6.6,5a92.27,92.27,0,0,0-20.6,25.8,171.84,171.84,0,0,0-12.9,30c-1.6,4.9-3.2,9.9-4.8,15.5-.6,2.4-1.3,4.9-2.1,7.9l-.9,3.9c-.3,1.4-.6,2.8-.9,4a180.26,180.26,0,0,0-1.6,65c3.1,20.1,10,40.9,20.4,61.7,2.3,4.6,4.8,9.5,7.6,14.4,2.5,4.5,5.3,9.3,8.2,14q8.79,13.66,18.9,26.4l1.1,1.4c-1.1,1.4-2.2,2.7-3.3,4.1-2,2.7-4,5.4-5.8,8.2-1.4,2.1-2.6,4.2-3.9,6.2-.4.7-.9,1.5-1.3,2.2-1.9,3.1-3.5,5.7-5.2,8.2-.9,1.4-1.8,2.7-2.6,3.7l-.6.7a2.42,2.42,0,0,1-.6.5c-.4.3-.5.3-.6.3a4.3,4.3,0,0,1-1.8-1.5,20,20,0,0,1-2.5-3.6c-1.6-2.9-3.1-5.9-4.2-8.5-1.6-3.4-3.1-7-4.5-10.4-1.1-2.5-2.1-5.1-3.2-7.6a73.86,73.86,0,0,0-10.7-17.3c-7.8-9.5-18.4-17.9-31.6-24.8-10.6-5.5-22.4-10-37.1-14.3-13.2-3.8-26.8-6.7-38.4-9.1l-7.2-1.5c-10.2-2.1-20.8-4.3-31-7l-2.1-.5a143.45,143.45,0,0,1-16.5-4.8c-6.8-2.5-12-5.4-16.1-9a36.4,36.4,0,0,1-10-14.9,63.58,63.58,0,0,1-3.6-18.3,77.2,77.2,0,0,1,.1-9.5c.2-3,.5-6.1,1-9.6a168.25,168.25,0,0,1,3.7-18.9c.8-3.2,1.7-6.3,2.7-9.2,1-3.1,2.1-6.1,3.3-8.9l.2-.4c.3-.6.5-1.2.8-1.8l1.1-2.3a23,23,0,0,0,1.2-3.8,11.5,11.5,0,0,1,.4-1.3,48.62,48.62,0,0,1,3.3-8.6,51.52,51.52,0,0,1,5.1-7.8,71,71,0,0,1,6.2-7.1,58.83,58.83,0,0,1,7.1-6,56.87,56.87,0,0,1,8-4.8,24.48,24.48,0,0,1,2.8-1.3c.5-.2,1-.4,1.4-.6l3.3-1.2,3.4-1.1,2.3-.6c1.6-.4,3.1-.8,4.6-1.1a50.86,50.86,0,0,1,9.2-.9,13.34,13.34,0,0,1,2,.1l7.6.5c10.8.6,25,1.2,39.4,1.1,3.8,0,7-.1,9.9-.3a75.7,75.7,0,0,0,10.2-1.2,15.34,15.34,0,0,0,2.6-.7c.8-.2,1.7-.6,2.6-.9l4.5-1.9c2.5-1,5.7-2.3,9-3.4,2.9-1,5.9-1.9,9.2-2.7l.4-.1c.1,0,.1,0,.4-.1a3.76,3.76,0,0,0,1.8-1.2,4.44,4.44,0,0,0,1-2.6,11.44,11.44,0,0,0-.3-3.4,20.8,20.8,0,0,0-2-5.2,28.06,28.06,0,0,0-2.9-4.5c-.7-.9-1.2-1.5-1.7-2.1a2.9,2.9,0,0,1-.5-.6c-.4-.4-.8-.9-1.2-1.3a43.47,43.47,0,0,0-8.2-6.6,55.17,55.17,0,0,0-9.2-4.5l-.7-.3q2-1.2,4.2-2.7c1.6-1.1,3-2.2,4-3a81.93,81.93,0,0,0,7.8-6.6,52.4,52.4,0,0,0,3.6-4,16.4,16.4,0,0,0,1.5-2.6,8,8,0,0,0,.9-3.5,5.78,5.78,0,0,0-1.8-4.3,7.33,7.33,0,0,0-3.8-1.7,16.09,16.09,0,0,0-5.9.5,53,53,0,0,0-9.7,3.7,58,58,0,0,0-8.7,5.5,36,36,0,0,0-3.9,3.5,15.06,15.06,0,0,0-3.2,4.8,8.65,8.65,0,0,0-.1,6.5,9.28,9.28,0,0,0,2.8,3.8c-2.4,1.2-5.1,2.4-8.1,3.7-2.6,1.2-5.2,2.2-7.9,3.3l-1.1.4q-4.2,1.65-9,3.3c-3.1,1-6.2,1.9-9.2,2.6a27,27,0,0,1-8.9,1.2,18.42,18.42,0,0,1-4.3-.6,14.14,14.14,0,0,1-3.8-1.4,10.76,10.76,0,0,1-3-2.5,13.08,13.08,0,0,1-2-3.5,21.62,21.62,0,0,1-1.4-8.5c0-.4.1-.9.1-1.4,0-.3.1-.6.1-1a10.75,10.75,0,0,0-.2-3.2,7.91,7.91,0,0,0-.4-1.5,5.87,5.87,0,0,0-.7-1.7,8.17,8.17,0,0,0-2.4-2.6l-.8-.6-3.4,4.4.8.6a4.52,4.52,0,0,1,1,1,3.82,3.82,0,0,1,.4,1.4,8.05,8.05,0,0,1,.1,1.7,2,2,0,0,1-.1.8,9.65,9.65,0,0,0-.1,1.7,26.65,26.65,0,0,0,.3,5.5,23.54,23.54,0,0,0,1.4,5.3,17.26,17.26,0,0,0,2.9,5,15.22,15.22,0,0,0,4.5,3.8,16.86,16.86,0,0,0,5.3,2,30,30,0,0,0,5.4.8,34.78,34.78,0,0,0,10.5-1.4q4.8-1.2,9.6-2.7c3.4-1.1,6.5-2.2,9.4-3.4l1.2-.5c2.6-1.1,5.3-2.2,7.9-3.3,3.4-1.5,7.5-3.4,11.8-5.6,1.3.6,2.7,1.2,4,1.7a58.75,58.75,0,0,1,9.1,4.5,35.18,35.18,0,0,1,7.1,5.7c1.2,1.3,2.2,2.4,3,3.4a36.76,36.76,0,0,1,2.4,3.8,18.82,18.82,0,0,1,1.5,3.9,2.41,2.41,0,0,1,.1.8c-3.2.8-6.2,1.7-9,2.6-3.4,1.2-6.8,2.5-9.3,3.5l-4.6,1.9c-.8.3-1.3.5-2,.7a10.71,10.71,0,0,1-2.1.5,63,63,0,0,1-9.3,1.1c-2.9.1-5.9.2-9.7.3-14.2.1-28.4-.6-39.1-1.2l-7.5-.5c-.8,0-1.6-.1-2.4-.1a53.27,53.27,0,0,0-10.3,1c-1.6.3-3.2.7-5,1.2l-2.4.7-3.7,1.1L52,307.5c-.5.2-1,.4-1.4.6a32.08,32.08,0,0,0-3.2,1.5,59.57,59.57,0,0,0-8.8,5.3,63.09,63.09,0,0,0-7.9,6.6,74.13,74.13,0,0,0-12.3,16.3,44.83,44.83,0,0,0-3.7,9.7l-.3,1.2a15.57,15.57,0,0,1-1,3.1l-1,2.1c-.3.7-.6,1.3-.9,2l-.2.4a98.19,98.19,0,0,0-3.5,9.4c-1,3-1.9,6.3-2.8,9.6a183.74,183.74,0,0,0-3.8,19.6c-.5,3.6-.8,6.9-1,9.9A76.55,76.55,0,0,0,4,435.1a41.21,41.21,0,0,0,11.7,17.3,57.07,57.07,0,0,0,18,10,154.83,154.83,0,0,0,17,4.9l2.2.5c10.4,2.8,21,5,31.3,7.1l7.2,1.5c11.5,2.4,24.9,5.3,38,9,14.2,4.1,25.9,8.6,36,13.8,12.5,6.5,22.5,14.4,29.8,23.3a66.05,66.05,0,0,1,9.9,16c1.1,2.4,2.1,4.9,3.2,7.4,1.5,3.5,3,7.1,4.6,10.6,1.3,2.9,2.8,6,4.5,9a36.65,36.65,0,0,0,3.1,4.5,11.18,11.18,0,0,0,2.3,2.1,6.78,6.78,0,0,0,3.9,1.3h0a7.27,7.27,0,0,0,4-1.4,5.71,5.71,0,0,0,1.2-1.1l1-1.1a41,41,0,0,0,2.8-4l.2-.3c1.9-2.9,3.7-5.8,5.2-8.4a24.41,24.41,0,0,0,1.3-2.2c1.2-2,2.5-4.1,3.8-6.1,1.7-2.7,3.6-5.3,5.5-7.8l2.4-3c5.1,6.2,10.6,12.4,16.4,18.5a297.57,297.57,0,0,0,23.4,22.5c3,2.5,5.8,4.7,8.4,6.7a24.55,24.55,0,0,0-4,6.9,17.57,17.57,0,0,0-.5,9.4l.2,1,5.3-1.1-.2-1a13,13,0,0,1,.4-6.5,19,19,0,0,1,3.3-5.5h0c2.3,1.5,4.6,3,7.1,4.4,2.3,1.3,4.7,2.5,7.4,3.7a64.64,64.64,0,0,0,16.1,5.1,42,42,0,0,0,8.6.6,41.45,41.45,0,0,0,8.6-1.2,36.61,36.61,0,0,0,15.3-8.2,32.59,32.59,0,0,0,5.7-6.7,17.83,17.83,0,0,0,3.1-8.7,9.66,9.66,0,0,0-1-5.2,9.83,9.83,0,0,0-3.9-3.8,24.84,24.84,0,0,0-8.5-2.6,61.85,61.85,0,0,0-16.7-.2,101.56,101.56,0,0,0-16.2,3.1,88.64,88.64,0,0,0-15.6,5.8,52.59,52.59,0,0,0-10.3,6.5c-2.8-2-5.8-4.2-9.1-6.9-13.3-10.9-26.5-24.2-40-40.7,2.2-2.4,4.5-4.8,6.9-7.1a143.36,143.36,0,0,1,31.2-22.3,187.07,187.07,0,0,1,35.9-14.2l2.2-.6,7.3-2.1,4.7-1.5,4.7-1.6c6.2-2.1,12.5-4.6,18.5-7.2a215.89,215.89,0,0,0,65.4-44.5A243.44,243.44,0,0,0,460,402.6a273,273,0,0,0,20.7-33.8,323.78,323.78,0,0,0,26.8-74.4c2.9-12.8,5.2-25.9,6.8-38.9.8-6.2,1.4-12.6,1.9-19.7v-.3C516.82,236.2,516.82,235.8,516.72,235.3Zm-37.6-134.6c1.5,4.4,3.1,9.2,4.9,15.2,2.9,9.5,5.8,19.6,8.9,30.9,1.2,4.6,2.7,10,4,15.5.7,2.9,1.3,5.3,1.8,7.8a12.31,12.31,0,0,0,.4,1.8,1.71,1.71,0,0,1,.1.5l1.4,5.6c2.3,9.9,4.6,20.6,6,31.3a56.68,56.68,0,0,1,.5,7.7,17.66,17.66,0,0,1-1.1,6.9,14.7,14.7,0,0,1-3.7,5.5,12,12,0,0,1-4.5,2.5l-.1-.1-.1.2c-.3.1-.7.1-1,.2l-3.7.4,2,3.1a3.16,3.16,0,0,1,.5.8l-.2.4h.4c.3.4.6.7.9,1.1a7.19,7.19,0,0,0,3,2.1,11.1,11.1,0,0,0,6.3.4,46.33,46.33,0,0,0,4.8-1.4l.3-.1c-.5,5.9-1,11.3-1.7,16.6a373.46,373.46,0,0,1-6.8,38.3c-6.2,26.4-15,51-26.4,73a263.17,263.17,0,0,1-20.3,33.1,232.19,232.19,0,0,1-25.2,29.4,209.65,209.65,0,0,1-63.7,43.3c-5.9,2.6-12,5-18,7.1l-4.6,1.5-4.6,1.4c-2.6.8-5.2,1.5-7.9,2.2l-1.5.4a185.9,185.9,0,0,0-37,14.7,143.53,143.53,0,0,0-32.5,23.2c-2.3,2.2-4.5,4.5-6.6,6.8-.2-.2-.3-.4-.5-.6a313.28,313.28,0,0,1-18.6-26c-2.9-4.5-5.6-9.3-8.1-13.8-2.7-4.8-5.2-9.6-7.4-14.1-10.1-20.4-16.8-40.6-19.8-60.2a176.57,176.57,0,0,1,1.6-63.1c.2-1.2.5-2.5.8-3.9l.9-3.9c.5-2.1,1.3-4.9,2-7.7,1.6-5.5,3.1-10.5,4.7-15.2a180.24,180.24,0,0,1,12.6-29.1c5.6-10,12.1-18.2,19.4-24.3,1.9-1.6,3.9-3,6.2-4.7s4.5-3,6.6-4.3a117.9,117.9,0,0,1,13.9-7.3c8.9-3.9,18.5-6.8,27.8-9.6l2.3-.7c11.3-3.4,21.4-6.1,30.9-8.4,2.7-.7,5.6-1.3,8.3-1.9,2.5-.5,4.9-1.1,7.4-1.7,5.7-1.3,10.8-2.6,15.7-3.9,6.1-1.6,11-3,15.6-4.4,3-.9,5.5-1.8,7.8-2.6s4.4-1.7,6.5-2.5l1.1-.4a156.48,156.48,0,0,0,28.9-15.4,120.07,120.07,0,0,0,24.4-22.1,115.07,115.07,0,0,0,9.6-13.4,124.83,124.83,0,0,0,7.8-14.5,139,139,0,0,0,6.3-15.2,146.8,146.8,0,0,0,4.4-15.8c1.2-5.4,2.2-10.8,2.9-16.1.4-2.9.7-5.4.8-7.8A48.09,48.09,0,0,1,479.12,100.7ZM143.22,263a5.85,5.85,0,0,1-2.4-2.2,4.66,4.66,0,0,1-.2-3.1,7.8,7.8,0,0,1,2-3.3,26.85,26.85,0,0,1,3.4-2.9,48.38,48.38,0,0,1,8.2-4.5,40.89,40.89,0,0,1,8.8-2.9,16.86,16.86,0,0,1,3-.3,2.71,2.71,0,0,1,.9.1,3,3,0,0,1,.6.2v.2a6.22,6.22,0,0,1-1.3,2.8,26,26,0,0,1-2.9,3.3,82.26,82.26,0,0,1-7.2,6.1c-1.5,1.1-2.7,2-3.8,2.8a35.74,35.74,0,0,1-4,2.5c-1.1.7-2.3,1.3-3.6,2C144.12,263.5,143.72,263.2,143.22,263Zm174,325.7c-1.8-.9-3.6-2-5.4-3.1a52.07,52.07,0,0,1,7.9-4.7,92.67,92.67,0,0,1,14.6-5.4,99.77,99.77,0,0,1,15.4-3c2.8-.3,5.3-.5,7.8-.6a61.83,61.83,0,0,1,7.7.2A16.65,16.65,0,0,1,372,574a4.07,4.07,0,0,1,2.2,4.3,13.34,13.34,0,0,1-2.5,6.1,29.12,29.12,0,0,1-18,11.6,38.08,38.08,0,0,1-14.7.4,65.11,65.11,0,0,1-14.6-4.5,44.11,44.11,0,0,1-7.2-3.2Z"/><path id="Forehead_bangs" data-name="Forehead bangs" class="cls-1" d="M223.72,151.4a24.67,24.67,0,0,0-3-8,43.67,43.67,0,0,0-4.7-6.6c-1.6-1.9-3.3-3.7-5.4-5.8l-.4-.4c-.3-.3-.7-.6-1.1-1a17.9,17.9,0,0,0-1.8-1.3,14.85,14.85,0,0,0-3.9-2.1,13.87,13.87,0,0,0-9.4-.4,17.24,17.24,0,0,0-7.5,4.8,30.58,30.58,0,0,0-2.7,3.3,22.47,22.47,0,0,0-2.1,3.7c-.37.82-.71,1.65-1,2.5a8.61,8.61,0,0,1-3.2.1,5,5,0,0,1-1.3-.4l-1.8-.7c-1.5-.6-2.6-1-3.6-1.4-5.6-2-10.4-3.3-15.7-3.3a14.12,14.12,0,0,0-8.7,2.6,10.47,10.47,0,0,0-3.2,3.7l-.9,2.1c-.2.7-.4,1.3-.6,2a21.74,21.74,0,0,0-.6,3.2l-.1.8a4.45,4.45,0,0,1-.9,2.5,9,9,0,0,1-2,1.9,8.38,8.38,0,0,1-2.7,1,24.22,24.22,0,0,1-6.8.3,60.5,60.5,0,0,1-7.2-1,76.88,76.88,0,0,1-10-2.7l.6-1.2a9.74,9.74,0,0,0,.9-3.6,6.94,6.94,0,0,0-1.1-4.2l-.2-.3a12.54,12.54,0,0,0-8-4.5,13,13,0,0,0-8.8,2,28.63,28.63,0,0,0-3.6,3c-.7.6-1.3,1.2-2,1.7a4.6,4.6,0,0,1-4.5.9,17.5,17.5,0,0,1-5.5-2.9,35.88,35.88,0,0,1-8.2-9,11,11,0,0,0,4.5-1.3,15.61,15.61,0,0,0,5.1-4.1c.3-.4.5-.7.7-1l1-1.5a22.92,22.92,0,0,0,1.5-2.4,28.38,28.38,0,0,0,3.7-11.1c.1-1.1.1-2.1.1-3l-.1-1.5-.1-.5c0-.3-.1-.7-.1-1a16.06,16.06,0,0,0-2.1-5.8,24.78,24.78,0,0,0-3.6-4.8,33.25,33.25,0,0,0-4.4-3.8,55.19,55.19,0,0,0-9.9-5.4l-2.6-1.1L62,83.5c-1.9-.6-3.7-1.1-5.2-1.5-3.4-1-7-1.8-10.5-2.6l-3.2-.7-.4,3.2c-.2,1.1-.2,2.1-.3,3.1-.1.8-.1,1.5-.2,2.2a3.81,3.81,0,0,1-.2,1.1l-.3,1.3a19.65,19.65,0,0,0-.4,2l-.1.7a106,106,0,0,0-1.4,10.8c-.4,3.7-.6,7.5-.8,10.8-.2,3.8-.4,7.3-.4,10.8-.1,4-.1,7.6.1,10.9v.8a18.42,18.42,0,0,0,.2,2.1,18.87,18.87,0,0,0,.5,2.8,38.21,38.21,0,0,0,1.4,5.5,48.11,48.11,0,0,0,5.1,10.1c1.7,2.7,3.4,5.3,5.4,8.1-.4,2.1-.8,4.2-1.3,6.2-.6,2.3-1.4,4.6-2.2,6.9l-.1.3c-.9,2.6-1.7,4.9-2.6,7.1-.4,1.1-.9,2.3-1.4,3.4-.1.2-.2.5-.3.7l-1.5,2.4a49.55,49.55,0,0,0-3.8,7.3,16.64,16.64,0,0,0-1.2,4.5v2.3a16.24,16.24,0,0,0,.4,2.4,7.46,7.46,0,0,0,1.1,2.5,11.51,11.51,0,0,0,1.5,1.9,18.75,18.75,0,0,0,3.8,2.9,20.12,20.12,0,0,0,8.5,2.1h1.4c.94,0,1.87,0,2.8-.1a11.06,11.06,0,0,0,2.3-.3,7.23,7.23,0,0,0,2.7-1c.2-.1.4-.3.6-.4a18.48,18.48,0,0,0,3.4.2A10.56,10.56,0,0,0,70,215a7,7,0,0,0,3.6-4.3,9.93,9.93,0,0,0,.3-4.9,15.82,15.82,0,0,0-2.8-6.9l-.3-.5-4.5-.1.6,1.4a28.91,28.91,0,0,1,2.2,6.7,5.75,5.75,0,0,1-.2,2.7,2.66,2.66,0,0,1-1.3,1.6,4.83,4.83,0,0,1-2.9,1v-.4l-.2-1.2a6.64,6.64,0,0,0-1.7-2.8,6.24,6.24,0,0,0-1.4-1.1,7.83,7.83,0,0,0-1.5-.6,12.22,12.22,0,0,0-5.6-.5c-.6.1-1.1.2-1.9.4a6,6,0,0,0-2.1,1.4,5.31,5.31,0,0,0-1.6,2.4,3.88,3.88,0,0,0-.1.9,2.62,2.62,0,0,0,.9,1.2,7.12,7.12,0,0,0,3.3,1.3,9.72,9.72,0,0,0,1.6.2,9.18,9.18,0,0,1-4.2-.1,14,14,0,0,1-4-1.6,8.9,8.9,0,0,1-3.1-3.2,2.42,2.42,0,0,1-.4-1,6.06,6.06,0,0,1-.2-1.4v-1.5a10.77,10.77,0,0,1,.8-2.9,40.33,40.33,0,0,1,3.3-6.4l1-1.6.6-1a4.25,4.25,0,0,0,.5-1c.6-1.3,1.1-2.6,1.6-3.7.9-2.3,1.8-4.7,2.7-7.4l.1-.4c.8-2.3,1.6-4.7,2.2-7.2s1.2-5.1,1.6-7.8l.2-1.1-.7-.9c-2.1-2.9-4.1-5.8-5.8-8.7a50.21,50.21,0,0,1-4.5-8.9c-.4-1.4-.8-3-1.2-4.9-.2-1-.3-1.8-.4-2.4a9.65,9.65,0,0,1-.1-1.7v-.7c-.1-3-.1-6.3,0-10.5.1-3.3.3-6.9.5-10.6q.3-5.1.9-10.5c.4-3.8.9-7.1,1.5-10.3l.1-.7a12.31,12.31,0,0,1,.4-1.8l.3-1.3a11,11,0,0,0,.3-1.6,13.42,13.42,0,0,0,.2-2c1.7.4,3.4.8,5.1,1.1l2,.5c1.5.3,3.3.8,5.1,1.2.8.2,1.6.5,2.4.7l2.4.9a43.77,43.77,0,0,1,9,4.5,20.54,20.54,0,0,1,6.7,6.8,11.09,11.09,0,0,1,1.5,4.2c0,.2.1.5.1.7v1.6a19.42,19.42,0,0,1-.2,2.4,21.29,21.29,0,0,1-3.5,8.9c-.5.8-1,1.5-1.4,2.1l-.9,1.3c-.2.3-.4.5-.5.7a8.89,8.89,0,0,1-3.2,2.5,5.18,5.18,0,0,1-3.3.6,11,11,0,0,1-3.1-1.5l-.3-.5-.2.1-10.6-8.4,6.1,12-.2.2.5.4a66.83,66.83,0,0,0,3.6,5.9,42.51,42.51,0,0,0,4.8,5.9,33.3,33.3,0,0,0,5.8,5,31.69,31.69,0,0,0,3.3,2.1,20.4,20.4,0,0,0,3.8,1.6,9.61,9.61,0,0,0,4.7.3,10.12,10.12,0,0,0,4.3-1.9,27.74,27.74,0,0,0,2.6-2.1,24.62,24.62,0,0,1,2.8-2.2,7.72,7.72,0,0,1,4.9-1,6.15,6.15,0,0,1,3.9,2.3.8.8,0,0,1,.1.5,4,4,0,0,1-.4,1.2,6.23,6.23,0,0,1-1,1.5,15.61,15.61,0,0,1-1.3,1.4l-4,3.6,5.2,1.9c.6.2,1.2.3,1.9.5v.1h0c3.8,1,8.4,2.2,13.2,3a78.23,78.23,0,0,0,7.9,1,30.4,30.4,0,0,0,8.3-.5,14.23,14.23,0,0,0,4.4-1.8,14.57,14.57,0,0,0,1.9-1.5,6.78,6.78,0,0,0,1.6-1.9,11.29,11.29,0,0,0,1.6-4.6l.1-.8a24.14,24.14,0,0,1,.5-2.8,11.06,11.06,0,0,1,.5-1.7c.2-.5.3-.9.5-1.3a5.77,5.77,0,0,1,1.7-2,10.19,10.19,0,0,1,5.7-1.6c4.9,0,9.8,1.5,14,2.9,1,.4,2.1.8,3.5,1.3l1.8.7a15.62,15.62,0,0,0,2.3.7,13.55,13.55,0,0,0,2,.2,10.41,10.41,0,0,0-.3,4.3,10.86,10.86,0,0,0,1.4,4.5,6,6,0,0,0,1.8,2,4.28,4.28,0,0,0,3.4.8,6.06,6.06,0,0,0,2.4-1.4,11.33,11.33,0,0,0,1.5-1.6,45.83,45.83,0,0,0,4.3-6.8,23.17,23.17,0,0,0,1.6-3.9,6.37,6.37,0,0,0,.3-2.6,3,3,0,0,0-.9-2.2,2.51,2.51,0,0,0-.8-.6c-.1-.1-.2-.1-.4-.2l-.1-.1a1.38,1.38,0,0,0-.6-.2,8.53,8.53,0,0,0-4.2-.1,16.37,16.37,0,0,1,7.7-5.7c3.4-1,7.3.5,10.8,4.1a56.7,56.7,0,0,1,9.2,11,18.5,18.5,0,0,1,2.5,6.1,15.82,15.82,0,0,1-.2,6.5,19.93,19.93,0,0,1-1,3.3,7.33,7.33,0,0,1-.7,1.6l-.8,1.7c-.6,1.3-1.3,2.6-2,3.9l-4,.5-2.1.3a16,16,0,0,0,2.9-3.9c.6-1.3.9-2.4,1.3-3.5l.1-.4c.3-1.2.6-2.5.9-3.8a55.38,55.38,0,0,0,.9-7.7,17.35,17.35,0,0,0-1.6-7.7,9.52,9.52,0,0,0-3-3.8,9,9,0,0,0-2.2-1.2,7.24,7.24,0,0,0-2.4-.5,8.31,8.31,0,0,0-5,1.4,10.75,10.75,0,0,0-3.1,2.6,25.45,25.45,0,0,0-3.6,7.2,45.76,45.76,0,0,0-1.8,7.5,30.42,30.42,0,0,0-.4,7.8,17,17,0,0,0,.8,4.3,6.48,6.48,0,0,0,1.4,2.3,8.59,8.59,0,0,0,1.7,1.6,6.92,6.92,0,0,0,1.9,1l-.1.1c-.9.8-1.9,1.6-2.8,2.5l-1.4,1.3a11.89,11.89,0,0,0-1.4,1.6,15.67,15.67,0,0,0-2.3,3.8,10.1,10.1,0,0,0-.7,4.8,10.87,10.87,0,0,0,1.7,4.5,18.22,18.22,0,0,0,3,3.2l.3.2a6.55,6.55,0,0,0,3,.9,9.43,9.43,0,0,0,2.8-.4,16.06,16.06,0,0,0,4-2.3,30.11,30.11,0,0,0,5.6-5.9,109.94,109.94,0,0,0,8.7-12.9c1.1-1.9,2.3-4,3.7-6.8l.9-1.7c.3-.6.6-1.2.9-1.9a29.63,29.63,0,0,0,1.3-4A27.74,27.74,0,0,0,223.72,151.4Zm-40.8-5.3c.2-.5.4-.9.6-1.3a5,5,0,0,0,.4-.8c.6-.2,1.1-.5,1.6-.7a13.74,13.74,0,0,0,1.8-1.1l.2-.1c.2-.1.3-.2.5-.3l.6-.3a6.18,6.18,0,0,1,1.9-.3,1,1,0,0,1-.1.5,14.32,14.32,0,0,1-1,3.2,23.29,23.29,0,0,1-3.5,6.1,13.84,13.84,0,0,1-1.1,1.2,4.43,4.43,0,0,1-.7.5c-.1,0-.2-.1-.3-.1a6.68,6.68,0,0,1-.6-.8,8,8,0,0,1-.3-5.7ZM54,207.8a12.92,12.92,0,0,1,3.1.4,2.89,2.89,0,0,1,1.7.9,3.09,3.09,0,0,1,.7,1.2c0,.2.2.8-.1,1.1a.76.76,0,0,1-.4.2,3.79,3.79,0,0,1-1.5,0,23.41,23.41,0,0,1-3.8-.5c-2.4-.4-3.6-.9-3.6-1.2C50.12,209.1,51.22,207.8,54,207.8Zm141.6-41.2a17.89,17.89,0,0,1-.5-3,33.68,33.68,0,0,1,.4-6.8,37.6,37.6,0,0,1,1.7-6.7,23.63,23.63,0,0,1,2.9-5.9c1.2-1.6,2.5-2.6,3.7-2.6h.2a2.32,2.32,0,0,1,1.1.3,3.13,3.13,0,0,1,1,.5,4,4,0,0,1,1.4,1.9,13.4,13.4,0,0,1,.9,6.2,34.51,34.51,0,0,1-.8,6.8c-.2,1.2-.5,2.3-.8,3.5a13.63,13.63,0,0,1-1,2.9,16.69,16.69,0,0,1-4.2,4.7l-1.8,1.5a6.14,6.14,0,0,1-2.9-1.4,9.56,9.56,0,0,1-.9-1c-.1-.2-.2-.5-.4-.9Zm17.4,3.8a12,12,0,0,0-.8,1.5,88.92,88.92,0,0,1-8.1,12.4,32.83,32.83,0,0,1-4.9,5.1,9.9,9.9,0,0,1-2.6,1.5c-.8.3-1.2.2-1.5,0-1.6-1.4-2.6-2.9-2.7-4.3a6.38,6.38,0,0,1,1.9-4.8,11.66,11.66,0,0,1,1-1.1l1.3-1.2,2.7-2.4c1.1-1,2.2-1.9,3.4-2.9.2-.2.4-.3.6-.5a26,26,0,0,0,6.8-2.1Z"/><path id="Lips" class="cls-1" d="M85.52,235.5l-1.3.6a6.45,6.45,0,0,1-1.5.5l-.9.1c-.3,0-.6.1-.9.1a11.27,11.27,0,0,1-3.5-.5c-.5-.2-1.1-.4-1.7-.7l-1.8-.9-3.7-2-1.1-.6a35.53,35.53,0,0,0-7.1-3.3,18.83,18.83,0,0,0-4.9-.7,7.39,7.39,0,0,0-1.4.1,4,4,0,0,0-.9.2h-.1a2.62,2.62,0,0,0-1.2.7l-.3.3c-.1.1-.2.2-.2.3l-.3.6-.1.3c-.1.2-.1.4-.2.6v.2a8.7,8.7,0,0,0,.2,4.5,14.07,14.07,0,0,0,1.1,2.4,16.08,16.08,0,0,0,3.1,4,14.73,14.73,0,0,0,2.2,1.5,12.88,12.88,0,0,0,1.3.5h.1a6.79,6.79,0,0,0-1.2,1.7,10.62,10.62,0,0,0-.9,5.3l.1.7a3.09,3.09,0,0,0,.2.9,13.79,13.79,0,0,0,.6,1.5,8.82,8.82,0,0,0,2,2.3,12.29,12.29,0,0,0,4.9,2.1,24.52,24.52,0,0,0,2.7.2,16.23,16.23,0,0,0,2.1-.1,14.38,14.38,0,0,0,8.7-4.1,22.66,22.66,0,0,0,5.5-7.2c.3-.7.5-1.3.8-2a60.68,60.68,0,0,1,2.5-5.8l.8-1.6ZM74.32,240c-1.3.2-2.6.4-4.1.6l-.7.1a11.1,11.1,0,0,1-3.1.2,19.25,19.25,0,0,1-3.6-.7l-.2-.1c-.3-.1-.5-.2-.8-.3l-.6-.3a4.78,4.78,0,0,1-1.2-.9,8.86,8.86,0,0,1-2-2.8,5.12,5.12,0,0,1-.8-2.8v-.1h.1a12.49,12.49,0,0,1,3.5.5,40.78,40.78,0,0,1,6.3,2.7l4.8,2.5c.7.3,1.6.8,2.6,1.2C74.42,240,74.42,240,74.32,240Zm-10.7,8.3c.6-1.3,2.7-2.5,5.1-3,1.9-.4,3.8-.7,5.8-1a17.54,17.54,0,0,0,2.3-.4c1.3-.2,2.6-.5,3.9-.7l.5-.1a4.94,4.94,0,0,1,1.2-.2c-.4,1.1-.8,2.1-1.1,2.9a12.56,12.56,0,0,1-2,3c-.4.5-.8.9-1.2,1.4a16.61,16.61,0,0,1-1.4,1.3,10.55,10.55,0,0,1-6.1,2.6c-2.8.2-4.9-.3-6.2-1.3a1.81,1.81,0,0,1-.7-.8c-.1-.1-.1-.3-.2-.4l-.1-.5A4.87,4.87,0,0,1,63.62,248.3Z"/><path id="Hair" class="cls-1" d="M361,228.7a5.86,5.86,0,0,0-1.3-2.4,16.81,16.81,0,0,0-1.4-1.4,19.61,19.61,0,0,0-3.3-2.1v-2.7q-.15-2.55-.3-4.8c-.3-2.8-.7-5.8-1.4-9.4-1-5.6-2.3-11.4-4.1-18.3-3-11.6-6.6-23.2-11-35.6-4.2-11.9-8.9-23.6-13.9-34.6a365,365,0,0,0-16.9-33.3,227.3,227.3,0,0,0-21.2-31,131.47,131.47,0,0,0-13-13.7,174.83,174.83,0,0,0-14.7-11.9,155.12,155.12,0,0,0-33-18.3L224,8.6c-1-.4-1.9-.7-2.9-1.1L216.62,6A57.07,57.07,0,0,0,207,3.9a95.79,95.79,0,0,0-18.7-.6c-5.8-1-11.9-2.1-18-2.8a18.87,18.87,0,0,0-2.5-.2l-7-.3h-4.6c-1.7,0-3.3,0-4.7.1a154.48,154.48,0,0,0-18.7,1.8A126,126,0,0,0,114.52,6a122.18,122.18,0,0,0-48.8,27.6c-2.3,2.2-4.6,4.4-6.7,6.7-1.9,2-3.6,4.1-5.4,6.1a11.48,11.48,0,0,0-2,.5c-.9.3-1.9.7-2.9,1.1a32.36,32.36,0,0,0-5,2.9,65.67,65.67,0,0,0-8.7,7A89.89,89.89,0,0,0,21,75a54.21,54.21,0,0,0-2.8,5,34.69,34.69,0,0,0-2.1,5.4,35.22,35.22,0,0,0-1.4,11.5,40.72,40.72,0,0,0,2.2,11.3,41.23,41.23,0,0,0,4.9,9.8,24.39,24.39,0,0,0,2,5.3,23.46,23.46,0,0,0,1.7,2.8,11.86,11.86,0,0,0,2.6,2.3,14.26,14.26,0,0,0,3,1.5,7,7,0,0,0,1.8.4,1.21,1.21,0,0,1,.6.1h.1a2.27,2.27,0,0,0,1-.2,1.69,1.69,0,0,0,.5-.2l.2-.1.4-.4a3.62,3.62,0,0,0,.5-.9,1.7,1.7,0,0,0,0-1,1.3,1.3,0,0,0-.2-.6c-.1-.1-.1-.2-.2-.3l-.4-.4a20.09,20.09,0,0,1-2.8-4.1,4.67,4.67,0,0,1-.5-1.9,5,5,0,0,1,.4-2.1,5.42,5.42,0,0,1,2.4-3,10.3,10.3,0,0,1,1.8-.8,1.25,1.25,0,0,1,.6-.1,7.47,7.47,0,0,1,1.1,1,7.75,7.75,0,0,1,.9,1,5.67,5.67,0,0,1,.8.9l.5.5,3.4-1.5-.1-.8a10.15,10.15,0,0,0-1.2-3.2,8.11,8.11,0,0,0-2.7-3,4.15,4.15,0,0,0-1.4-.6,3.78,3.78,0,0,0-1.8-.1c-.7.1-1.3.3-1.9.4a10.88,10.88,0,0,0-3.3,1.9,10.37,10.37,0,0,0-3.4,6.2c-.1.4-.1.8-.2,1.1a.8.8,0,0,1-.1.5v1.8a1.83,1.83,0,0,0,.1.7,25.83,25.83,0,0,1-1.6-4.6l-.1-.4-.3-.5a36.85,36.85,0,0,1-2.2-4.4,38.82,38.82,0,0,1-1.6-4.7,34.54,34.54,0,0,1-1.3-9.7,30.34,30.34,0,0,1,1.5-9.5,24,24,0,0,1,1.8-4.5,33.47,33.47,0,0,1,2.4-4.3,79.93,79.93,0,0,1,12.9-15.9,63.64,63.64,0,0,1,7.8-6.4,31.85,31.85,0,0,1,4.2-2.5,13.21,13.21,0,0,1,4-1.3l1.3-.2,1.4-1.7c1.8-2.1,3.5-4.1,5.3-6,2-2.1,4.1-4.3,6.3-6.3a122.67,122.67,0,0,1,14.1-11.1A118.79,118.79,0,0,1,116.32,12a134.38,134.38,0,0,1,17.5-3.9,143.39,143.39,0,0,1,17.9-1.7c1.3-.1,2.9-.1,4.5-.1h4.5l6.8.3a14.64,14.64,0,0,1,2.1.2c6,.8,12.4,1.9,18,2.9l.4.1h.4a86.83,86.83,0,0,1,17.8.6,56.13,56.13,0,0,1,8.5,1.9l4.3,1.5c.9.3,1.8.7,2.7,1l1.5.6A153.93,153.93,0,0,1,254.82,33a138.69,138.69,0,0,1,26.5,24.6,220.31,220.31,0,0,1,20.6,30.1,352,352,0,0,1,16.6,32.7c4.9,10.9,9.5,22.4,13.7,34.2,4.3,12.1,8,23.9,10.9,35.1,1.7,6.7,3,12.5,4,17.8.6,3.4,1,6.3,1.3,8.9a29.49,29.49,0,0,1,.3,4.4,16.24,16.24,0,0,1-.2,4l-.4,2.5,2.4.9a12.69,12.69,0,0,1,3.9,2.1c.2.1.3.3.4.4-.1.3-.1.6-.2,1-.7,2.5-2.3,5.1-4.8,8.1a89.81,89.81,0,0,1-15.5,13.7,253.3,253.3,0,0,1-36.8,21.4c-1.6.8-3.2,1.5-4.8,2.3l-4.9,2.3c-3.3,1.5-6.5,3-9.7,4.5a108.08,108.08,0,0,1-19.9,6.7,101.76,101.76,0,0,1-41.6.8,146.57,146.57,0,0,1-20.5-5.1c-.5-.2-1-.3-1.4-.5-1.2-.4-2.4-.8-3.5-1.2a30.06,30.06,0,0,1-4.4-2.1c-.6-.4-1.2-.8-1.7-1.1l.1-.1a89.1,89.1,0,0,0,9.9-5c3.2-1.9,6.3-3.9,9.3-6.1a72.21,72.21,0,0,0,15.9-15.8c4.9-6.8,7.8-14.2,8.3-21.4a145.55,145.55,0,0,0-.1-22c-1-13.1-3.9-26.7-8.9-42.8l-.3-1-5.4,1.7.3,1c4.8,15.5,7.5,29.1,8.4,41.6a133.9,133.9,0,0,1-.1,21.1,37.14,37.14,0,0,1-7.2,18.3,69.22,69.22,0,0,1-14.7,14.4,89.36,89.36,0,0,1-18.1,10.4l-.4.2a21.2,21.2,0,0,0-2.1,1l-.7.4c-.1.1-.4.2-.5.3a3.4,3.4,0,0,0-1,1.1,4.67,4.67,0,0,0-.5,1.9,3.76,3.76,0,0,0,.4,1.8c.2.4.4.7.6,1.1a12.62,12.62,0,0,0,2.4,2.6,20.07,20.07,0,0,0,2.6,1.8,33.8,33.8,0,0,0,5.3,2.6c1.3.5,2.6.9,3.9,1.3.5.2.9.3,1.4.5a179.61,179.61,0,0,0,21.3,5.3,120.38,120.38,0,0,0,20.4,1.8,102.15,102.15,0,0,0,23.7-2.7,116.45,116.45,0,0,0,20.9-7.1c3.3-1.4,6.6-3,9.9-4.5l9.8-4.6c6.6-3.2,13.1-6.6,19.3-10.1a203.91,203.91,0,0,0,18.5-11.8,93.34,93.34,0,0,0,16.7-14.8,29.31,29.31,0,0,0,6-10.4,8.92,8.92,0,0,0,.4-1.6l.1-.6V231A3.62,3.62,0,0,0,361,228.7Z"/><path id="Under_nose" data-name="Under nose" class="cls-1" d="M58.42,221.4a18.92,18.92,0,0,0-3.2-4.4,25.8,25.8,0,0,0-4-3.3l-.3-.2-2.6.7.3,2.4.2.2a31.23,31.23,0,0,1,3.2,3.1,14.24,14.24,0,0,1,2.3,3.4,6.7,6.7,0,0,1,.6,3.3,6.45,6.45,0,0,1-1.5,3.2l-.6.8.9.4a10.18,10.18,0,0,0,3,.8,1,1,0,0,0,.9-.4,11.25,11.25,0,0,0,1.8-4.1A9.51,9.51,0,0,0,58.42,221.4Z"/><g id="BO"><rect id="Crochet_1" data-name="Crochet 1" class="cls-2" x="196.43" y="185.57" width="4" height="24.5" transform="translate(-4.47 4.59) rotate(-1.31)"/><rect id="Crochet_2" data-name="Crochet 2" class="cls-2" x="198.18" y="223.83" width="4" height="20.81" transform="translate(-6.93 6.11) rotate(-1.72)"/><path id="BO_pièce_2" data-name="BO pièce 2" class="cls-2" d="M199.32,242.4a17.3,17.3,0,1,0,17.3,17.3h0A17.36,17.36,0,0,0,199.32,242.4Z"/><path id="BO_pièce_1" data-name="BO pièce 1" class="cls-2" d="M198.42,207.6h0a29.79,29.79,0,0,0-29.8,29.7v2h59.5v-2a29.7,29.7,0,0,0-29.7-29.7Z"/></g></g></g></g></svg>