<svg id="Fée" xmlns="http://www.w3.org/2000/svg" viewBox="0 0 517.04 603.32"><defs><style>.cls-1,.cls-2,.cls-4{fill:#7d414d;}.cls-1,.cls-2,.cls-3{stroke:#7d414d;}.cls-1,.cls-2,.cls-3,.cls-5,.cls-6{stroke-miterlimit:10;}.cls-1,.cls-3{stroke-width:4px;}.cls-2,.cls-6{stroke-width:3px;}.cls-3,.cls-5{fill:none;}.cls-5,.cls-6{stroke:#d98d6b;}.cls-5{stroke-width:3.5px;}.cls-6{fill:#d98d6b;}</style></defs><g id="Lower_body" data-name="Lower body"><g id="Body"><path class="cls-1" d="M665.13,406.4" transform="translate(-165.42 -171.2)"/><path class="cls-1" d="M316.52,442.2l-5.71-2.32c-5.71-2.37-10.2-7.15-5.9-13.61a29.66,29.66,0,0,1,9-8.14c3.85-2.62,20.71-11.12,22.71-3.66.2,7-10.05,14.56-15.3,18.21a162.07,162.07,0,0,1-31.47,15.94,131.86,131.86,0,0,1-22.57,6.76c-13.5,2.79-25.27-3.29-25-18.35,0-3,1.13-8.38-2.86-8.86h0a1.21,1.21,0,0,1,1.73-1.21c2.44,1.13,3.08,4.62,2.92,7.18-1.14,8.58,2.51,17.71,11.67,19.57,13.61,3.14,42.07-9.88,54.6-16.64,6.71-3.75,13.38-7.89,18.85-13.29a23.8,23.8,0,0,0,5-6.73c2.67-5.63-6.13-2.94-8.75-2.1-6.9,2.54-15.72,6.29-20,12.34-4.09,6.32,3.59,9.69,9.37,11.47A37.13,37.13,0,0,1,325.32,444c5.84,4.14,11.29,8.91,14.5,15.4,1.74,3.35,2.84,8.92-1.25,9.6a203.45,203.45,0,0,0-21.19,7.51l-1.29.55c-3.14,1.46-6.65,1.78-10,2.12-20.79,1.46-41.66.12-62.41-1a64.25,64.25,0,0,0-16.38,2.41,61.17,61.17,0,0,0-44.65,45.24c-7.41,17.61-12.62,36.7-12.9,55.89-.15,14.12,3.29,29.1,13.61,39.2,10.78,9.54,25.63,12.6,39.33,16.12,52.65,12.46,125.89,17.77,152.15,72.94,1.87,4.2,3.75,9.2,5.58,13.44,2.42,5.46,4.64,11.06,8.11,15.88,2.36,3,4.11,3.58,7,0,2.45-2.9,5.67-8.71,7.83-12,14.85-25.28,37.25-46,64-58,13.12-6.33,27.42-9.94,41.29-14.14,109.13-34.27,161.26-137,169.53-245.19.51-3.49-9.5,2.68-13.8-1a26.64,26.64,0,0,1-2.09-2.31,10.58,10.58,0,0,0,3-1.38c3.76-2.66,10.62-8.95,8.78-19.15-1.25-14.39-4.4-28.58-7.62-42.68-5.58-23.5-12.05-46.83-19.67-69.76-1.84-5.07-3.35-10.45-6-15-.33.1,1.11.3,1.26-.27.1-.2,0-.09,0,0l0,.4c-2.24,27.8-9.08,56-24.77,79.38-28.41,43.38-78.15,55.81-125.72,66-8.11,1.76-19.86,5.27-27.92,7.73-18.36,5.53-37.14,11.38-52.63,23-23.51,17.52-34.94,46-42.27,73.55-17.37,58.86-3.09,114.62,29.07,165.5a347.51,347.51,0,0,0,55.3,66.77c7.05,6.57,14.37,12.88,22.54,18,20.36,13.22,47.49,20.72,63.58-2.84,7.87-11.72-5.38-14.57-14.53-14.63-17.22,0-40.81,5.65-53.36,18-3.22,3.33-5.53,7.89-4.66,12.58l-1.24.21c-1-5.09,1.51-10.1,5-13.67C481,748,496,743.63,510.15,741a83.59,83.59,0,0,1,14.57-1.17c4.92.16,10,.55,14.39,3.13,8.19,4.88,1.47,14.63-3.43,19.32-17.07,17.79-42.85,9.35-60.85-2.37-8.24-5.18-15.67-11.55-22.78-18.16a348.83,348.83,0,0,1-55.64-67c-32.46-51.2-46.9-107.52-29.48-166.84,7.38-27.91,19-56.85,42.89-74.66C429.37,418.58,454,412.78,477,405.69c23.32-6.41,47.42-10.17,70.1-18.5,37.69-13.08,67.35-37.94,81.51-75.88,6.48-16.85,9.8-34.81,11.26-52.76l0-.5a2,2,0,0,1,.28-.88c.3-.89,2.15-.58,2-.28a7.33,7.33,0,0,1,1.48,2.3c4,9,6.68,18.24,9.64,27.55q8.55,27.81,15.28,56.11c3.25,14.19,6.42,28.47,7.68,43a24,24,0,0,1-1.21,10.21c-1.78,5.15-6.12,8.45-7.64,9.47-1.27.82-2.68,2.1-.63,2.87.81.3,4.78-.38,5.41-.56,1.42-.4,5.3-2.11,6.84-2.11s1.46,2.38,1.4,3.34C671.8,521.3,616.66,627,502.32,659.31c-30.21,7.62-59.48,22-80.17,45.79a164.8,164.8,0,0,0-16.95,23.29c-1.95,3-5.54,9.37-8,12.29-5,6.31-9.25,2.76-12.56-3.18-4.82-8.51-8-17.7-11.89-26.61-25.71-54.11-98.84-59.38-150.6-71.66-14-3.58-29.24-6.75-40.4-16.7-10.82-10.52-14.49-26.29-14.32-40.85.3-19.61,5.5-38.73,13.06-56.73a63.39,63.39,0,0,1,46.18-46.61,65.32,65.32,0,0,1,17.13-2.49l5.64.34c15.05.85,30.14,1.5,45.17,1.26,6.43-.26,13.09-.15,19.28-2,.67-.25,1.86-.81,2.55-1.09a188.86,188.86,0,0,1,21.75-7.65c2-.74.18-4.8-.49-6.36-2.72-5.48-7.32-9.75-12.3-13.44a32.57,32.57,0,0,0-6.51-3.73Z" transform="translate(-165.42 -171.2)"/></g></g><g id="Forehead"><path class="cls-2" d="M207.57,365.82c.82-1.47,1.64-2.8,2.26-3.71.95-2.15,1.87-4.3,2.7-6.5,2.5-6.53,4.82-12.47,6-19.35l.08-.51c-5.88-8.3-12.23-16.78-12.77-27.3-.19-10.25.16-20.26.87-30.46.6-6.86,1.18-13.51,3-20.25l2.35.78-.89,2.52.92-2.54c-3.15,12.89-3.39,26.52-3.71,39.78,0,3.38-.22,6.74,0,10,.55,10.22,6.79,18.83,12.5,27a113.09,113.09,0,0,1-8.73,28c-2.12,3.56-4.57,7.62-5.31,11.74A8.8,8.8,0,0,0,213,385l1.89.59-.12,0c2.87.24,14,.77,10.06-4.44-1.74-2.17-5.78-2.35-7.92-1.57-4,1.94-1.66,4,1.17,4.51,10.65,1.94,22.18,2.62,16.21-12.44h.66c2.84,4.46,4.4,11.45-1.5,13.7-2.67,1-5.43.67-7.9.37A51.6,51.6,0,0,1,216,384c-1.11-.36-2.54-1.63-1.63-3.07,1.54-2,4.31-2.49,6.71-2.36a5.54,5.54,0,0,1,4.88,3.67c1.84,5.74-8.11,5.13-11.48,5h-.06l-2.08-.59c-5.17-1.54-9.31-6.5-8.08-12.14h0A31.49,31.49,0,0,1,207.57,365.82Z" transform="translate(-165.42 -171.2)"/></g><g id="Lips"><path class="cls-1" d="M215.16,386.29c3.76,2.36,7.11,5.09,8.2,9.61.34,2.37-.32,3.45-1.43,5.37-.09.23.14.12.14.12,6.33-1,11.11,3.63,16.77,6.31,3.53,1.51,8.2,3.08,11.91,1.33l1.7,1.35c-2,5.52-3.89,11.12-8.55,14.95a15,15,0,0,1-12.41,2.95,7.52,7.52,0,0,1-4.09-1.86c-1.73-1.73-1.8-4.2-1.52-6.41.42-4.2,5-5.42,8.42-6,5.56-1,11.18-1.61,16.34-3.84l.42-.16.57.3c.74.42.14,1.48-.63,1.93-.45.28-.41.38-.91.45-6.11.21-12.09,1.53-18.21,1.79a14.94,14.94,0,0,1-4.88-.39c-4.74-1.68-8.39-8-7-11.33l1.56-.28a6.58,6.58,0,0,0-.25,4.31,9.5,9.5,0,0,0,10.57,7.37c5.85-.28,13.94-1.15,18.25-3.69-.62.46-.36,2-.36,2-2.88.34-4.14.85-6.94,1.23-4.13.68-8.41.88-12.31,2.31a5.11,5.11,0,0,0-3.36,3.18,10.82,10.82,0,0,0-.27,2.95c0,2.9,2.05,4.63,4.83,5,4,.67,8.29-.1,11.33-2.86a20.62,20.62,0,0,0,7.09-13.55l-.06-.09c-4.66.77-7.15,0-11.35-1.83-4.79-2.36-9.45-5.15-14.8-5.88a10.42,10.42,0,0,0-2.79-.05.77.77,0,0,1-.7-.19.79.79,0,0,1-.16-1,14,14,0,0,0,1.37-2.77c1.83-5-3.45-9.54-7.23-12.06l.57-1h0Z" transform="translate(-165.42 -171.2)"/></g><g id="Hair_ear" data-name="Hair + ear"><path id="Ear_lobe" data-name="Ear lobe" class="cls-3" d="M348.17,313.44c4.09-9.35,13.77-20,24.57-10.19,14.41,13.1,14.68,22.38,12.22,30.11a44.57,44.57,0,0,1-2.51,6c-5.68,11.69-17.92,29.75-23.25,25-9-8,0-14.7,7.44-20.77,3.29-2.68,6.24-5.23,7.19-7.71a51.87,51.87,0,0,0,1.77-5.56c5.26-20.88-9.42-27.64-15.55-7.52" transform="translate(-165.42 -171.2)"/><path class="cls-4" d="M372.73,342.84a24.15,24.15,0,0,1-2.32.74,25.24,25.24,0,0,1-3.52.57l.38-1.12A20.28,20.28,0,0,0,372.73,342.84Z" transform="translate(-165.42 -171.2)"/><path id="Ear_hole" data-name="Ear hole" class="cls-3" d="M375.6,330.31a52.6,52.6,0,0,1-1.77,5.56c-.95,2.48-3.9,5-7.19,7.71-4.76-.19-9.77-2.68-8.3-12.84a54.82,54.82,0,0,1,1.71-8c6.13-20.11,20.81-13.34,15.55,7.53h0Z" transform="translate(-165.42 -171.2)"/><g id="Ear_loop" data-name="Ear loop"><path class="cls-2" d="M353.52,323.77c-1.14,1.23-2,3-4,2.82s-3.12-2-3.74-3.57c-1.08-3.51.52-7.09,1.33-10.5l.73-.28c2.82-.64,5.11-1.84,8.13-2.27,5.09-.33,2.17,5.58,1,8.11A39.6,39.6,0,0,1,353.52,323.77Zm3.25-11.41c-2.66.11-4.39-1.26-7.44.8l-1.92,1.23a16.14,16.14,0,0,0-1.78,5.85c-.13,2.82,2.23,7,5.33,5.61,2.75-1.59,4.66-8.35,4.66-8.35S357.09,313.59,356.77,312.36Z" transform="translate(-165.42 -171.2)"/></g><g id="Hair"><path class="cls-1" d="M524.88,403.21c-7.53,20.88-47.3,40.15-66.77,49.83-12.7,5.95-25.53,12.45-39.59,14.34a122.35,122.35,0,0,1-62.46-7.2c-3.12-1.35-14.69-6.44-9.18-10.85a26.19,26.19,0,0,1,3.89-1.53c7.17-2.84,13.63-7.25,19.66-12.13C383.34,425,388,418.23,389.69,401.18c1.7-20.93-2.24-40.16-8.05-60.2,2.71-5.35,5.3-12,3.74-17.9-1.85-7.18-8.19-14-13.54-19-6.25-5.79-12.92-3.91-18,2.34-2,2.4-2.86,4.26-5.3,7.19-2.65,1.8-4,2.41-6.9,1.36,0,0-1-.32-1-.32-7.77-2.94-26.75-10.69-29.53,1.8-.37,1.63-.28,3.36-.73,5-1.69,8.79-11.41,8.79-18.2,6.66a79.59,79.59,0,0,1-18.63-8.49l-.27-.18-.18-.33c-1.8-3.46-5.46-7.18-9.65-5.88-3.31.82-5.3,4.3-8.4,5.79-10.09,4.23-20.3-11.12-24.86-18.38l-2.32-4.47,4,2.8a7.9,7.9,0,0,0,9-.52c4.22-2.91,6.72-8.13,8.44-12.91a16.68,16.68,0,0,0,1-5.09c.26-17.69-23.39-23.14-37.24-24.85l-.75,0s-5.4,29.3-5.41,29.3l-.55,3.55-1.73-3a3.29,3.29,0,0,0-3.11-1.82c-2.57.55-5.19,4.09-5.46,6.74-.29,2.83,1.28,5.76,2.91,8,.08.18.92,1,.62,1.16a1.6,1.6,0,0,1-.76.1c-5.61-.59-9.64-8-10.48-11.07-7.79-12.12-8.5-27.2-1.13-39.68,6.75-11.54,19.43-26.54,32.67-29.48l.34-.12c28.28-35.07,71.72-49.63,115.49-45.28,5.45.5,14.25,1.72,17.94,2.88a79.71,79.71,0,0,1,23.73,1.24c23.26,4.8,45.55,21.67,63.09,37.37,36.19,33.46,71.44,122,77.71,170.87.27,1.95.37,3.94.5,5.91a6,6,0,0,0,.63,2.85c1.42,2.71,6.56,4.28,5.6,8.13Zm-2.37-.76a1.16,1.16,0,0,0-.34-1c-1.6-1.74-3.68-2.82-5-5.14a8.36,8.36,0,0,1-1-3.94c-.15-1.93-.22-3.85-.49-5.77-6.19-48.25-41.15-136.19-76.92-169.31-18.32-16.4-41.88-33.78-66.45-37.58a80.19,80.19,0,0,0-18.64-.39,132.82,132.82,0,0,0-18.21-2.89c-43-4.25-85.85,10.27-113.6,44.69l-.31.36-.45.08c-12.5,2.85-25.34,17.61-31.74,28.52-7,11.78-6.2,26,1.19,37.34.76,4.25,3.43,10.42,7.76,12.07.4.14-4.12-5.9-3.86-9.24.32-3.57,3.15-7.64,6.65-8.63a5.61,5.61,0,0,1,5.58,2.51s.16.82.18.79l3.5-31,.14-1.25c7.62,1.1,12.57,2.81,19.73,5.49,11.75,4.41,25.27,13.38,20.15,27.8-1.81,5.06-4.27,10.45-8.57,13.86-3,2.52-5.95,3.25-9.55,1.32l-.9-.19a43.48,43.48,0,0,0,16.89,15.69c7,3.14,8.51-4.15,14.53-5.73a8.85,8.85,0,0,1,7.68,1.4,13.58,13.58,0,0,1,4.41,5.23l.31.23c7,4.08,23.71,13.32,30.87,7,2.33-2.22,2.09-5.82,2.65-8.81a11.27,11.27,0,0,1,2.41-5c7.36-8,23.57-1.21,30,1.37,2,.75,3.32.64,5.66.08l1.06-.79a24.22,24.22,0,0,1,4.18-6.7c5.87-7.3,14.18-9.37,21.53-2.58,5.72,5.28,11.25,11.36,13.25,19.15,1.68,6.27-.32,12.31-3.15,17.85l.08.48c6.93,24.41,14.62,58.58,2.91,82.28-3.83,6.2-9.15,10.9-14.58,15.54-6.83,5.54-14.4,10.64-22.87,13.42-.71.2-1.28.65-1.23.72s.1.6.63,1.12c2.22,2.23,5.56,3.77,8.51,5.06a120,120,0,0,0,61.09,7c13.88-1.88,26.38-8.28,38.91-14.14,18.94-9.39,58-28.34,65.4-48.27l0-.08Z" transform="translate(-165.42 -171.2)"/></g></g><g id="BO"><line id="Crochet_1" data-name="Crochet 1" class="cls-5" x1="198.2" y1="186.29" x2="198.74" y2="209.81"/><line id="Crochet_2" data-name="Crochet 2" class="cls-5" x1="198.73" y1="225.46" x2="199.26" y2="245.21"/><circle id="BO_pièce_2" data-name="BO pièce 2" class="cls-6" cx="199.35" cy="259.92" r="15.31"/><path id="BO_pièce_1" data-name="BO pièce 1" class="cls-6" d="M363.88,381a27.76,27.76,0,0,0-27.75,27.75h55.51A27.75,27.75,0,0,0,363.89,381h0Z" transform="translate(-165.42 -171.2)"/></g></svg>