<?xml version="1.0" encoding="utf-8"?>
<!-- Generator: Adobe Illustrator 25.2.0, SVG Export Plug-In . SVG Version: 6.00 Build 0)  -->
<svg version="1.1" id="Calque_1" xmlns="http://www.w3.org/2000/svg" xmlns:xlink="http://www.w3.org/1999/xlink" x="0px" y="0px"
	 viewBox="0 0 683.1 749.4" style="enable-background:new 0 0 683.1 749.4;" xml:space="preserve">
<style type="text/css">
	.st0{fill:#D98D6B;stroke:#D98D6B;stroke-width:3;stroke-miterlimit:10;}
	.st1{fill:#D98D6B;stroke:#D98D6B;stroke-width:2;stroke-miterlimit:10;}
	.st2{fill:none;stroke:#D98D6B;stroke-width:3;stroke-miterlimit:10;}
	.st3{fill:#D98D6B;}
	.st4{fill:none;stroke:#7D414D;stroke-width:3;stroke-miterlimit:10;}
	.st5{fill:#7D414D;stroke:#7D414D;stroke-width:2;stroke-miterlimit:10;}
</style>
<g id="Fée">
	<g id="Lower_body">
		<g id="Body">
			<path class="st0" d="M310.8,411.3l-5.8-2.4c-5.8-2.4-10.4-7.3-6-13.9c2.4-3.6,5.7-6.1,9.1-8.3c3.9-2.7,21.1-11.3,23.1-3.7
				c0.2,7.1-10.2,14.8-15.6,18.5c-10,6.7-20.9,11.9-32.1,16.2c-7.5,2.8-15.1,5.4-23,6.9c-13.8,2.8-25.8-3.4-25.5-18.7
				c0.1-3,1.1-8.5-2.9-9v0c-0.1-1,0.9-1.6,1.8-1.2c2.5,1.1,3.1,4.7,3,7.3c-1.2,8.7,2.6,18,11.9,19.9c13.9,3.2,42.9-10.1,55.6-17
				c6.8-3.8,13.6-8,19.2-13.5c2-2,3.9-4.3,5-6.9c2.7-5.7-6.2-3-8.9-2.1c-7,2.6-16,6.4-20.4,12.6c-4.2,6.4,3.7,9.9,9.5,11.7
				c3.9,1.2,7.5,3,10.8,5.4c5.9,4.2,11.5,9.1,14.8,15.7c1.8,3.4,2.9,9.1-1.3,9.8c-7.3,2.2-14.6,4.7-21.6,7.6l-1.3,0.6
				c-3.2,1.5-6.8,1.8-10.2,2.2c-21.2,1.5-42.5,0.1-63.6-1.1c-5.6,0-11.3,1-16.7,2.5c-22.9,6-39.8,23.1-45.5,46.1
				c-7.6,17.9-12.9,37.4-13.1,56.9c-0.1,14.4,3.4,29.7,13.9,39.9c11,9.7,26.1,12.8,40.1,16.4c53.6,12.7,128.3,18.1,155,74.3
				c1.9,4.3,3.8,9.4,5.7,13.7c2.5,5.6,4.7,11.3,8.3,16.2c2.4,3.1,4.2,3.7,7.1,0c2.5-3,5.8-8.9,8-12.3c15.1-25.8,38-46.8,65.2-59.1
				c13.4-6.4,27.9-10.1,42.1-14.4c111.2-34.9,164.3-139.6,172.7-249.8c0.5-3.5-9.7,2.7-14.1-1c-0.7-0.6-2.1-2.4-2.1-2.4
				s1.7-0.4,3.1-1.4c3.8-2.7,10.8-9.1,9-19.5c-1.3-14.7-4.5-29.1-7.8-43.5c-5.7-24-12.3-47.7-20-71.1c-1.9-5.2-3.4-10.6-6.1-15.3
				c-0.3,0.1,1.1,0.3,1.3-0.3c0.1-0.2,0-0.1,0,0l0,0.4c-2.3,28.3-9.2,57-25.2,80.9c-29,44.2-79.6,56.9-128.1,67.2
				c-8.3,1.8-20.2,5.4-28.5,7.9c-18.7,5.6-37.8,11.6-53.6,23.4c-24,17.9-35.6,46.9-43.1,74.9c-17.7,60-3.1,116.8,29.6,168.6
				c15.8,24.9,34.9,47.8,56.3,68c7.2,6.7,14.6,13.1,23,18.4c20.8,13.5,48.4,21.1,64.8-2.9c8-11.9-5.5-14.8-14.8-14.9
				c-17.5,0-41.6,5.8-54.4,18.3c-3.3,3.4-5.6,8-4.7,12.8l-1.3,0.2c-1-5.2,1.5-10.3,5.1-13.9c10.8-10.5,26-14.9,40.5-17.6
				c4.9-0.8,9.9-1.3,14.9-1.2c5,0.2,10.2,0.5,14.7,3.2c8.3,5,1.5,14.9-3.5,19.7c-17.4,18.1-43.6,9.5-62-2.4
				c-8.4-5.3-16-11.8-23.2-18.5c-21.6-20.3-40.8-43.2-56.7-68.3c-33.1-52.2-47.8-109.5-30-170c7.5-28.4,19.4-57.9,43.7-76.1
				c19.9-14.9,45-20.8,68.4-28.1c23.8-6.5,48.3-10.4,71.4-18.9c38.4-13.3,68.6-38.7,83-77.3c6.6-17.2,10-35.5,11.5-53.8l0-0.5
				c0-0.2,0-0.4,0.3-0.9c0.3-0.9,2.2-0.6,2.1-0.3c0.8,0.6,1.1,1.6,1.5,2.3c4,9.2,6.8,18.6,9.8,28.1c5.8,18.9,11,37.9,15.6,57.2
				c3.3,14.5,6.5,29,7.8,43.8c0.2,3.8,0,6.8-1.2,10.4c-1.8,5.2-6.2,8.6-7.8,9.6c-1.3,0.8-2.7,2.1-0.7,2.9c0.8,0.3,4.9-0.4,5.5-0.6
				c1.5-0.4,5.4-2.1,7-2.1s1.5,2.4,1.4,3.4c-8.8,114.3-65,222-181.5,254.9c-30.8,7.8-60.6,22.4-81.7,46.7
				c-6.5,7.3-12.1,15.4-17.3,23.7c-2,3.1-5.6,9.5-8.1,12.5c-5.1,6.4-9.4,2.8-12.8-3.2c-4.9-8.7-8.2-18-12.1-27.1
				c-26.2-55.1-100.7-60.5-153.4-73c-14.3-3.7-29.8-6.9-41.2-17c-11-10.7-14.8-26.8-14.6-41.6c0.3-20,5.6-39.5,13.3-57.8
				c5.8-23.2,23.1-41.3,47.1-47.5c5.7-1.5,11.5-2.6,17.4-2.5l5.8,0.4c15.3,0.9,30.7,1.5,46,1.3c6.5-0.3,13.3-0.1,19.6-2
				c0.7-0.2,1.9-0.8,2.6-1.1c7.2-3,14.6-5.7,22.2-7.8c2-0.8,0.2-4.9-0.5-6.5c-2.8-5.6-7.5-9.9-12.5-13.7c-2-1.5-4.3-2.8-6.6-3.8
				L310.8,411.3L310.8,411.3z"/>
		</g>
	</g>
	<g id="Forehead">
		<path class="st1" d="M199.8,333.5c0.8-1.5,1.7-2.9,2.3-3.8c1-2.2,1.9-4.4,2.8-6.6c2.5-6.6,4.7-13.6,5.8-20.6l0.2,0.9
			c-6-8.5-12.4-17.6-12.9-28.4c-0.2-10.4,0.2-20.6,0.9-31c0.6-7,1.2-13.8,3.1-20.6l2.4,0.8l-0.9,2.6l0.9-2.6
			c-3.2,13.1-3.4,27-3.8,40.5c0,3.5-0.2,6.9,0,10.2c0.6,10.4,6.9,19.2,12.7,27.5c-1.6,9.9-4.8,19.4-8.9,28.5
			c-2.2,3.6-4.7,7.8-5.4,12c-0.9,4.8,2,8.8,6.4,10.2l1.9,0.6l-0.1,0c2.9,0.2,14.2,0.8,10.2-4.5c-1.8-2.2-5.9-2.4-8.1-1.6
			c-4.1,2-1.7,4,1.2,4.6c10.9,2,22.6,2.7,16.5-12.7h0.7c2.9,4.5,4.5,11.7-1.5,14c-2.7,1-5.5,0.7-8,0.4c-3.2-0.4-6.5-0.7-9.7-1.7
			c-1.1-0.4-2.6-1.7-1.7-3.1c1.6-2.1,4.4-2.5,6.8-2.4c2.1,0.1,4.3,1.6,5,3.7c1.9,5.8-8.3,5.2-11.7,5.1h-0.1l-2.1-0.6
			c-5.3-1.6-9.5-6.6-8.2-12.4l0,0C197.1,339.3,198.2,336.3,199.8,333.5L199.8,333.5z"/>
	</g>
	<g id="Lips">
		<path class="st0" d="M207.5,354.4c3.8,2.4,7.2,5.2,8.4,9.8c0.4,2.4-0.3,3.5-1.5,5.5c-0.1,0.2,0.1,0.1,0.1,0.1
			c6.4-1,11.3,3.7,17.1,6.4c3.6,1.5,8.4,3.1,12.1,1.4l1.7,1.4c-2,5.6-4,11.3-8.7,15.2c-3.5,3-8.3,3.8-12.6,3c-1.4-0.3-3-0.7-4.2-1.9
			c-1.8-1.8-1.8-4.3-1.6-6.5c0.4-4.3,5.1-5.5,8.6-6.1c5.7-1,11.4-1.6,16.6-3.9c0,0,0.4-0.2,0.4-0.2l0.6,0.3c0.8,0.4,0.1,1.5-0.6,2
			c-0.4,0.3-0.4,0.4-0.9,0.5c-6.2,0.2-12.3,1.6-18.6,1.8c-1.6,0-3.3,0.1-5-0.4c-4.8-1.7-8.6-8.1-7.1-11.5l1.6-0.3
			c-0.6,1.3-0.6,2.9-0.2,4.4c1.2,5,5.6,8.1,10.8,7.5c6-0.3,14.2-1.2,18.6-3.8c-0.6,0.5,0.2,2,0.2,2c-2.9,0.3-4.8,0.9-7.6,1.3
			c-4.2,0.7-8.6,0.9-12.5,2.4c-1.6,0.6-2.9,1.6-3.4,3.2c-0.2,0.9-0.3,2-0.3,3c0,3,2.1,4.7,4.9,5.1c4,0.7,8.4-0.1,11.5-2.9
			c4-3.6,6.8-8.4,7.2-13.8l-0.1-0.1c-4.8,0.8-7.3,0-11.6-1.9c-4.9-2.4-9.6-5.2-15.1-6c-0.9-0.1-1.9-0.2-2.9,0
			c-0.2,0.1-0.6,0-0.7-0.2c-0.3-0.2-0.3-0.7-0.2-1c0.6-1,1-1.8,1.4-2.8c1.9-5.1-3.5-9.7-7.4-12.3l0.6-1h0L207.5,354.4L207.5,354.4z"
			/>
	</g>
	<g id="Hair_ear">
		<path id="Ear_lobe" class="st2" d="M343,280.1c4.2-9.5,14-20.4,25-10.4c14.7,13.3,15,22.8,12.5,30.7c-0.5,1.6-1.4,3.7-2.6,6.1
			c-5.8,11.9-18.3,30.3-23.7,25.5c-9.2-8.2,0-15,7.6-21.2c3.4-2.7,6.4-5.3,7.3-7.9c0.8-2,1.4-3.9,1.8-5.7
			c5.4-21.3-9.6-28.2-15.8-7.7"/>
		<path class="st3" d="M368,310.1c-0.8,0.3-1.5,0.5-2.4,0.8c-1.1,0.3-2.5,0.5-3.6,0.6l0.4-1.1C364.2,310.5,366.1,310.4,368,310.1
			L368,310.1z"/>
		<path id="Ear_hole" class="st2" d="M371,297.3c-0.5,1.8-1,3.7-1.8,5.7c-1,2.5-4,5.1-7.3,7.9c-4.9-0.2-10-2.7-8.5-13.1
			c0.4-3.1,1-5.8,1.8-8.1C361.4,269.2,376.3,276.1,371,297.3L371,297.3L371,297.3z"/>
		<g id="Ear_loop">
			<path class="st1" d="M348.5,290.7c-1.2,1.3-2.1,3-4,2.9c-1.9-0.2-3.2-2-3.8-3.6c-1.1-3.6,0.5-7.2,1.4-10.7l0.7-0.3
				c2.9-0.6,5.2-1.9,8.3-2.3c5.2-0.3,2.2,5.7,1,8.3C352,284.9,350,288.9,348.5,290.7L348.5,290.7z M351.6,279.1
				c-2.7,0.1-4.3-1.3-7.4,0.8l-2,1.2c-1,1.9-1.6,4-1.8,6c-0.1,2.9,2.3,7.1,5.4,5.7c2.8-1.6,4.7-8.5,4.7-8.5s1.5-4,1.2-5.2
				L351.6,279.1z"/>
		</g>
		<g id="Hair">
			<path class="st0" d="M523,371.6c-7.7,21.3-48.2,40.9-68,50.8c-12.9,6.1-26,12.7-40.3,14.6c-21.4,3.1-43.6,0.6-63.6-7.3
				c-3.2-1.4-15-6.6-9.4-11c0.9-0.6,3-1.2,4-1.6c7.3-2.9,13.9-7.4,20-12.4c13.2-10.9,17.9-17.8,19.6-35.1
				c1.7-21.3-2.3-40.9-8.2-61.3c2.8-5.5,5.4-12.2,3.8-18.2c-1.9-7.3-8.4-14.3-13.8-19.3c-6.4-5.9-13.2-4-18.3,2.4
				c-2,2.4-2.9,4.3-5.4,7.3c-2.7,1.8-4.1,2.5-7,1.4c0,0-1-0.3-1-0.3c-7.9-3-27.3-10.9-30.1,1.8c-0.4,1.7-0.3,3.4-0.7,5.1
				c-1.7,9-11.6,9-18.5,6.8c-6.8-2-13-5-19-8.6l-0.3-0.2l-0.2-0.3c-1.8-3.5-5.6-7.3-9.8-6c-3.4,0.8-5.4,4.4-8.6,5.9
				c-10.3,4.3-20.7-11.3-25.3-18.7c0,0-2.4-4.5-2.4-4.6l4.1,2.9c2.7,1.8,6.5,1.5,9.1-0.5c4.3-3,6.9-8.3,8.6-13.2
				c0.6-1.6,0.9-3.5,1-5.2c0.3-18-23.8-23.6-37.9-25.3c-0.1,0-0.8,0-0.8,0s-5.5,29.9-5.5,29.9l-0.6,3.6l-1.8-3.1
				c-0.6-1-1.9-2.1-3.2-1.9c-2.6,0.6-5.3,4.2-5.6,6.9c-0.3,2.9,1.3,5.9,3,8.1c0.1,0.2,0.9,1,0.6,1.2c-0.2,0.1-0.8,0.1-0.8,0.1
				c-5.7-0.6-9.8-8.1-10.7-11.3c-7.9-12.4-8.7-27.7-1.1-40.4c6.9-11.8,19.8-27.1,33.3-30l0.3-0.1c28.8-35.7,73.1-50.6,117.7-46.1
				c5.5,0.5,14.5,1.8,18.3,2.9c8.1-0.7,16.2-0.4,24.2,1.3c23.7,4.9,46.4,22.1,64.3,38.1c36.9,34.1,72.8,124.3,79.2,174.1
				c0.3,2,0.4,4,0.5,6c0.1,1.1,0.1,2,0.6,2.9C518.8,366.1,524,367.7,523,371.6L523,371.6L523,371.6z M520.6,370.8
				c0.1-0.4-0.1-0.8-0.3-1c-1.6-1.8-3.8-2.9-5.1-5.2c-0.7-1.2-1-2.7-1-4c-0.2-2-0.2-3.9-0.5-5.9c-6.3-49.2-41.9-138.8-78.4-172.5
				c-18.7-16.7-42.7-34.4-67.7-38.3c-6.3-0.9-12.7-0.9-19-0.4c-6-1.4-12.3-2.4-18.6-2.9c-43.8-4.3-87.5,10.5-115.8,45.5l-0.3,0.4
				l-0.4,0.1c-12.7,2.9-25.8,17.9-32.3,29.1c-7.1,12-6.3,26.4,1.2,38c0.8,4.3,3.5,10.6,7.9,12.3c0.4,0.1-4.2-6-3.9-9.4
				c0.3-3.6,3.2-7.8,6.8-8.8c2.3-0.5,4.4,0.8,5.7,2.6c0,0,0.2,0.8,0.2,0.8l3.6-31.6l0.1-1.3c7.8,1.1,12.8,2.9,20.1,5.6
				c12,4.5,25.7,13.6,20.5,28.3c-1.9,5.2-4.4,10.7-8.7,14.1c-3.1,2.6-6.1,3.3-9.7,1.3l-0.9-0.2c4.2,6.7,10,12.3,17.2,16
				c7.1,3.2,8.7-4.2,14.8-5.8c2.6-0.8,5.6-0.1,7.8,1.4c2.2,1.6,3.3,3,4.5,5.3l0.3,0.2c7.2,4.1,24.2,13.6,31.5,7.2
				c2.4-2.3,2.1-5.9,2.7-9c0.4-1.8,1.1-3.7,2.5-5.1c7.5-8.1,24-1.2,30.5,1.4c2.1,0.8,3.4,0.6,5.8,0.1l1.1-0.8c1.3-3,2.2-4.3,4.3-6.8
				c6-7.4,14.5-9.5,21.9-2.6c5.8,5.4,11.5,11.6,13.5,19.5c1.7,6.4-0.3,12.5-3.2,18.2l0.1,0.5c7.1,24.9,14.9,59.7,3,83.8
				c-3.9,6.3-9.3,11.1-14.9,15.8c-7,5.6-14.7,10.8-23.3,13.7c-0.7,0.2-1.3,0.6-1.2,0.7c-0.1,0,0.1,0.6,0.6,1.1
				c2.2,2.3,5.7,3.8,8.7,5.1c19.5,7.8,41.5,10.2,62.2,7.2c14.1-1.9,26.9-8.4,39.6-14.4C473.3,410.5,513.1,391.2,520.6,370.8
				L520.6,370.8L520.6,370.8z"/>
		</g>
	</g>
	<g id="BO">
		<line id="Crochet_1" class="st4" x1="358.7" y1="325" x2="359.3" y2="349"/>
		<line id="Crochet_2" class="st4" x1="359.3" y1="364.9" x2="359.8" y2="385.1"/>
		<circle id="BO_pièce_2" class="st5" cx="359.9" cy="399" r="15.6"/>
		<path id="BO_pièce_1" class="st5" d="M359,349c-15.6,0-28.3,12.7-28.3,28.3h56.5C387.3,361.6,374.6,349,359,349L359,349z"/>
	</g>
</g>
<g id="Calque_4">
	<g>
		<path class="st3" d="M66.2,463.7l10,23.9l-43.7,18.3l-2.9-6.9l42.2-17.6l-7.1-17L66.2,463.7z"/>
		<path class="st3" d="M47.8,437.8l10.4,0.8l0.5,2.3l-41.4-3.1L8.2,437l-0.6-2.5l44-25.2l1.8,7.9l-9.1,5.2L47.8,437.8L47.8,437.8z
			 M20.6,435.8l25.2,1.9l-3.2-14.3C42.6,423.4,20.6,435.8,20.6,435.8z"/>
		<path class="st3" d="M23.3,339.8l0.8-14.3l1.6,0.1l-0.8,14.3l22.9,1.3l-0.4,7.5L0,346l1.3-23.1l1.6,0.1L2,338.6L23.3,339.8
			L23.3,339.8z"/>
		<path class="st3" d="M30.1,286.2l3.8-16.9l1.6,0.4l-3.8,16.9l20.8,4.6l4-18.1l1.6,0.4L52.4,299L6.1,288.7l5.7-25.5l1.6,0.4
			l-4,18.1L30.1,286.2L30.1,286.2z"/>
		<path class="st3" d="M46.5,231.7l6.6-16l1.5,0.6l-6.6,16l19.7,8.1l7-17.1l1.5,0.6L66.3,248l-43.8-18l9.9-24.1l1.5,0.6l-7,17.1
			L46.5,231.7L46.5,231.7z"/>
		<path class="st3" d="M99.6,127.9c8,6.3,7.1,15.6-1.7,26.7l13.9,11.1l-4.7,5.9L70.1,142l4.7-5.9C83.2,125.5,89.5,119.9,99.6,127.9
			L99.6,127.9z M94.5,134.4c-7.4-5.9-12.3-5.2-18.7,2.6l21.1,16.8C99,150.6,103.6,141.6,94.5,134.4L94.5,134.4z"/>
		<path class="st3" d="M133.3,106l12.9-11.5l1.1,1.2l-12.9,11.5l14.2,15.9l13.8-12.3l1.1,1.2L144,129.3L112.4,94l19.4-17.4l1.1,1.2
			l-13.8,12.3C119.1,90.1,133.3,106,133.3,106z"/>
		<path class="st3" d="M211.7,79.3l-7,4.3l-19.4-9c-1.3,1-2.4,1.7-3.3,2.2l9.3,15.1l-6.4,3.9L160,55.5l6.4-3.9
			c11.6-7.1,19.4-10.3,26.2,0.7c3.7,6,3.1,11.8-1.6,17.4L211.7,79.3L211.7,79.3z M185.5,56.7c-5-8-9.8-9-18.5-3.9l14.2,23
			C184.3,73.5,191.6,66.6,185.5,56.7z"/>
		<path class="st3" d="M258.7,59l-24.2,9.5l-17.3-44.1l7-2.7L241,64.3l17.2-6.7L258.7,59L258.7,59z"/>
		<path class="st3" d="M287,26.1l16.9-3.5l0.3,1.6l-16.9,3.5l4.3,20.9l18.1-3.7l0.3,1.6l-25.6,5.2L275,5.2L300.6,0l0.3,1.6
			l-18.1,3.7L287,26.1L287,26.1z"/>
		<path class="st3" d="M365.4,29.8c0.1-3,2.6-5.2,5.5-5.1s5.2,2.5,5.1,5.4c-0.1,3-2.5,5.2-5.5,5.1C367.6,35.1,365.3,32.8,365.4,29.8
			z"/>
		<path class="st3" d="M460.5,44.8c-2.2,7.9-8.8,12.5-17.6,10c-3.7-1.1-6.9-3-9.4-6.8l9.3-33.9l6,1.6L444.6,31
			c2.3-1.4,5.8-2.3,9.1-1.4C459.5,31.3,462.6,37.1,460.5,44.8L460.5,44.8z M453.8,44.5c1.9-7,0.9-12.5-4-13.9
			c-1.8-0.5-3.9,0.2-5.4,1.2l-5,18.4c0.5,2,2,3.5,4.2,4C447.9,55.5,451.9,51.4,453.8,44.5L453.8,44.5z"/>
		<path class="st3" d="M489.5,42.8l5.8,2.4l-10,23.8l-5.8-2.4C479.5,66.6,489.5,42.8,489.5,42.8z M491.9,35.2
			c0.8-1.8,2.9-2.6,4.9-1.7c2,0.8,3,2.9,2.2,4.7c-0.8,1.9-2.9,2.6-4.9,1.7C492.1,39.1,491.1,37.1,491.9,35.2L491.9,35.2z"/>
		<path class="st3" d="M499.2,87c1.9,0.8,5,0.8,6.3,0.4c1-1.9,2.2-4,3.3-5.9l13-23.7l5.5,3l-11,20c-3.3,6-9.6,9.1-17.2,6.7
			C498.9,87.6,499.2,87,499.2,87z M524.9,50.5c1-1.7,3.2-2.2,5.1-1.2c1.9,1.1,2.7,3.2,1.8,5c-1,1.8-3.2,2.3-5.2,1.2
			C524.7,54.4,523.9,52.3,524.9,50.5L524.9,50.5z"/>
		<path class="st3" d="M543.2,85.6c5.6-7.7,14.8-5.9,19-2.9c6.4,4.7,7.6,12.7,3,18.9c-5.7,7.7-14.8,6-19,2.9
			C539.7,99.9,538.5,92,543.2,85.6L543.2,85.6z M558.6,99.6c2.2-3,7.7-12.9,2.8-16.5c-1.8-1.3-6.8-2.2-11.7,4.5
			c-2.2,3.1-7.9,13-3,16.7C548.6,105.6,553.6,106.4,558.6,99.6z"/>
		<path class="st3" d="M610.2,126.4l-18.4,18.2l-0.7-0.7l0.7-6.4c-4.7,0.8-8.8-0.9-11.7-3.9c-3.2-3.3-3.4-7.6,0-10.9l13.4-13.2
			l4.4,4.4L584.6,127c-2.4,2.3-2.6,5-0.3,7.3c1.8,1.9,4,2.7,6.3,2.7l15.2-15L610.2,126.4L610.2,126.4z"/>
		<path class="st3" d="M621.7,163.1l6-16l4.2,5.8l-3.9,10.1l-0.5,1.2h2.4l10.4,0.3l0.5,0.7l-13.6-0.4l-6.4,16.8l-4.1-5.6l4-10.6
			l0.7-1.7l-13.6,0l-0.5-0.6L621.7,163.1L621.7,163.1z"/>
	</g>
</g>
</svg>
