<?xml version="1.0" encoding="utf-8"?>
<!-- Generator: Adobe Illustrator 25.2.0, SVG Export Plug-In . SVG Version: 6.00 Build 0)  -->
<svg version="1.1" id="Calque_1" xmlns="http://www.w3.org/2000/svg" xmlns:xlink="http://www.w3.org/1999/xlink" x="0px" y="0px"
	 viewBox="0 0 678.8 744.1" style="enable-background:new 0 0 678.8 744.1;" xml:space="preserve">
<style type="text/css">
	.st0{fill:#7D414D;}
	.st1{fill:#D98D6B;}
</style>
<g id="Fée">
	<path id="Body" class="st0" d="M678.7,376.4c-0.2-0.9-0.7-1.6-1.5-2.1c-0.4-0.2-0.9-0.4-1.4-0.4c-0.4-0.1-0.9-0.1-1.3,0
		c-0.3,0-0.6,0.1-0.9,0.2c-0.9,0.2-1.7,0.5-2.4,0.7l-0.2,0.1c-0.5,0.2-1,0.3-1.5,0.5c-1,0.3-2,0.7-2.9,0.9c-0.6,0.2-1.2,0.3-1.8,0.3
		c1.1-0.5,2.1-1.2,3.1-1.9c2.4-2,4.3-4.6,5.4-7.6c1-2.9,1.5-5.9,1.4-8.9c0-2.8-0.2-5.5-0.6-8.3c-1.4-10.8-3.4-21.4-6-32l-1.4-5.7
		c-0.1-0.7-0.3-1.4-0.4-2.1c-0.5-2.5-1.1-5-1.8-7.9c-1.4-5.6-2.8-11.1-4-15.7c-3.1-11.3-6-21.5-8.9-31.1c-1.8-6-3.4-10.9-5-15.4
		c-1-2.9-1.9-5.3-2.9-7.7c-0.2-0.5-0.4-0.9-0.6-1.4l-0.3-0.6c-0.3-0.6-0.7-1.3-1-2l-0.1-0.2c-0.3-0.6-0.7-1.2-1.1-1.8
		c-0.2-0.3-0.4-0.5-0.6-0.7c-0.2-0.2-0.4-0.4-0.7-0.5l-0.2-0.1c-0.6-0.4-1.2-0.5-1.9-0.4c-0.9,0.1-1.7,0.5-2.2,1.2
		c-0.2,0.3-0.4,0.6-0.5,0.9c-0.1,0.3-0.2,0.7-0.3,1c-0.2,0.7-0.2,1.5-0.2,2.2l-0.2,4.1l-0.1,2c-0.2,2.4-0.5,4.9-0.9,7.8
		c-0.7,5-1.7,10.2-2.9,15.6s-2.7,10.5-4.3,15.2c-3.6,9.9-8.2,19.4-13.6,28.4c-2.7,4.4-5.8,8.7-9.1,12.7c-6.7,8.1-14.5,15.1-23.2,21
		c-8.7,5.9-18,10.9-27.8,14.8l-1.2,0.5c-2,0.8-4.1,1.7-6.3,2.4s-4.6,1.7-7.5,2.6c-4.5,1.4-9.4,2.8-15.4,4.4
		c-4.9,1.3-9.9,2.6-15.6,3.9c-2.4,0.6-4.8,1.1-7.3,1.7c-2.8,0.6-5.6,1.3-8.4,2c-9.6,2.3-19.8,5.1-31.2,8.6l-2.5,0.8
		c-9.4,2.8-19,5.7-28.3,9.8c-5.1,2.2-9.9,4.8-14.6,7.7c-2.2,1.4-4.5,2.9-6.9,4.5c-2.4,1.7-4.5,3.2-6.6,5c-8.4,7.3-15.3,16-20.6,25.8
		c-5.2,9.6-9.6,19.6-12.9,30c-1.6,4.9-3.2,9.9-4.8,15.5c-0.6,2.4-1.3,4.9-2.1,7.9l-0.9,3.9c-0.3,1.4-0.6,2.8-0.9,4
		c-4.5,21.4-5,43.4-1.6,65c3.1,20.1,10,40.9,20.4,61.7c2.3,4.6,4.8,9.5,7.6,14.4c2.5,4.5,5.3,9.3,8.2,14
		c5.9,9.1,12.2,17.9,18.9,26.4l1.1,1.4c-1.1,1.4-2.2,2.7-3.3,4.1c-2,2.7-4,5.4-5.8,8.2c-1.4,2.1-2.6,4.2-3.9,6.2
		c-0.4,0.7-0.9,1.5-1.3,2.2c-1.9,3.1-3.5,5.7-5.2,8.2c-0.9,1.4-1.8,2.7-2.6,3.7l-0.6,0.7c-0.2,0.2-0.4,0.4-0.6,0.5
		c-0.4,0.3-0.5,0.3-0.6,0.3c-0.7-0.3-1.4-0.8-1.8-1.5c-1-1.1-1.8-2.3-2.5-3.6c-1.6-2.9-3.1-5.9-4.2-8.5c-1.6-3.4-3.1-7-4.5-10.4
		c-1.1-2.5-2.1-5.1-3.2-7.6c-2.8-6.2-6.4-12.1-10.7-17.3c-7.8-9.5-18.4-17.9-31.6-24.8c-10.6-5.5-22.4-10-37.1-14.3
		c-13.2-3.8-26.8-6.7-38.4-9.1l-7.2-1.5c-10.2-2.1-20.8-4.3-31-7l-2.1-0.5c-5.6-1.3-11.1-2.9-16.5-4.8c-6.8-2.5-12-5.4-16.1-9
		c-4.5-4.1-8-9.2-10-14.9c-2.1-5.9-3.3-12.1-3.6-18.3c-0.2-3.2-0.1-6.3,0.1-9.5c0.2-3,0.5-6.1,1-9.6c0.9-6.4,2.1-12.7,3.7-18.9
		c0.8-3.2,1.7-6.3,2.7-9.2c1-3.1,2.1-6.1,3.3-8.9l0.2-0.4c0.3-0.6,0.5-1.2,0.8-1.8l1.1-2.3c0.5-1.2,0.9-2.5,1.2-3.8
		c0.1-0.4,0.2-0.9,0.4-1.3c0.8-3,1.9-5.8,3.3-8.6c1.5-2.7,3.2-5.4,5.1-7.8c1.9-2.5,4-4.9,6.2-7.1c2.2-2.2,4.6-4.2,7.1-6
		c2.5-1.8,5.2-3.4,8-4.8c0.9-0.5,1.8-0.9,2.8-1.3c0.5-0.2,1-0.4,1.4-0.6l3.3-1.2l3.4-1.1l2.3-0.6c1.6-0.4,3.1-0.8,4.6-1.1
		c3-0.6,6.1-0.9,9.2-0.9c0.7,0,1.3,0,2,0.1l7.6,0.5c10.8,0.6,25,1.2,39.4,1.1c3.8,0,7-0.1,9.9-0.3c3.4-0.2,6.8-0.6,10.2-1.2
		c0.9-0.2,1.8-0.4,2.6-0.7c0.8-0.2,1.7-0.6,2.6-0.9l4.5-1.9c2.5-1,5.7-2.3,9-3.4c2.9-1,5.9-1.9,9.2-2.7l0.4-0.1c0.1,0,0.1,0,0.4-0.1
		c0.7-0.2,1.3-0.6,1.8-1.2c0.6-0.7,1-1.6,1-2.6c0.1-1.1,0-2.3-0.3-3.4c-0.4-1.8-1.1-3.6-2-5.2c-0.8-1.6-1.8-3.1-2.9-4.5
		c-0.7-0.9-1.2-1.5-1.7-2.1c-0.2-0.2-0.4-0.4-0.5-0.6c-0.4-0.4-0.8-0.9-1.2-1.3c-2.5-2.5-5.2-4.7-8.2-6.6c-2.9-1.8-6-3.3-9.2-4.5
		l-0.7-0.3c1.3-0.8,2.7-1.7,4.2-2.7c1.6-1.1,3-2.2,4-3c2.7-2,5.3-4.2,7.8-6.6c1.3-1.3,2.5-2.6,3.6-4c0.6-0.8,1.1-1.7,1.5-2.6
		c0.6-1.1,0.9-2.3,0.9-3.5c0-1.6-0.6-3.2-1.8-4.3c-1.1-0.9-2.4-1.5-3.8-1.7c-2-0.2-4,0-5.9,0.5c-3.3,0.9-6.6,2.1-9.7,3.7
		c-3.1,1.6-6,3.4-8.7,5.5c-1.4,1.1-2.7,2.2-3.9,3.5c-1.4,1.4-2.5,3-3.2,4.8c-0.9,2.1-0.9,4.4-0.1,6.5c0.6,1.5,1.6,2.8,2.8,3.8
		c-2.4,1.2-5.1,2.4-8.1,3.7c-2.6,1.2-5.2,2.2-7.9,3.3l-1.1,0.4c-2.8,1.1-5.8,2.2-9,3.3c-3.1,1-6.2,1.9-9.2,2.6
		c-2.9,0.9-5.9,1.3-8.9,1.2c-1.5,0-2.9-0.2-4.3-0.6c-1.3-0.3-2.6-0.7-3.8-1.4c-1.1-0.6-2.2-1.5-3-2.5c-0.8-1.1-1.5-2.2-2-3.5
		c-1-2.7-1.5-5.6-1.4-8.5c0-0.4,0.1-0.9,0.1-1.4c0-0.3,0.1-0.6,0.1-1c0.1-1.1,0-2.1-0.2-3.2c-0.1-0.5-0.2-1-0.4-1.5
		c-0.1-0.6-0.4-1.2-0.7-1.7c-0.6-1-1.4-1.9-2.4-2.6l-0.8-0.6l-3.4,4.4l0.8,0.6c0.4,0.3,0.7,0.6,1,1c0.2,0.4,0.4,0.9,0.4,1.4
		c0.1,0.6,0.1,1.1,0.1,1.7c0,0.3,0,0.5-0.1,0.8c-0.1,0.6-0.1,1.1-0.1,1.7c-0.1,1.8,0,3.7,0.3,5.5c0.3,1.8,0.7,3.6,1.4,5.3
		c0.7,1.8,1.7,3.5,2.9,5c1.2,1.5,2.8,2.8,4.5,3.8c1.6,1,3.4,1.6,5.3,2c1.8,0.4,3.6,0.7,5.4,0.8c3.6,0.1,7.1-0.4,10.5-1.4
		c3.2-0.8,6.4-1.7,9.6-2.7c3.4-1.1,6.5-2.2,9.4-3.4l1.2-0.5c2.6-1.1,5.3-2.2,7.9-3.3c3.4-1.5,7.5-3.4,11.8-5.6
		c1.3,0.6,2.7,1.2,4,1.7c3.2,1.2,6.2,2.7,9.1,4.5c2.6,1.6,5,3.5,7.1,5.7c1.2,1.3,2.2,2.4,3,3.4c0.9,1.2,1.7,2.5,2.4,3.8
		c0.6,1.2,1.1,2.5,1.5,3.9c0.1,0.3,0.1,0.5,0.1,0.8c-3.2,0.8-6.2,1.7-9,2.6c-3.4,1.2-6.8,2.5-9.3,3.5l-4.6,1.9
		c-0.8,0.3-1.3,0.5-2,0.7c-0.7,0.2-1.4,0.4-2.1,0.5c-3.1,0.6-6.2,1-9.3,1.1c-2.9,0.1-5.9,0.2-9.7,0.3c-14.2,0.1-28.4-0.6-39.1-1.2
		l-7.5-0.5c-0.8,0-1.6-0.1-2.4-0.1c-3.5,0-6.9,0.3-10.3,1c-1.6,0.3-3.2,0.7-5,1.2l-2.4,0.7l-3.7,1.1l-3.6,1.3
		c-0.5,0.2-1,0.4-1.4,0.6c-1.1,0.4-2.2,0.9-3.2,1.5c-3.1,1.5-6,3.3-8.8,5.3c-2.8,2-5.5,4.2-7.9,6.6c-4.8,4.8-9,10.3-12.3,16.3
		c-1.6,3.1-2.8,6.3-3.7,9.7l-0.3,1.2c-0.2,1.1-0.6,2.1-1,3.1l-1,2.1c-0.3,0.7-0.6,1.3-0.9,2l-0.2,0.4c-1.3,3.1-2.5,6.2-3.5,9.4
		c-1,3-1.9,6.3-2.8,9.6c-1.6,6.5-2.9,13-3.8,19.6c-0.5,3.6-0.8,6.9-1,9.9c-0.8,10.3,0.5,20.6,3.8,30.3c2.3,6.7,6.4,12.6,11.7,17.3
		c5.3,4.4,11.4,7.8,18,10c5.6,2,11.2,3.6,17,4.9l2.2,0.5c10.4,2.8,21,5,31.3,7.1l7.2,1.5c11.5,2.4,24.9,5.3,38,9
		c14.2,4.1,25.9,8.6,36,13.8c12.5,6.5,22.5,14.4,29.8,23.3c4,4.8,7.4,10.2,9.9,16c1.1,2.4,2.1,4.9,3.2,7.4c1.5,3.5,3,7.1,4.6,10.6
		c1.3,2.9,2.8,6,4.5,9c0.9,1.6,2,3.1,3.1,4.5c0.7,0.8,1.4,1.5,2.3,2.1c1.1,0.8,2.5,1.3,3.9,1.3l0,0c1.4-0.1,2.8-0.5,4-1.4
		c0.4-0.3,0.9-0.7,1.2-1.1l1-1.1c1-1.3,1.9-2.6,2.8-4l0.2-0.3c1.9-2.9,3.7-5.8,5.2-8.4c0.5-0.7,0.9-1.4,1.3-2.2
		c1.2-2,2.5-4.1,3.8-6.1c1.7-2.7,3.6-5.3,5.5-7.8l2.4-3c5.1,6.2,10.6,12.4,16.4,18.5c7.4,7.9,15.2,15.4,23.4,22.5
		c3,2.5,5.8,4.7,8.4,6.7c-1.7,2.1-3.1,4.4-4,6.9c-1,3-1.2,6.3-0.5,9.4l0.2,1l5.3-1.1l-0.2-1c-0.4-2.2-0.3-4.4,0.4-6.5
		c0.8-2,1.9-3.9,3.3-5.5l0,0c2.3,1.5,4.6,3,7.1,4.4c2.3,1.3,4.7,2.5,7.4,3.7c5.1,2.4,10.5,4.1,16.1,5.1c2.8,0.5,5.7,0.7,8.6,0.6
		c2.9-0.1,5.8-0.5,8.6-1.2c5.7-1.5,10.9-4.3,15.3-8.2c2.2-2,4.1-4.2,5.7-6.7c1.8-2.6,2.8-5.6,3.1-8.7c0.2-1.8-0.2-3.6-1-5.2
		c-0.9-1.6-2.3-2.9-3.9-3.8c-2.7-1.4-5.5-2.2-8.5-2.6c-5.5-0.8-11.1-0.9-16.7-0.2c-5.5,0.6-10.9,1.6-16.2,3.1
		c-5.4,1.4-10.6,3.4-15.6,5.8c-3.7,1.8-7.1,3.9-10.3,6.5c-2.8-2-5.8-4.2-9.1-6.9c-13.3-10.9-26.5-24.2-40-40.7
		c2.2-2.4,4.5-4.8,6.9-7.1c9.4-8.8,19.8-16.3,31.2-22.3c11.4-6,23.5-10.7,35.9-14.2l2.2-0.6l7.3-2.1l4.7-1.5l4.7-1.6
		c6.2-2.1,12.5-4.6,18.5-7.2c24.4-10.7,46.5-25.8,65.4-44.5c9.4-9.3,18-19.4,25.8-30.2c7.7-10.8,14.6-22.1,20.7-33.8
		c11.9-23.6,20.9-48.6,26.8-74.4c2.9-12.8,5.2-25.9,6.8-38.9c0.8-6.2,1.4-12.6,1.9-19.7v-0.3C678.8,377.3,678.8,376.9,678.7,376.4z
		 M641.1,241.8c1.5,4.4,3.1,9.2,4.9,15.2c2.9,9.5,5.8,19.6,8.9,30.9c1.2,4.6,2.7,10,4,15.5c0.7,2.9,1.3,5.3,1.8,7.8
		c0.1,0.6,0.2,1.2,0.4,1.8c0.1,0.2,0.1,0.3,0.1,0.5l1.4,5.6c2.3,9.9,4.6,20.6,6,31.3c0.3,2.6,0.5,5.1,0.5,7.7
		c0.1,2.4-0.3,4.7-1.1,6.9c-0.8,2.1-2.1,4-3.7,5.5c-1.3,1.2-2.8,2-4.5,2.5l-0.1-0.1l-0.1,0.2c-0.3,0.1-0.7,0.1-1,0.2l-3.7,0.4l2,3.1
		c0.2,0.2,0.4,0.5,0.5,0.8l-0.2,0.4h0.4c0.3,0.4,0.6,0.7,0.9,1.1c0.8,0.9,1.8,1.7,3,2.1c2,0.7,4.2,0.9,6.3,0.4
		c1.6-0.4,3.2-0.8,4.8-1.4l0.3-0.1c-0.5,5.9-1,11.3-1.7,16.6c-1.6,12.9-3.9,25.7-6.8,38.3c-6.2,26.4-15,51-26.4,73
		c-5.9,11.5-12.7,22.6-20.3,33.1c-7.6,10.5-16,20.3-25.2,29.4c-18.4,18.2-40,32.9-63.7,43.3c-5.9,2.6-12,5-18,7.1l-4.6,1.5l-4.6,1.4
		c-2.6,0.8-5.2,1.5-7.9,2.2l-1.5,0.4c-12.8,3.6-25.2,8.5-37,14.7c-11.9,6.2-22.8,14-32.5,23.2c-2.3,2.2-4.5,4.5-6.6,6.8
		c-0.2-0.2-0.3-0.4-0.5-0.6c-6.6-8.3-12.8-17-18.6-26c-2.9-4.5-5.6-9.3-8.1-13.8c-2.7-4.8-5.2-9.6-7.4-14.1
		c-10.1-20.4-16.8-40.6-19.8-60.2c-3.3-21-2.7-42.3,1.6-63.1c0.2-1.2,0.5-2.5,0.8-3.9l0.9-3.9c0.5-2.1,1.3-4.9,2-7.7
		c1.6-5.5,3.1-10.5,4.7-15.2c3.3-10.1,7.6-19.8,12.6-29.1c5.6-10,12.1-18.2,19.4-24.3c1.9-1.6,3.9-3,6.2-4.7s4.5-3,6.6-4.3
		c4.5-2.7,9.1-5.2,13.9-7.3c8.9-3.9,18.5-6.8,27.8-9.6l2.3-0.7c11.3-3.4,21.4-6.1,30.9-8.4c2.7-0.7,5.6-1.3,8.3-1.9
		c2.5-0.5,4.9-1.1,7.4-1.7c5.7-1.3,10.8-2.6,15.7-3.9c6.1-1.6,11-3,15.6-4.4c3-0.9,5.5-1.8,7.8-2.6s4.4-1.7,6.5-2.5l1.1-0.4
		c10.1-4.1,19.8-9.3,28.9-15.4c9.1-6.2,17.3-13.6,24.4-22.1c3.5-4.2,6.7-8.7,9.6-13.4c2.9-4.7,5.5-9.5,7.8-14.5
		c2.4-4.9,4.5-10,6.3-15.2c1.8-5.2,3.2-10.5,4.4-15.8c1.2-5.4,2.2-10.8,2.9-16.1c0.4-2.9,0.7-5.4,0.8-7.8
		C639.7,238.2,640.5,240,641.1,241.8z M305.2,404.1c-1-0.5-1.8-1.3-2.4-2.2c-0.4-1-0.5-2.1-0.2-3.1c0.4-1.3,1.1-2.4,2-3.3
		c1-1.1,2.2-2,3.4-2.9c2.6-1.8,5.3-3.3,8.2-4.5c2.8-1.3,5.8-2.3,8.8-2.9c1-0.2,2-0.3,3-0.3c0.3,0,0.6,0,0.9,0.1
		c0.2,0,0.4,0.1,0.6,0.2v0.2c-0.2,1-0.6,2-1.3,2.8c-0.9,1.2-1.8,2.3-2.9,3.3c-2.3,2.2-4.7,4.2-7.2,6.1c-1.5,1.1-2.7,2-3.8,2.8
		c-1.3,0.9-2.6,1.8-4,2.5c-1.1,0.7-2.3,1.3-3.6,2C306.1,404.6,305.7,404.3,305.2,404.1z M479.2,729.8c-1.8-0.9-3.6-2-5.4-3.1
		c2.5-1.8,5.1-3.4,7.9-4.7c4.7-2.2,9.6-4,14.6-5.4c5-1.4,10.2-2.4,15.4-3c2.8-0.3,5.3-0.5,7.8-0.6c2.6-0.1,5.1,0,7.7,0.2
		c2.4,0.1,4.7,0.8,6.8,1.9c1.6,0.8,2.5,2.5,2.2,4.3c-0.3,2.2-1.2,4.3-2.5,6.1c-4.3,6-10.7,10.2-18,11.6c-4.8,1.1-9.8,1.2-14.7,0.4
		c-5-0.9-9.9-2.4-14.6-4.5C483.9,732.1,481.5,731.1,479.2,729.8L479.2,729.8z"/>
	<path id="Forehead_bangs" class="st0" d="M385.7,292.5c-0.5-2.8-1.5-5.5-3-8c-1.4-2.3-2.9-4.5-4.7-6.6c-1.6-1.9-3.3-3.7-5.4-5.8
		l-0.4-0.4c-0.3-0.3-0.7-0.6-1.1-1c-0.6-0.5-1.2-0.9-1.8-1.3c-1.2-0.9-2.5-1.6-3.9-2.1c-3-1.2-6.3-1.4-9.4-0.4
		c-2.9,0.9-5.5,2.6-7.5,4.8c-1,1-1.9,2.1-2.7,3.3c-0.8,1.2-1.5,2.4-2.1,3.7c-0.4,0.8-0.7,1.6-1,2.5c-1.1,0.2-2.1,0.3-3.2,0.1
		c-0.4-0.1-0.9-0.2-1.3-0.4l-1.8-0.7c-1.5-0.6-2.6-1-3.6-1.4c-5.6-2-10.4-3.3-15.7-3.3c-3.1-0.1-6.2,0.8-8.7,2.6
		c-1.3,1-2.4,2.2-3.2,3.7l-0.9,2.1c-0.2,0.7-0.4,1.3-0.6,2c-0.3,1-0.5,2.1-0.6,3.2l-0.1,0.8c0,0.9-0.4,1.8-0.9,2.5
		c-0.6,0.7-1.2,1.4-2,1.9c-0.8,0.5-1.7,0.8-2.7,1c-2.2,0.4-4.5,0.5-6.8,0.3c-2.4-0.2-4.8-0.5-7.2-1c-3.4-0.7-6.7-1.6-10-2.7l0.6-1.2
		c0.5-1.1,0.8-2.4,0.9-3.6c0.1-1.5-0.3-3-1.1-4.2l-0.2-0.3c-2-2.5-4.9-4.1-8-4.5c-3.1-0.4-6.2,0.3-8.8,2c-1.3,0.9-2.5,1.9-3.6,3
		c-0.7,0.6-1.3,1.2-2,1.7c-1.2,1.1-2.9,1.4-4.5,0.9c-2-0.6-3.9-1.6-5.5-2.9c-3.2-2.5-6-5.6-8.2-9c1.6-0.1,3.1-0.5,4.5-1.3
		c2-1,3.7-2.4,5.1-4.1c0.3-0.4,0.5-0.7,0.7-1l1-1.5c0.5-0.8,1-1.6,1.5-2.4c2-3.4,3.2-7.2,3.7-11.1c0.1-1.1,0.1-2.1,0.1-3l-0.1-1.5
		l-0.1-0.5c0-0.3-0.1-0.7-0.1-1c-0.3-2-1-4-2.1-5.8c-1-1.7-2.2-3.4-3.6-4.8c-1.4-1.4-2.8-2.7-4.4-3.8c-3.1-2.1-6.4-3.9-9.9-5.4
		l-2.6-1.1l-2.7-0.9c-1.9-0.6-3.7-1.1-5.2-1.5c-3.4-1-7-1.8-10.5-2.6l-3.2-0.7l-0.4,3.2c-0.2,1.1-0.2,2.1-0.3,3.1
		c-0.1,0.8-0.1,1.5-0.2,2.2c0,0.4-0.1,0.7-0.2,1.1l-0.3,1.3c-0.2,0.7-0.3,1.3-0.4,2l-0.1,0.7c-0.7,3.6-1.1,7.2-1.4,10.8
		c-0.4,3.7-0.6,7.5-0.8,10.8c-0.2,3.8-0.4,7.3-0.4,10.8c-0.1,4-0.1,7.6,0.1,10.9v0.8c0,0.7,0.1,1.4,0.2,2.1c0.1,0.9,0.3,1.9,0.5,2.8
		c0.3,1.9,0.8,3.7,1.4,5.5c1.3,3.6,3,6.9,5.1,10.1c1.7,2.7,3.4,5.3,5.4,8.1c-0.4,2.1-0.8,4.2-1.3,6.2c-0.6,2.3-1.4,4.6-2.2,6.9
		l-0.1,0.3c-0.9,2.6-1.7,4.9-2.6,7.1c-0.4,1.1-0.9,2.3-1.4,3.4c-0.1,0.2-0.2,0.5-0.3,0.7l-1.5,2.4c-1.5,2.3-2.7,4.8-3.8,7.3
		c-0.6,1.4-1,3-1.2,4.5v2.3c0.1,0.8,0.2,1.6,0.4,2.4c0.2,0.9,0.6,1.7,1.1,2.5c0.4,0.7,0.9,1.3,1.5,1.9c1.1,1.1,2.4,2.1,3.8,2.9
		c2.6,1.3,5.5,2,8.5,2.1h1.4c0.9,0,1.9,0,2.8-0.1c0.8,0,1.5-0.1,2.3-0.3c1-0.2,1.9-0.5,2.7-1c0.2-0.1,0.4-0.3,0.6-0.4
		c1.1,0.2,2.3,0.2,3.4,0.2c1.6-0.1,3.2-0.5,4.6-1.3c1.7-0.9,3.1-2.4,3.6-4.3c0.5-1.6,0.6-3.3,0.3-4.9c-0.4-2.5-1.3-4.9-2.8-6.9
		l-0.3-0.5l-4.5-0.1l0.6,1.4c1,2.1,1.7,4.4,2.2,6.7c0.1,0.9,0.1,1.8-0.2,2.7c-0.2,0.7-0.7,1.3-1.3,1.6c-0.8,0.6-1.9,1-2.9,1v-0.4
		l-0.2-1.2c-0.3-1.1-0.9-2-1.7-2.8c-0.4-0.4-0.9-0.8-1.4-1.1c-0.5-0.3-1-0.5-1.5-0.6c-1.8-0.6-3.7-0.8-5.6-0.5
		c-0.6,0.1-1.1,0.2-1.9,0.4c-0.8,0.3-1.5,0.8-2.1,1.4c-0.7,0.6-1.3,1.5-1.6,2.4c-0.1,0.3-0.1,0.6-0.1,0.9c0.2,0.5,0.5,0.9,0.9,1.2
		c1,0.7,2.1,1.2,3.3,1.3c0.5,0.1,1.1,0.2,1.6,0.2c-1.4,0.3-2.8,0.3-4.2-0.1c-1.4-0.3-2.8-0.9-4-1.6c-0.8-0.5-1.6-1.1-2.2-1.9
		c-0.3-0.4-0.6-0.8-0.9-1.3c-0.2-0.3-0.3-0.6-0.4-1c-0.1-0.5-0.2-0.9-0.2-1.4v-1.5c0.1-1,0.4-2,0.8-2.9c0.9-2.2,2-4.4,3.3-6.4l1-1.6
		l0.6-1c0.2-0.3,0.4-0.6,0.5-1c0.6-1.3,1.1-2.6,1.6-3.7c0.9-2.3,1.8-4.7,2.7-7.4l0.1-0.4c0.8-2.3,1.6-4.7,2.2-7.2s1.2-5.1,1.6-7.8
		l0.2-1.1l-0.7-0.9c-2.1-2.9-4.1-5.8-5.8-8.7c-1.8-2.8-3.3-5.8-4.5-8.9c-0.4-1.4-0.8-3-1.2-4.9c-0.2-1-0.3-1.8-0.4-2.4
		c-0.1-0.6-0.1-1.1-0.1-1.7v-0.7c-0.1-3-0.1-6.3,0-10.5c0.1-3.3,0.3-6.9,0.5-10.6c0.2-3.4,0.5-6.9,0.9-10.5
		c0.4-3.8,0.9-7.1,1.5-10.3l0.1-0.7c0.1-0.6,0.2-1.2,0.4-1.8l0.3-1.3c0.1-0.5,0.2-1.1,0.3-1.6c0.1-0.7,0.2-1.3,0.2-2
		c1.7,0.4,3.4,0.8,5.1,1.1l2,0.5c1.5,0.3,3.3,0.8,5.1,1.2c0.8,0.2,1.6,0.5,2.4,0.7l2.4,0.9c3.2,1.2,6.2,2.7,9,4.5
		c2.7,1.7,5,4,6.7,6.8c0.8,1.3,1.3,2.7,1.5,4.2c0,0.2,0.1,0.5,0.1,0.7v1.6c0,0.8-0.1,1.6-0.2,2.4c-0.5,3.2-1.7,6.2-3.5,8.9
		c-0.5,0.8-1,1.5-1.4,2.1l-0.9,1.3c-0.2,0.3-0.4,0.5-0.5,0.7c-0.9,1.1-2,1.9-3.2,2.5c-1,0.6-2.2,0.8-3.3,0.6
		c-1.1-0.3-2.2-0.8-3.1-1.5l-0.3-0.5l-0.2,0.1l-10.6-8.4l6.1,12l-0.2,0.2l0.5,0.4c1.1,2,2.3,4,3.6,5.9c1.4,2.1,3,4.1,4.8,5.9
		c1.7,1.9,3.7,3.6,5.8,5c1.1,0.8,2.2,1.5,3.3,2.1c1.2,0.7,2.5,1.2,3.8,1.6c1.5,0.5,3.1,0.6,4.7,0.3c1.6-0.3,3-0.9,4.3-1.9
		c0.9-0.7,1.8-1.4,2.6-2.1c0.9-0.8,1.8-1.5,2.8-2.2c1.5-0.9,3.2-1.2,4.9-1c1.5,0.2,2.9,1.1,3.9,2.3c0.1,0.2,0.1,0.3,0.1,0.5
		c-0.1,0.4-0.2,0.8-0.4,1.2c-0.3,0.5-0.6,1-1,1.5c-0.4,0.5-0.8,1-1.3,1.4l-4,3.6l5.2,1.9c0.6,0.2,1.2,0.3,1.9,0.5v0.1l0,0
		c3.8,1,8.4,2.2,13.2,3c2.6,0.5,5.3,0.8,7.9,1c2.8,0.2,5.6,0,8.3-0.5c1.6-0.4,3-1,4.4-1.8c0.7-0.5,1.3-1,1.9-1.5
		c0.6-0.5,1.2-1.2,1.6-1.9c0.9-1.4,1.4-3,1.6-4.6l0.1-0.8c0.1-0.9,0.3-1.9,0.5-2.8c0.1-0.6,0.3-1.1,0.5-1.7c0.2-0.5,0.3-0.9,0.5-1.3
		c0.4-0.8,1-1.5,1.7-2c1.7-1.1,3.7-1.6,5.7-1.6c4.9,0,9.8,1.5,14,2.9c1,0.4,2.1,0.8,3.5,1.3l1.8,0.7c0.7,0.3,1.5,0.5,2.3,0.7
		c0.7,0.1,1.3,0.2,2,0.2c-0.4,1.4-0.5,2.9-0.3,4.3c0.1,1.6,0.6,3.1,1.4,4.5c0.4,0.8,1.1,1.5,1.8,2c1,0.7,2.2,1,3.4,0.8
		c0.9-0.3,1.7-0.8,2.4-1.4c0.5-0.5,1.1-1,1.5-1.6c1.6-2.1,3.1-4.4,4.3-6.8c0.6-1.3,1.2-2.6,1.6-3.9c0.3-0.8,0.4-1.7,0.3-2.6
		c0-0.8-0.3-1.6-0.9-2.2c-0.2-0.2-0.5-0.5-0.8-0.6c-0.1-0.1-0.2-0.1-0.4-0.2l-0.1-0.1c-0.2-0.1-0.4-0.2-0.6-0.2
		c-1.4-0.4-2.8-0.4-4.2-0.1c1.9-2.6,4.6-4.6,7.7-5.7c3.4-1,7.3,0.5,10.8,4.1c3.5,3.3,6.6,7,9.2,11c1.2,1.9,2,3.9,2.5,6.1
		c0.4,2.2,0.3,4.4-0.2,6.5c-0.2,1.1-0.6,2.2-1,3.3c-0.2,0.6-0.4,1.1-0.7,1.6l-0.8,1.7c-0.6,1.3-1.3,2.6-2,3.9l-4,0.5l-2.1,0.3
		c1.2-1.1,2.1-2.5,2.9-3.9c0.6-1.3,0.9-2.4,1.3-3.5l0.1-0.4c0.3-1.2,0.6-2.5,0.9-3.8c0.5-2.5,0.8-5.1,0.9-7.7
		c0.1-2.7-0.5-5.3-1.6-7.7c-0.7-1.5-1.7-2.8-3-3.8c-0.7-0.5-1.4-0.9-2.2-1.2c-0.8-0.3-1.6-0.5-2.4-0.5c-1.8-0.1-3.5,0.4-5,1.4
		c-1.2,0.7-2.2,1.5-3.1,2.6c-1.6,2.2-2.8,4.6-3.6,7.2c-0.8,2.4-1.4,5-1.8,7.5c-0.5,2.6-0.6,5.2-0.4,7.8c0.1,1.5,0.3,2.9,0.8,4.3
		c0.3,0.9,0.8,1.6,1.4,2.3c0.5,0.6,1.1,1.1,1.7,1.6c0.6,0.4,1.2,0.8,1.9,1l-0.1,0.1c-0.9,0.8-1.9,1.6-2.8,2.5l-1.4,1.3
		c-0.5,0.5-1,1-1.4,1.6c-0.9,1.1-1.7,2.4-2.3,3.8c-0.6,1.5-0.9,3.2-0.7,4.8c0.2,1.6,0.8,3.1,1.7,4.5c0.9,1.2,1.9,2.3,3,3.2l0.3,0.2
		c0.9,0.5,1.9,0.8,3,0.9c0.9,0,1.9-0.1,2.8-0.4c1.4-0.6,2.8-1.3,4-2.3c2.1-1.7,4-3.7,5.6-5.9c3.2-4.1,6.1-8.4,8.7-12.9
		c1.1-1.9,2.3-4,3.7-6.8l0.9-1.7c0.3-0.6,0.6-1.2,0.9-1.9c0.5-1.3,1-2.6,1.3-4C386,298.5,386.1,295.5,385.7,292.5z M344.9,287.2
		c0.2-0.5,0.4-0.9,0.6-1.3c0.2-0.3,0.3-0.5,0.4-0.8c0.6-0.2,1.1-0.5,1.6-0.7c0.6-0.3,1.2-0.7,1.8-1.1l0.2-0.1
		c0.2-0.1,0.3-0.2,0.5-0.3l0.6-0.3c0.6-0.2,1.3-0.3,1.9-0.3c0,0.2,0,0.3-0.1,0.5c-0.2,1.1-0.5,2.2-1,3.2c-0.9,2.2-2,4.3-3.5,6.1
		c-0.3,0.4-0.7,0.8-1.1,1.2c-0.2,0.2-0.5,0.4-0.7,0.5c-0.1,0-0.2-0.1-0.3-0.1c-0.2-0.2-0.4-0.5-0.6-0.8
		C344.4,291.1,344.3,289.1,344.9,287.2L344.9,287.2z M216,348.9c1,0,2.1,0.1,3.1,0.4c0.7,0.1,1.3,0.4,1.7,0.9
		c0.3,0.3,0.6,0.8,0.7,1.2c0,0.2,0.2,0.8-0.1,1.1c-0.1,0.1-0.2,0.2-0.4,0.2c-0.5,0.1-1,0.1-1.5,0c-1.3-0.1-2.5-0.2-3.8-0.5
		c-2.4-0.4-3.6-0.9-3.6-1.2C212.1,350.2,213.2,348.9,216,348.9z M357.6,307.7c-0.3-1-0.4-2-0.5-3c-0.1-2.3,0-4.6,0.4-6.8
		c0.4-2.3,0.9-4.5,1.7-6.7c0.7-2.1,1.7-4.1,2.9-5.9c1.2-1.6,2.5-2.6,3.7-2.6h0.2c0.4,0,0.8,0.1,1.1,0.3c0.4,0.1,0.7,0.3,1,0.5
		c0.6,0.5,1.1,1.1,1.4,1.9c0.8,2,1.1,4.1,0.9,6.2c0,2.3-0.3,4.6-0.8,6.8c-0.2,1.2-0.5,2.3-0.8,3.5c-0.2,1-0.6,2-1,2.9
		c-1.1,1.8-2.5,3.4-4.2,4.7l-1.8,1.5c-1.1-0.2-2.1-0.7-2.9-1.4c-0.3-0.3-0.6-0.6-0.9-1C357.9,308.4,357.8,308.1,357.6,307.7
		L357.6,307.7z M375,311.5c-0.3,0.5-0.6,1-0.8,1.5c-2.4,4.3-5.1,8.5-8.1,12.4c-1.4,1.9-3.1,3.6-4.9,5.1c-0.8,0.6-1.7,1.1-2.6,1.5
		c-0.8,0.3-1.2,0.2-1.5,0c-1.6-1.4-2.6-2.9-2.7-4.3c-0.1-1.8,0.6-3.5,1.9-4.8c0.3-0.4,0.6-0.8,1-1.1l1.3-1.2l2.7-2.4
		c1.1-1,2.2-1.9,3.4-2.9c0.2-0.2,0.4-0.3,0.6-0.5c2.4-0.4,4.6-1.1,6.8-2.1L375,311.5z"/>
	<path id="Lips" class="st0" d="M247.5,376.6l-1.3,0.6c-0.5,0.2-1,0.4-1.5,0.5l-0.9,0.1c-0.3,0-0.6,0.1-0.9,0.1
		c-1.2,0-2.4-0.2-3.5-0.5c-0.5-0.2-1.1-0.4-1.7-0.7l-1.8-0.9l-3.7-2l-1.1-0.6c-2.2-1.4-4.6-2.5-7.1-3.3c-1.6-0.4-3.2-0.7-4.9-0.7
		c-0.5,0-0.9,0-1.4,0.1c-0.3,0-0.6,0.1-0.9,0.2h-0.1c-0.5,0.1-0.9,0.4-1.2,0.7l-0.3,0.3c-0.1,0.1-0.2,0.2-0.2,0.3l-0.3,0.6l-0.1,0.3
		c-0.1,0.2-0.1,0.4-0.2,0.6v0.2c-0.3,1.5-0.3,3,0.2,4.5c0.3,0.8,0.7,1.6,1.1,2.4c0.8,1.5,1.9,2.8,3.1,4c0.7,0.6,1.4,1.1,2.2,1.5
		c0.4,0.2,0.9,0.4,1.3,0.5h0.1c-0.5,0.5-0.9,1.1-1.2,1.7c-0.8,1.7-1.1,3.5-0.9,5.3l0.1,0.7c0,0.3,0.1,0.6,0.2,0.9
		c0.2,0.5,0.4,1,0.6,1.5c0.5,0.9,1.2,1.7,2,2.3c1.5,1.1,3.1,1.8,4.9,2.1c0.9,0.1,1.8,0.2,2.7,0.2c0.7,0,1.4,0,2.1-0.1
		c1.6-0.2,3.2-0.6,4.7-1.3c1.5-0.7,2.8-1.6,4-2.8c2.3-2,4.2-4.5,5.5-7.2c0.3-0.7,0.5-1.3,0.8-2c0.7-2,1.6-3.9,2.5-5.8l0.8-1.6
		L247.5,376.6z M236.3,381.1c-1.3,0.2-2.6,0.4-4.1,0.6l-0.7,0.1c-1,0.2-2.1,0.3-3.1,0.2c-1.2-0.1-2.4-0.4-3.6-0.7l-0.2-0.1
		c-0.3-0.1-0.5-0.2-0.8-0.3l-0.6-0.3c-0.4-0.2-0.9-0.5-1.2-0.9c-0.8-0.8-1.5-1.7-2-2.8c-0.5-0.8-0.8-1.8-0.8-2.8V374h0.1
		c1.2,0,2.4,0.2,3.5,0.5c2.2,0.7,4.3,1.6,6.3,2.7l4.8,2.5c0.7,0.3,1.6,0.8,2.6,1.2C236.4,381.1,236.4,381.1,236.3,381.1z
		 M225.6,389.4c0.6-1.3,2.7-2.5,5.1-3c1.9-0.4,3.8-0.7,5.8-1c0.8-0.1,1.5-0.2,2.3-0.4c1.3-0.2,2.6-0.5,3.9-0.7l0.5-0.1
		c0.4-0.1,0.8-0.2,1.2-0.2c-0.4,1.1-0.8,2.1-1.1,2.9c-0.5,1.1-1.2,2.1-2,3c-0.4,0.5-0.8,0.9-1.2,1.4s-1,0.9-1.4,1.3
		c-1.7,1.5-3.8,2.4-6.1,2.6c-2.8,0.2-4.9-0.3-6.2-1.3c-0.3-0.2-0.6-0.5-0.7-0.8c-0.1-0.1-0.1-0.3-0.2-0.4l-0.1-0.5
		C225.2,391.3,225.3,390.3,225.6,389.4z"/>
	<path id="Hair" class="st0" d="M523,369.8c-0.2-0.9-0.7-1.7-1.3-2.4c-0.4-0.5-0.9-1-1.4-1.4c-1-0.8-2.1-1.5-3.3-2.1v-2.7
		c-0.1-1.7-0.2-3.3-0.3-4.8c-0.3-2.8-0.7-5.8-1.4-9.4c-1-5.6-2.3-11.4-4.1-18.3c-3-11.6-6.6-23.2-11-35.6
		c-4.2-11.9-8.9-23.6-13.9-34.6c-5.1-11.4-10.7-22.5-16.9-33.3c-6.2-10.9-13.3-21.3-21.2-31c-4-4.9-8.3-9.4-13-13.7
		c-4.7-4.2-9.6-8.2-14.7-11.9c-10.2-7.4-21.3-13.6-33-18.3l-1.5-0.6c-1-0.4-1.9-0.7-2.9-1.1l-4.5-1.5c-3.1-1-6.3-1.7-9.6-2.1
		c-6.2-0.8-12.5-1-18.7-0.6c-5.8-1-11.9-2.1-18-2.8c-0.8-0.1-1.7-0.2-2.5-0.2l-7-0.3h-4.6c-1.7,0-3.3,0-4.7,0.1
		c-6.3,0.2-12.5,0.8-18.7,1.8c-6.2,0.9-12.3,2.3-18.3,4.1c-18.2,5.3-34.9,14.7-48.8,27.6c-2.3,2.2-4.6,4.4-6.7,6.7
		c-1.9,2-3.6,4.1-5.4,6.1c-0.7,0.1-1.3,0.3-2,0.5c-0.9,0.3-1.9,0.7-2.9,1.1c-1.8,0.8-3.4,1.8-5,2.9c-3.1,2.1-6,4.4-8.7,7
		c-5.4,5.1-10.1,10.8-14,17.1c-1,1.6-2,3.3-2.8,5c-0.9,1.7-1.6,3.5-2.1,5.4c-1.1,3.7-1.6,7.6-1.4,11.5c0.2,3.9,0.9,7.7,2.2,11.3
		c1.2,3.5,2.8,6.8,4.9,9.8c0.5,1.8,1.1,3.6,2,5.3c0.5,1,1.1,1.9,1.7,2.8c0.7,0.9,1.6,1.7,2.6,2.3c0.9,0.6,1.9,1.1,3,1.5
		c0.6,0.2,1.2,0.3,1.8,0.4c0.2,0,0.4,0,0.6,0.1h0.1c0.3,0,0.7-0.1,1-0.2c0.2,0,0.3-0.1,0.5-0.2l0.2-0.1l0.4-0.4
		c0.2-0.3,0.4-0.6,0.5-0.9c0.1-0.3,0.1-0.7,0-1c0-0.2-0.1-0.4-0.2-0.6c-0.1-0.1-0.1-0.2-0.2-0.3l-0.4-0.4c-1.1-1.2-2-2.6-2.8-4.1
		c-0.3-0.6-0.5-1.2-0.5-1.9c0-0.7,0.1-1.4,0.4-2.1c0.4-1.3,1.3-2.3,2.4-3c0.6-0.3,1.2-0.6,1.8-0.8c0.2-0.1,0.4-0.1,0.6-0.1
		c0.4,0.3,0.8,0.6,1.1,1c0.3,0.3,0.6,0.6,0.9,1c0.3,0.3,0.6,0.6,0.8,0.9l0.5,0.5l3.4-1.5l-0.1-0.8c-0.2-1.1-0.6-2.2-1.2-3.2
		c-0.6-1.2-1.6-2.2-2.7-3c-0.4-0.3-0.9-0.5-1.4-0.6c-0.6-0.2-1.2-0.2-1.8-0.1c-0.7,0.1-1.3,0.3-1.9,0.4c-1.2,0.4-2.3,1.1-3.3,1.9
		c-1.8,1.6-3,3.8-3.4,6.2c-0.1,0.4-0.1,0.8-0.2,1.1c0,0.2,0,0.3-0.1,0.5v1.8c0,0.2,0,0.5,0.1,0.7c-0.7-1.5-1.2-3-1.6-4.6l-0.1-0.4
		l-0.3-0.5c-0.8-1.4-1.6-2.9-2.2-4.4c-0.6-1.5-1.2-3.1-1.6-4.7c-0.9-3.2-1.3-6.4-1.3-9.7c0-3.2,0.5-6.4,1.5-9.5
		c0.4-1.6,1-3.1,1.8-4.5c0.7-1.5,1.5-2.9,2.4-4.3c3.6-5.8,7.9-11.2,12.9-15.9c2.4-2.3,5-4.5,7.8-6.4c1.3-0.9,2.7-1.8,4.2-2.5
		c1.3-0.6,2.6-1.1,4-1.3l1.3-0.2l1.4-1.7c1.8-2.1,3.5-4.1,5.3-6c2-2.1,4.1-4.3,6.3-6.3c4.4-4,9.1-7.8,14.1-11.1
		c10-6.6,20.9-11.7,32.4-15.1c5.7-1.7,11.6-3,17.5-3.9c5.9-0.9,11.9-1.5,17.9-1.7c1.3-0.1,2.9-0.1,4.5-0.1h4.5l6.8,0.3
		c0.7,0,1.4,0.1,2.1,0.2c6,0.8,12.4,1.9,18,2.9l0.4,0.1h0.4c5.9-0.4,11.9-0.2,17.8,0.6c2.9,0.4,5.7,1,8.5,1.9l4.3,1.5
		c0.9,0.3,1.8,0.7,2.7,1l1.5,0.6c11.2,4.6,21.8,10.5,31.6,17.6c9.9,7,18.8,15.3,26.5,24.6c7.7,9.4,14.6,19.5,20.6,30.1
		c6.1,10.6,11.6,21.5,16.6,32.7c4.9,10.9,9.5,22.4,13.7,34.2c4.3,12.1,8,23.9,10.9,35.1c1.7,6.7,3,12.5,4,17.8
		c0.6,3.4,1,6.3,1.3,8.9c0.2,1.5,0.3,2.9,0.3,4.4c0.1,1.3,0,2.7-0.2,4l-0.4,2.5l2.4,0.9c1.4,0.5,2.7,1.2,3.9,2.1
		c0.2,0.1,0.3,0.3,0.4,0.4c-0.1,0.3-0.1,0.6-0.2,1c-0.7,2.5-2.3,5.1-4.8,8.1c-4.6,5.1-9.8,9.7-15.5,13.7
		c-11.6,8.1-24,15.3-36.8,21.4c-1.6,0.8-3.2,1.5-4.8,2.3l-4.9,2.3c-3.3,1.5-6.5,3-9.7,4.5c-6.4,2.9-13.1,5.1-19.9,6.7
		c-13.7,3.1-27.8,3.4-41.6,0.8c-6.9-1.2-13.8-2.9-20.5-5.1c-0.5-0.2-1-0.3-1.4-0.5c-1.2-0.4-2.4-0.8-3.5-1.2c-1.5-0.6-3-1.3-4.4-2.1
		c-0.6-0.4-1.2-0.8-1.7-1.1l0.1-0.1c3.4-1.5,6.7-3.1,9.9-5c3.2-1.9,6.3-3.9,9.3-6.1c6.1-4.4,11.5-9.7,15.9-15.8
		c4.9-6.8,7.8-14.2,8.3-21.4c0.5-7.3,0.5-14.7-0.1-22c-1-13.1-3.9-26.7-8.9-42.8l-0.3-1l-5.4,1.7l0.3,1c4.8,15.5,7.5,29.1,8.4,41.6
		c0.5,7,0.5,14.1-0.1,21.1c-0.7,6.6-3.2,13-7.2,18.3c-4.2,5.5-9.1,10.4-14.7,14.4c-5.6,4.2-11.7,7.6-18.1,10.4l-0.4,0.2
		c-0.7,0.3-1.4,0.6-2.1,1l-0.7,0.4c-0.1,0.1-0.4,0.2-0.5,0.3c-0.4,0.3-0.8,0.7-1,1.1c-0.3,0.6-0.5,1.2-0.5,1.9
		c0,0.6,0.1,1.2,0.4,1.8c0.2,0.4,0.4,0.7,0.6,1.1c0.7,1,1.5,1.9,2.4,2.6c0.8,0.7,1.7,1.3,2.6,1.8c1.7,1,3.5,1.9,5.3,2.6
		c1.3,0.5,2.6,0.9,3.9,1.3c0.5,0.2,0.9,0.3,1.4,0.5c7,2.2,14.1,4,21.3,5.3c6.7,1.2,13.6,1.8,20.4,1.8c8,0,15.9-0.9,23.7-2.7
		c7.2-1.7,14.2-4.1,20.9-7.1c3.3-1.4,6.6-3,9.9-4.5l9.8-4.6c6.6-3.2,13.1-6.6,19.3-10.1c6.4-3.6,12.5-7.5,18.5-11.8
		c6.1-4.2,11.7-9.2,16.7-14.8c2.7-3,4.7-6.6,6-10.4c0.2-0.5,0.3-1.1,0.4-1.6l0.1-0.6v-0.3C523.2,371.4,523.2,370.6,523,369.8z"/>
	<path id="Under_nose" class="st0" d="M220.4,362.5c-0.9-1.6-1.9-3.1-3.2-4.4c-1.2-1.2-2.6-2.3-4-3.3l-0.3-0.2l-2.6,0.7l0.3,2.4
		l0.2,0.2c1.1,1,2.2,2,3.2,3.1c0.9,1,1.7,2.2,2.3,3.4c0.5,1,0.7,2.2,0.6,3.3c-0.2,1.2-0.7,2.3-1.5,3.2l-0.6,0.8l0.9,0.4
		c1,0.4,2,0.7,3,0.8c0.3,0,0.7-0.1,0.9-0.4c0.9-1.2,1.5-2.6,1.8-4.1C221.7,366.4,221.4,364.3,220.4,362.5z"/>
	<g id="BO">
		
			<rect id="Crochet_1" x="358.4" y="326.7" transform="matrix(0.9997 -2.286182e-02 2.286182e-02 0.9997 -7.6542 8.3281)" class="st1" width="4" height="24.5"/>
		
			<rect id="Crochet_2" x="360.2" y="364.9" transform="matrix(0.9996 -2.998651e-02 2.998651e-02 0.9996 -11.0921 11.0287)" class="st1" width="4" height="20.8"/>
		<path id="BO_pièce_2" class="st1" d="M361.3,383.5c-9.6,0-17.3,7.7-17.3,17.3s7.7,17.3,17.3,17.3c9.6,0,17.3-7.7,17.3-17.3v0
			C378.6,391.3,370.8,383.5,361.3,383.5z"/>
		<path id="BO_pièce_1" class="st1" d="M360.4,348.7L360.4,348.7c-16.4,0-29.8,13.3-29.8,29.7v2h59.5v-2
			C390.1,362,376.8,348.7,360.4,348.7L360.4,348.7z"/>
	</g>
</g>
<g id="Marque">
	<g id="La">
		<polygon class="st0" points="76.3,483.8 72.9,485.6 81.8,503.1 41.2,523.7 45.2,531.5 89.2,509 		"/>
		<path class="st0" d="M66.6,459.4l-15.7-2L46.1,441l12.5-9l-2.5-8.7l-43.3,31.3l2.1,2.4l52.9,6.5L66.6,459.4z M42.8,443.4l3.9,13.6
			l-19.4-2.5L42.8,443.4z"/>
	</g>
	<g id="Fee">
		<polygon class="st0" points="26.9,327.5 23.1,327.3 22.2,346.6 4.3,345.8 5.2,325 1.4,324.8 0,354.3 49.4,356.5 49.8,347.8 
			26,346.8 		"/>
		<polygon class="st0" points="57.6,270.4 52.6,292.1 31.9,287.3 36.3,268.5 32.5,267.6 28.2,286.4 12,282.7 16.7,262.4 12.9,261.5 
			6.3,290.2 54.4,301.4 61.4,271.3 		"/>
		<polygon class="st0" points="78.6,216.9 69.7,237.3 50.3,228.8 58,211.1 54.5,209.6 46.7,227.2 31.5,220.5 39.9,201.5 36.4,199.9 
			24.5,226.9 69.7,246.8 82.2,218.5 		"/>
	</g>
	<g id="Perle">
		<path class="st0" d="M115.6,135.1c1.9-2,3.3-4.3,4.3-6.8c0.8-2.1,1-4.3,0.5-6.5c-0.9-3.6-2.8-6.8-5.6-9.2
			c-4.4-4-11.8-6.5-21.8,4.5c-2.6,2.9-5.5,6.4-8.7,10.4l-0.9,1.2l36.1,32.8l5.8-6.4l-15.2-13.8L115.6,135.1z M102.5,115.9
			c2.2-0.1,4.5,0.9,6.8,3c7.6,6.9,5.6,11.1,3.5,13.6l-5.5,6.1l-15.4-14c1.4-1.8,2.7-3.5,4.1-5C98.1,117.2,100.3,116,102.5,115.9z"/>
		<polygon class="st0" points="165.3,111.5 152.4,94.6 167.8,82.9 165.4,79.8 150.1,91.5 140,78.3 156.6,65.7 154.2,62.6 
			130.8,80.5 160.7,119.8 185.3,101 183,98 		"/>
		<path class="st0" d="M222.5,49.1c0.3-3.2-0.3-6.4-1.8-9.3c-1.5-3.5-4.7-6-8.5-6.4c-3.6-0.5-7.9,0.5-13.1,3.1
			c-3.5,1.7-7.6,3.9-12,6.5l-1.3,0.7l21.4,43.8l7.8-3.8l-9.5-19.6l5.4-2.6l21.2,14l8.9-4.3l-22.2-14.6
			C220.8,54.6,222.1,51.9,222.5,49.1z M200.9,39.9c2.9-1.4,5.4-1.8,7.4-1.1s3.6,2.3,4.9,4.9c4.2,8.7,0.8,11.8-2.1,13.3l-7.4,3.6
			l-8.6-17.5C197.1,41.9,199,40.8,200.9,39.9L200.9,39.9z"/>
		<polygon class="st0" points="271.3,57.3 259.5,13.3 251.1,15.6 263.9,63.3 291.2,56 290.2,52.2 		"/>
		<polygon class="st0" points="347,45.3 324.8,47.1 323.1,26 342.3,24.4 342,20.6 322.7,22.1 321.4,5.6 342.1,3.9 341.8,0 
			312.4,2.5 316.5,51.7 347.3,49.2 		"/>
	</g>
	<path id="Point" class="st0" d="M417.9,40.7c0.1-0.1,0.1-0.2,0.2-0.3c0.1-0.2,0.2-0.4,0.2-0.6c0-0.1,0.1-0.3,0.1-0.4
		s0.1-0.2,0.1-0.3v-1.7c0-0.2-0.1-0.5-0.2-0.7c0-0.1-0.1-0.2-0.1-0.3l-0.3-0.6c-0.1-0.1-0.1-0.2-0.2-0.4s-0.1-0.2-0.2-0.3
		s-0.1-0.2-0.2-0.2l-0.3-0.3c-0.1-0.2-0.3-0.3-0.5-0.4c-0.1-0.1-0.2-0.1-0.3-0.2s-0.4-0.3-0.6-0.4s-0.2-0.1-0.3-0.2
		c-0.2-0.1-0.4-0.2-0.6-0.2c-0.1,0-0.3-0.1-0.4-0.1S414.1,33,414,33h-0.9c-1.1,0-2.1,0.3-3,1c-0.1,0.1-0.2,0.1-0.2,0.2l-0.3,0.3
		c-0.2,0.1-0.3,0.3-0.4,0.5c-0.1,0.1-0.2,0.2-0.2,0.3s-0.3,0.4-0.4,0.6s-0.1,0.2-0.2,0.3c-0.1,0.2-0.2,0.4-0.2,0.6
		c0,0.1-0.1,0.3-0.1,0.4s-0.1,0.2-0.1,0.3c-0.5,2.8,1.4,5.6,4.2,6.1c0,0,0,0,0.1,0h0.9c1.1,0,2.1-0.3,3-1c0.1-0.1,0.2-0.1,0.2-0.2
		l0.3-0.3c0.2-0.1,0.3-0.3,0.4-0.5c0.1-0.1,0.2-0.2,0.2-0.3C417.6,41.2,417.8,41,417.9,40.7z"/>
	<g id="bijoux">
		<path class="st0" d="M489.3,49.7c-2-0.8-4.1-1-6.2-0.4l4.9-11.8l-6-2.5l-14,33.6l6,2.5l1-2.3c0.6,2.6,2.4,4.7,4.8,5.7
			c1.2,0.6,2.6,0.9,3.9,0.9c4.1,0,7.5-3.1,10.1-9.4c1.6-3.9,2-7.2,1.3-10C494.4,53.1,492.2,50.7,489.3,49.7z M482.3,51.1
			c1.7-0.6,3.6-0.6,5.3,0.2c1.3,0.5,1.9,1.7,1.9,3.6s-0.8,4.7-2.3,8.3c-2.8,6.8-5.3,9.8-7.5,8.9c-1.8-0.7-3.3-3.2-3.7-5.9
			L482.3,51.1z"/>
		<path class="st0" d="M524.4,62.7c0.6,0.3,1.2,0.5,1.8,0.5c0.3,0,0.6,0,0.9-0.1c0.9-0.3,1.6-0.9,2.1-1.7c1-1.6,0.4-3.7-1.2-4.7
			c-0.1,0-0.1-0.1-0.2-0.1c-1.7-1-3.8-0.4-4.8,1.2c0,0,0,0,0,0.1l0,0C522.1,59.6,522.7,61.7,524.4,62.7z"/>
		
			<rect x="503.8" y="74.3" transform="matrix(0.4888 -0.8724 0.8724 0.4888 196.2855 489.9576)" class="st0" width="24.8" height="6.3"/>
		<path class="st0" d="M531.3,104.4c-1.1,1.7-2.5,3-4.3,3.9c-1.2,0.6-2.7,0.6-3.9-0.2c-0.5-0.3-1-0.8-1.4-1.3l-0.3-0.3l-1.3,0.9
			l0.3,0.4c1,1.2,2.2,2.4,3.5,3.3c1.6,1,3.4,1.6,5.3,1.7h0.1c2.8,0,5.3-1.6,7.4-4.6l15.6-22.4l-5.4-3.7L531.3,104.4z"/>
		<path class="st0" d="M556.2,74.3c-0.8-0.5-1.7-0.8-2.6-0.6c-0.9,0.2-1.7,0.7-2.3,1.5c-1.1,1.5-0.8,3.7,0.8,4.8
			c0,0,0.1,0.1,0.1,0.1c0.6,0.5,1.3,0.7,2.1,0.7c1.1,0,2.2-0.5,2.8-1.5C558.2,77.7,557.8,75.4,556.2,74.3z"/>
		<path class="st0" d="M579.9,106.6c-2.4-2.2-5.7-3.3-8.9-2.9c-3.4,0.5-6.6,2.3-8.8,5c-2.5,2.9-3.9,6.1-3.8,9.3
			c0.3,6.2,5.3,11.2,11.5,11.4c0.4,0,0.9,0,1.3-0.1c3.4-0.5,6.5-2.3,8.7-5c2.4-2.5,3.8-5.8,3.9-9.3
			C583.8,111.8,582.4,108.7,579.9,106.6z M574.7,119.7c-4.5,5.1-8.7,7.1-10.9,5.2s-0.7-6.4,3.7-11.5c3.3-3.8,6.6-5.9,8.9-5.9
			c0.7,0,1.5,0.2,2,0.7C580.7,110.2,579.2,114.6,574.7,119.7z"/>
		<path class="st0" d="M613.9,142.6l-13.1,11.3h-0.6c-1.9,0-6.8-0.1-8-1.4s1.2-3.6,2.3-4.5l13.8-11.9l-4.1-4.7l-13.7,11.9
			c-2,1.7-3.1,3.2-3.4,4.7s0.2,3,1.6,4.6c2,2.3,5.2,3.2,10.5,2.9l-3.9,3.4l4.1,4.7l18.7-16.2L613.9,142.6z"/>
		<polygon class="st0" points="640.3,178.5 630.4,178.5 634.9,170.3 630.9,164.4 623.1,178.4 610.5,178.3 612,180.5 621.8,180.6 
			617.4,188.7 621.3,194.7 629.2,180.6 641.8,180.7 		"/>
	</g>
</g>
</svg>
