<svg id="Calque_1" data-name="Calque 1" xmlns="http://www.w3.org/2000/svg" viewBox="0 0 525.76 612.99"><defs><style>.cls-1,.cls-2,.cls-4{fill:#7d414d;}.cls-1,.cls-2,.cls-3{stroke:#7d414d;}.cls-1,.cls-2,.cls-3,.cls-5,.cls-6{stroke-miterlimit:10;}.cls-1,.cls-3,.cls-5{stroke-width:3px;}.cls-2,.cls-6{stroke-width:2px;}.cls-3,.cls-5{fill:none;}.cls-5,.cls-6{stroke:#d98d6b;}.cls-6{fill:#d98d6b;}</style></defs><g id="Fée"><g id="Lower_body" data-name="Lower body"><g id="Body"><path class="cls-1" d="M310.8,411.3l-5.8-2.4c-5.8-2.4-10.4-7.3-6-13.9a29.92,29.92,0,0,1,9.1-8.3c3.9-2.7,21.1-11.3,23.1-3.7.2,7.1-10.2,14.8-15.6,18.5a161.11,161.11,0,0,1-32.1,16.2,141.57,141.57,0,0,1-23,6.9c-13.8,2.8-25.8-3.4-25.5-18.7.1-3,1.1-8.5-2.9-9h0a1.23,1.23,0,0,1,1.8-1.2c2.5,1.1,3.1,4.7,3,7.3-1.2,8.7,2.6,18,11.9,19.9,13.9,3.2,42.9-10.1,55.6-17,6.8-3.8,13.6-8,19.2-13.5a22.6,22.6,0,0,0,5-6.9c2.7-5.7-6.2-3-8.9-2.1-7,2.6-16,6.4-20.4,12.6-4.2,6.4,3.7,9.9,9.5,11.7a36.48,36.48,0,0,1,10.8,5.4c5.9,4.2,11.5,9.1,14.8,15.7,1.8,3.4,2.9,9.1-1.3,9.8-7.3,2.2-14.6,4.7-21.6,7.6l-1.3.6c-3.2,1.5-6.8,1.8-10.2,2.2-21.2,1.5-42.5.1-63.6-1.1a63.1,63.1,0,0,0-16.7,2.5,62.36,62.36,0,0,0-45.5,46.1c-7.6,17.9-12.9,37.4-13.1,56.9-.1,14.4,3.4,29.7,13.9,39.9,11,9.7,26.1,12.8,40.1,16.4,53.6,12.7,128.3,18.1,155,74.3,1.9,4.3,3.8,9.4,5.7,13.7,2.5,5.6,4.7,11.3,8.3,16.2,2.4,3.1,4.2,3.7,7.1,0,2.5-3,5.8-8.9,8-12.3a145.79,145.79,0,0,1,65.2-59.1c13.4-6.4,27.9-10.1,42.1-14.4,111.2-34.9,164.3-139.6,172.7-249.8.5-3.5-9.7,2.7-14.1-1a24.58,24.58,0,0,1-2.1-2.4,10,10,0,0,0,3.1-1.4c3.8-2.7,10.8-9.1,9-19.5-1.3-14.7-4.5-29.1-7.8-43.5-5.7-24-12.3-47.7-20-71.1-1.9-5.2-3.4-10.6-6.1-15.3-.3.1,1.1.3,1.3-.3.1-.2,0-.1,0,0v.4c-2.3,28.3-9.2,57-25.2,80.9-29,44.2-79.6,56.9-128.1,67.2-8.3,1.8-20.2,5.4-28.5,7.9-18.7,5.6-37.8,11.6-53.6,23.4-24,17.9-35.6,46.9-43.1,74.9-17.7,60-3.1,116.8,29.6,168.6a356.72,356.72,0,0,0,56.3,68c7.2,6.7,14.6,13.1,23,18.4,20.8,13.5,48.4,21.1,64.8-2.9,8-11.9-5.5-14.8-14.8-14.9-17.5,0-41.6,5.8-54.4,18.3-3.3,3.4-5.6,8-4.7,12.8l-1.3.2c-1-5.2,1.5-10.3,5.1-13.9,10.8-10.5,26-14.9,40.5-17.6a82.46,82.46,0,0,1,14.9-1.2c5,.2,10.2.5,14.7,3.2,8.3,5,1.5,14.9-3.5,19.7-17.4,18.1-43.6,9.5-62-2.4A159.62,159.62,0,0,1,449,716.3,353.88,353.88,0,0,1,392.3,648c-33.1-52.2-47.8-109.5-30-170,7.5-28.4,19.4-57.9,43.7-76.1,19.9-14.9,45-20.8,68.4-28.1,23.8-6.5,48.3-10.4,71.4-18.9,38.4-13.3,68.6-38.7,83-77.3,6.6-17.2,10-35.5,11.5-53.8v-.5a1.48,1.48,0,0,1,.3-.9c.3-.9,2.2-.6,2.1-.3a6.51,6.51,0,0,1,1.5,2.3c4,9.2,6.8,18.6,9.8,28.1,5.8,18.9,11,37.9,15.6,57.2,3.3,14.5,6.5,29,7.8,43.8a26.11,26.11,0,0,1-1.2,10.4,20.1,20.1,0,0,1-7.8,9.6c-1.3.8-2.7,2.1-.7,2.9.8.3,4.9-.4,5.5-.6,1.5-.4,5.4-2.1,7-2.1s1.5,2.4,1.4,3.4c-8.8,114.3-65,222-181.5,254.9-30.8,7.8-60.6,22.4-81.7,46.7a175.35,175.35,0,0,0-17.3,23.7c-2,3.1-5.6,9.5-8.1,12.5-5.1,6.4-9.4,2.8-12.8-3.2-4.9-8.7-8.2-18-12.1-27.1-26.2-55.1-100.7-60.5-153.4-73-14.3-3.7-29.8-6.9-41.2-17-11-10.7-14.8-26.8-14.6-41.6.3-20,5.6-39.5,13.3-57.8a67.7,67.7,0,0,1,64.5-50l5.8.4c15.3.9,30.7,1.5,46,1.3,6.5-.3,13.3-.1,19.6-2,.7-.2,1.9-.8,2.6-1.1a188.18,188.18,0,0,1,22.2-7.8c2-.8.2-4.9-.5-6.5-2.8-5.6-7.5-9.9-12.5-13.7a33.27,33.27,0,0,0-6.6-3.8l-2.5-.7Z" transform="translate(-157.39 -136.12)"/></g></g><g id="Forehead"><path class="cls-2" d="M199.8,333.5c.8-1.5,1.7-2.9,2.3-3.8,1-2.2,1.9-4.4,2.8-6.6a105.13,105.13,0,0,0,5.8-20.6l.2.9c-6-8.5-12.4-17.6-12.9-28.4-.2-10.4.2-20.6.9-31,.6-7,1.2-13.8,3.1-20.6l2.4.8-.9,2.6.9-2.6c-3.2,13.1-3.4,27-3.8,40.5,0,3.5-.2,6.9,0,10.2.6,10.4,6.9,19.2,12.7,27.5a113.7,113.7,0,0,1-8.9,28.5c-2.2,3.6-4.7,7.8-5.4,12-.9,4.8,2,8.8,6.4,10.2l1.9.6h-.1c2.9.2,14.2.8,10.2-4.5-1.8-2.2-5.9-2.4-8.1-1.6-4.1,2-1.7,4,1.2,4.6,10.9,2,22.6,2.7,16.5-12.7h.7c2.9,4.5,4.5,11.7-1.5,14-2.7,1-5.5.7-8,.4a54.81,54.81,0,0,1-9.7-1.7c-1.1-.4-2.6-1.7-1.7-3.1,1.6-2.1,4.4-2.5,6.8-2.4a5.74,5.74,0,0,1,5,3.7c1.9,5.8-8.3,5.2-11.7,5.1h-.1l-2.1-.6c-5.3-1.6-9.5-6.6-8.2-12.4h0a28.65,28.65,0,0,1,3.3-9Z" transform="translate(-157.39 -136.12)"/></g><g id="Lips"><path class="cls-1" d="M207.5,354.4c3.8,2.4,7.2,5.2,8.4,9.8.4,2.4-.3,3.5-1.5,5.5-.1.2.1.1.1.1,6.4-1,11.3,3.7,17.1,6.4,3.6,1.5,8.4,3.1,12.1,1.4l1.7,1.4c-2,5.6-4,11.3-8.7,15.2a15.13,15.13,0,0,1-12.6,3,8,8,0,0,1-4.2-1.9c-1.8-1.8-1.8-4.3-1.6-6.5.4-4.3,5.1-5.5,8.6-6.1,5.7-1,11.4-1.6,16.6-3.9l.4-.2.6.3c.8.4.1,1.5-.6,2-.4.3-.4.4-.9.5-6.2.2-12.3,1.6-18.6,1.8a17.19,17.19,0,0,1-5-.4c-4.8-1.7-8.6-8.1-7.1-11.5l1.6-.3a6.6,6.6,0,0,0-.2,4.4,9.66,9.66,0,0,0,10.8,7.5c6-.3,14.2-1.2,18.6-3.8-.6.5.2,2,.2,2-2.9.3-4.8.9-7.6,1.3-4.2.7-8.6.9-12.5,2.4a5.18,5.18,0,0,0-3.4,3.2,14.53,14.53,0,0,0-.3,3c0,3,2.1,4.7,4.9,5.1a13.65,13.65,0,0,0,11.5-2.9,20.82,20.82,0,0,0,7.2-13.8l-.1-.1c-4.8.8-7.3,0-11.6-1.9-4.9-2.4-9.6-5.2-15.1-6a9.39,9.39,0,0,0-2.9,0,.62.62,0,0,1-.7-.2.92.92,0,0,1-.2-1,18.29,18.29,0,0,0,1.4-2.8c1.9-5.1-3.5-9.7-7.4-12.3l.6-1h0l.4.3Z" transform="translate(-157.39 -136.12)"/></g><g id="Hair_ear" data-name="Hair ear"><path id="Ear_lobe" data-name="Ear lobe" class="cls-3" d="M343,280.1c4.2-9.5,14-20.4,25-10.4,14.7,13.3,15,22.8,12.5,30.7a43.86,43.86,0,0,1-2.6,6.1c-5.8,11.9-18.3,30.3-23.7,25.5-9.2-8.2,0-15,7.6-21.2,3.4-2.7,6.4-5.3,7.3-7.9a37.08,37.08,0,0,0,1.8-5.7c5.4-21.3-9.6-28.2-15.8-7.7" transform="translate(-157.39 -136.12)"/><path class="cls-4" d="M368,310.1c-.8.3-1.5.5-2.4.8a22.54,22.54,0,0,1-3.6.6l.4-1.1a26.67,26.67,0,0,0,5.6-.3Z" transform="translate(-157.39 -136.12)"/><path id="Ear_hole" data-name="Ear hole" class="cls-3" d="M371,297.3a52.71,52.71,0,0,1-1.8,5.7c-1,2.5-4,5.1-7.3,7.9-4.9-.2-10-2.7-8.5-13.1a40.64,40.64,0,0,1,1.8-8.1c6.2-20.5,21.1-13.6,15.8,7.6Z" transform="translate(-157.39 -136.12)"/><g id="Ear_loop" data-name="Ear loop"><path class="cls-2" d="M348.5,290.7c-1.2,1.3-2.1,3-4,2.9s-3.2-2-3.8-3.6c-1.1-3.6.5-7.2,1.4-10.7l.7-.3c2.9-.6,5.2-1.9,8.3-2.3,5.2-.3,2.2,5.7,1,8.3-.1-.1-2.1,3.9-3.6,5.7Zm3.1-11.6c-2.7.1-4.3-1.3-7.4.8l-2,1.2a16.6,16.6,0,0,0-1.8,6c-.1,2.9,2.3,7.1,5.4,5.7,2.8-1.6,4.7-8.5,4.7-8.5s1.5-4,1.2-5.2Z" transform="translate(-157.39 -136.12)"/></g><g id="Hair"><path class="cls-1" d="M523,371.6c-7.7,21.3-48.2,40.9-68,50.8-12.9,6.1-26,12.7-40.3,14.6a125.28,125.28,0,0,1-63.6-7.3c-3.2-1.4-15-6.6-9.4-11a27.81,27.81,0,0,1,4-1.6c7.3-2.9,13.9-7.4,20-12.4,13.2-10.9,17.9-17.8,19.6-35.1,1.7-21.3-2.3-40.9-8.2-61.3,2.8-5.5,5.4-12.2,3.8-18.2-1.9-7.3-8.4-14.3-13.8-19.3-6.4-5.9-13.2-4-18.3,2.4-2,2.4-2.9,4.3-5.4,7.3-2.7,1.8-4.1,2.5-7,1.4l-1-.3c-7.9-3-27.3-10.9-30.1,1.8-.4,1.7-.3,3.4-.7,5.1-1.7,9-11.6,9-18.5,6.8a81.45,81.45,0,0,1-19-8.6l-.3-.2-.2-.3c-1.8-3.5-5.6-7.3-9.8-6-3.4.8-5.4,4.4-8.6,5.9-10.3,4.3-20.7-11.3-25.3-18.7,0,0-2.4-4.5-2.4-4.6l4.1,2.9a8,8,0,0,0,9.1-.5c4.3-3,6.9-8.3,8.6-13.2a18.43,18.43,0,0,0,1-5.2c.3-18-23.8-23.6-37.9-25.3h-.8l-5.5,29.9-.6,3.6-1.8-3.1c-.6-1-1.9-2.1-3.2-1.9-2.6.6-5.3,4.2-5.6,6.9-.3,2.9,1.3,5.9,3,8.1.1.2.9,1,.6,1.2a2.81,2.81,0,0,1-.8.1c-5.7-.6-9.8-8.1-10.7-11.3-7.9-12.4-8.7-27.7-1.1-40.4,6.9-11.8,19.8-27.1,33.3-30l.3-.1c28.8-35.7,73.1-50.6,117.7-46.1,5.5.5,14.5,1.8,18.3,2.9a82,82,0,0,1,24.2,1.3c23.7,4.9,46.4,22.1,64.3,38.1,36.9,34.1,72.8,124.3,79.2,174.1.3,2,.4,4,.5,6a6.84,6.84,0,0,0,.6,2.9c1.5,2.4,6.7,4,5.7,7.9Zm-2.4-.8a1.11,1.11,0,0,0-.3-1c-1.6-1.8-3.8-2.9-5.1-5.2a8.19,8.19,0,0,1-1-4c-.2-2-.2-3.9-.5-5.9-6.3-49.2-41.9-138.8-78.4-172.5-18.7-16.7-42.7-34.4-67.7-38.3a86.27,86.27,0,0,0-19-.4,126.44,126.44,0,0,0-18.6-2.9c-43.8-4.3-87.5,10.5-115.8,45.5l-.3.4-.4.1c-12.7,2.9-25.8,17.9-32.3,29.1-7.1,12-6.3,26.4,1.2,38,.8,4.3,3.5,10.6,7.9,12.3.4.1-4.2-6-3.9-9.4.3-3.6,3.2-7.8,6.8-8.8a5.69,5.69,0,0,1,5.7,2.6l.2.8,3.6-31.6.1-1.3c7.8,1.1,12.8,2.9,20.1,5.6,12,4.5,25.7,13.6,20.5,28.3-1.9,5.2-4.4,10.7-8.7,14.1-3.1,2.6-6.1,3.3-9.7,1.3l-.9-.2a44.18,44.18,0,0,0,17.2,16c7.1,3.2,8.7-4.2,14.8-5.8a9.4,9.4,0,0,1,7.8,1.4,13.48,13.48,0,0,1,4.5,5.3l.3.2c7.2,4.1,24.2,13.6,31.5,7.2,2.4-2.3,2.1-5.9,2.7-9a10.21,10.21,0,0,1,2.5-5.1c7.5-8.1,24-1.2,30.5,1.4,2.1.8,3.4.6,5.8.1l1.1-.8a23,23,0,0,1,4.3-6.8c6-7.4,14.5-9.5,21.9-2.6,5.8,5.4,11.5,11.6,13.5,19.5,1.7,6.4-.3,12.5-3.2,18.2l.1.5c7.1,24.9,14.9,59.7,3,83.8-3.9,6.3-9.3,11.1-14.9,15.8-7,5.6-14.7,10.8-23.3,13.7-.7.2-1.3.6-1.2.7-.1,0,.1.6.6,1.1,2.2,2.3,5.7,3.8,8.7,5.1a122.31,122.31,0,0,0,62.2,7.2c14.1-1.9,26.9-8.4,39.6-14.4,19.2-9.6,59-28.9,66.5-49.3Z" transform="translate(-157.39 -136.12)"/></g></g><g id="BO"><line id="Crochet_1" data-name="Crochet 1" class="cls-5" x1="201.31" y1="188.88" x2="201.91" y2="212.88"/><line id="Crochet_2" data-name="Crochet 2" class="cls-5" x1="201.91" y1="228.78" x2="202.41" y2="248.98"/><circle id="BO_pièce_2" data-name="BO pièce 2" class="cls-6" cx="202.51" cy="262.88" r="15.6"/><path id="BO_pièce_1" data-name="BO pièce 1" class="cls-6" d="M359,349a28.34,28.34,0,0,0-28.3,28.3h56.5A28.13,28.13,0,0,0,359,349Z" transform="translate(-157.39 -136.12)"/></g></g></svg>