<?xml version="1.0" encoding="UTF-8" standalone="no"?>
<!-- Created with Inkscape (http://www.inkscape.org/) -->

<svg
   width="766.91504mm"
   height="96.409859mm"
   viewBox="0 0 766.91504 96.409859"
   version="1.1"
   id="svg5"
   xml:space="preserve"
   xmlns="http://www.w3.org/2000/svg"
   xmlns:svg="http://www.w3.org/2000/svg"><defs
     id="defs2" /><g
     id="layer1"
     transform="translate(313.49344,-179.31976)"><path
       id="path15484"
       style="color:#000000;fill:#f99300;stroke-width:0.972819;-inkscape-stroke:none"
       d="m 326.82283,179.31976 c -3.34761,2.23767 -6.43089,4.53767 -9.7359,6.7577 -9.45668,6.35226 -19.80708,12.21807 -22.32716,12.9965 -9.0022,2.78072 -26.87217,5.45683 -43.35833,5.89298 -23.51925,0.62221 -52.68397,-2.33373 -84.22694,3.97363 -32.36835,6.47243 -58.26347,20.53804 -75.997386,28.5943 -17.47709,7.93959 -31.221236,18.86611 -61.786089,20.10796 -14.413358,0.58563 -39.2320294,-2.58305 -62.283777,-6.81764 -23.051748,-4.2346 -43.008949,-9.11215 -59.647541,-11.11279 -32.761967,-3.93931 -69.634757,-4.74671 -98.553197,-2.86747 -28.76148,1.86904 -64.32827,9.11051 -91.59691,20.60467 -10.25923,4.32444 -18.80229,9.98173 -26.41163,15.20254 -1.52996,1.04972 -2.97436,2.07196 -4.39141,3.07747 h 53.68602 c 1.17407,-0.60909 2.25287,-1.13907 3.1175,-1.50353 19.23687,-8.10864 52.3049,-14.78062 70.71101,-15.97672 22.76556,-1.4794 57.15104,-0.76357 84.14547,2.48227 6.849223,0.82356 30.347573,5.87251 55.198025,10.43751 8.782263,1.6133 17.910027,3.20654 27.213744,4.56047 h 80.87512 c 32.449595,-6.46974 51.896041,-19.65979 56.892571,-21.92963 19.53039,-8.87238 44.58976,-20.90981 63.636,-24.71832 18.26289,-3.65188 41.83987,-1.78778 71.51376,-2.57281 22.48371,-0.59481 44.66508,-3.41511 62.34441,-8.87615 15.68956,-4.84639 24.55855,-12.03872 33.91992,-18.32695 9.36136,-6.28822 20.26315,-11.47338 19.18125,-11.21547 17.86857,-4.2594 54.31692,-6.29454 82.25892,-8.77052 z" /><path
       id="path15482"
       style="color:#000000;fill:#a3baa6;stroke-width:0.972819;-inkscape-stroke:none"
       d="m 394.93424,179.31976 c -9.84838,2.26986 -19.30132,5.03605 -27.71901,8.42512 -16.88426,6.7978 -25.7657,14.23707 -31.65758,19.18037 -5.89186,4.94331 -7.79996,6.61231 -13.9214,8.20926 -14.38435,3.75252 -35.5865,4.50814 -58.8448,4.47999 -23.2583,-0.0281 -47.98339,-1.0344 -71.68176,3.51801 -20.95325,4.02509 -35.9093,10.43754 -48.29164,16.74211 -12.38234,6.30456 -22.68624,12.47066 -36.51447,18.16348 -5.34306,2.19965 -44.482572,14.7878 -83.979993,15.17404 -18.1247445,0.17724 -46.802263,-2.65399 -71.705767,-5.90682 -24.903499,-3.2528 -43.8551,-6.56384 -55.46645,-7.78674 -31.79405,-3.34853 -64.85396,-5.61678 -110.96446,-0.49377 -17.53372,1.94805 -33.42976,6.00313 -46.58384,10.49494 -6.00854,2.05177 -11.34528,4.06472 -16.06817,6.20986 h 408.48218 c 0.65706,-0.25871 1.34291,-0.52517 1.91623,-0.76119 17.25395,-7.10314 29.08186,-14.21213 39.77977,-19.65905 10.69789,-5.44692 19.77013,-9.26129 33.69381,-11.93602 11.40319,-2.19052 33.00184,-2.21783 57.2873,-2.18844 24.28544,0.0294 51.84859,-0.0803 77.4494,-6.75895 16.10059,-4.20029 24.5659,-11.09881 30.54473,-16.11505 5.97879,-5.01623 10.46429,-8.92788 21.80359,-13.4932 12.59896,-5.07251 39.73214,-9.60725 60.87534,-11.70631 l 0.0543,-13.79164 z" /><path
       id="path59174"
       style="color:#000000;fill:#f7ede0;stroke-width:0.972819;-inkscape-stroke:none"
       d="m 444.88695,187.42758 c -1.69175,-0.005 -3.39383,0.006 -5.10511,0.0335 -16.42823,0.27019 -33.72738,2.15589 -51.3144,7.26531 -20.46555,5.94571 -28.61172,10.84358 -39.59849,18.81277 -13.624,9.88206 -6.00516,11.90233 -29.21019,18.49294 -11.70549,3.32455 -32.24586,5.12524 -54.5456,6.36118 -22.29976,1.23592 -46.01095,1.9014 -67.53541,6.51878 -23.87577,5.1218 -41.79092,15.50601 -58.68437,24.16921 -4.68158,2.40078 -9.15737,4.65244 -13.32392,6.64831 h 59.99933 c 11.0647,-5.22832 21.23677,-9.47258 27.74553,-10.86884 11.71926,-2.51398 33.17102,-3.74314 56.16878,-5.01776 22.99775,-1.27462 47.88919,-2.59893 69.96133,-8.86776 32.67108,-9.2791 38.3805,-21.48766 43.00843,-24.84449 11.19544,-8.12052 8.08548,-7.31468 26.1451,-12.56139 14.60283,-4.24247 29.03976,-4.83854 44.7036,-4.09521 l 0.0872,-21.88604 c -2.80511,-0.09 -5.63555,-0.15191 -8.50177,-0.16054 z" /><path
       id="path3544"
       style="color:#000000;fill:#f49e5d;stroke-width:0.995668;-inkscape-stroke:none"
       d="m 436.64982,202.84472 c -12.43397,0.11153 -25.13064,1.61146 -37.66333,5.91058 -18.47788,6.33854 -26.99044,16.80967 -30.92241,23.31665 -3.93198,6.50699 -3.89626,8.11881 -10.81843,10.95057 -16.1637,6.61236 -30.90437,8.29624 -60.5867,9.28817 -21.69631,0.72507 -47.29783,1.20445 -75.62097,8.43142 -12.09898,3.0872 -24.45876,8.35901 -37.26479,14.9875 h 132.83185 c 22.77985,-1.47152 41.61427,-4.52027 59.87807,-11.99176 16.28539,-6.66213 22.24926,-17.03884 25.61394,-22.60701 3.36465,-5.56815 3.51943,-7.25752 13.72561,-10.75859 8.88929,-3.04931 21.71713,-2.79854 37.40248,-1.68502 l 0.10105,-25.26742 c -5.47968,-0.38682 -11.04962,-0.62555 -16.67637,-0.57509 z" /><path
       id="path59214"
       style="color:#000000;fill:#f0a77c;stroke-width:0.995668;-inkscape-stroke:none"
       d="m 447.3836,225.06945 c -1.34122,-0.008 -2.69421,0.003 -4.05919,0.0356 -7.27995,0.17242 -14.90816,0.94558 -22.99223,2.63904 -19.63222,4.11257 -28.63188,15.06379 -34.13528,21.55658 -5.50345,6.49278 -7.83884,9.71076 -18.91346,12.48093 -8.72656,2.18283 -25.83555,2.65153 -43.16822,2.77233 -17.33267,0.12081 -35.00933,-1.30487 -51.99526,6.56489 -3.02862,1.40319 -5.92198,2.95623 -8.73419,4.61076 h 138.18075 c 7.93643,-4.89889 13.0897,-10.37302 16.58605,-14.49792 5.96083,-7.0324 6.84116,-8.94645 13.21466,-10.28159 7.21748,-1.51193 14.16738,-1.60699 21.77328,-1.00221 l 0.0985,-24.71413 c -1.93087,-0.0878 -3.87662,-0.15269 -5.85543,-0.16431 z" /><path
       id="path374"
       style="color:#000000;fill:#f0a77c;stroke-width:0.995668;-inkscape-stroke:none"
       d="M 453.03882,275.62105 H 303.71691 c -0.37358,0.0383 -0.74572,0.0665 -1.11979,0.10856 h 150.44107 z" /><path
       id="path372"
       style="color:#000000;fill:#f0a77c;stroke-width:0.995668;-inkscape-stroke:none"
       d="m 453.15566,246.25969 c -0.51775,0.0192 -1.03115,0.0297 -1.55244,0.0566 -8.80371,0.45409 -18.08155,2.02346 -26.80448,5.3816 -16.84012,6.4831 -25.87661,12.40673 -30.66472,15.08182 -4.78806,2.67506 -5.41166,3.34399 -18.34944,5.56394 -9.30213,1.59607 -26.82382,1.91087 -44.48129,2.29406 -9.07326,0.1969 -18.25397,0.026 -27.58638,0.98335 h 149.32191 z" /></g></svg>
