<?xml version="1.0" encoding="UTF-8" standalone="no"?>
<!-- Created with Inkscape (http://www.inkscape.org/) -->

<svg
   width="95.91452mm"
   height="95.914536mm"
   viewBox="0 0 95.91452 95.914536"
   version="1.1"
   id="svg30388"
   sodipodi:docname="flower.1.svg"
   xmlns:inkscape="http://www.inkscape.org/namespaces/inkscape"
   xmlns:sodipodi="http://sodipodi.sourceforge.net/DTD/sodipodi-0.dtd"
   xmlns="http://www.w3.org/2000/svg"
   xmlns:svg="http://www.w3.org/2000/svg">
  <sodipodi:namedview
     id="namedview40479"
     pagecolor="#505050"
     bordercolor="#ffffff"
     borderopacity="1"
     inkscape:showpageshadow="0"
     inkscape:pageopacity="0"
     inkscape:pagecheckerboard="1"
     inkscape:deskcolor="#505050"
     inkscape:document-units="mm"
     showgrid="false" />
  <defs
     id="defs30385" />
  <g
     id="layer1"
     transform="translate(-48.011037,-59.671327)">
    <path
       id="path32430"
       style="fill:none;stroke:#a3baa6;stroke-width:0.893677"
       d="m 143.47872,107.62859 c 0,7.42161 -5.2248,13.43802 -15.23713,13.43802 -10.01235,0 -31.431256,-13.43802 -31.431256,-13.43802 0,0 21.418906,-13.438028 31.431256,-13.438028 10.01233,0 15.23713,6.016408 15.23713,13.438028 z" />
    <path
       id="path38427"
       style="fill:none;stroke:#a3baa6;stroke-width:0.893677"
       d="m 129.56323,74.033644 c 5.24788,5.24787 5.80763,13.19661 -1.27215,20.276388 -7.0798,7.079808 -31.727372,12.723158 -31.727372,12.723158 0,0 5.643342,-24.647587 12.723132,-31.727387 7.07979,-7.079783 15.02852,-6.520037 20.27639,-1.272159 z" />
    <path
       id="path38429"
       style="fill:none;stroke:#a3baa6;stroke-width:0.893677"
       d="m 95.968299,60.118165 c 7.421601,-4e-6 13.438011,5.224803 13.438011,15.237126 0,10.012349 -13.438006,31.431269 -13.438006,31.431269 0,0 -13.438027,-21.418919 -13.438029,-31.431267 5e-6,-10.012329 6.016405,-15.23713 13.438024,-15.237128 z" />
    <path
       id="path38431"
       style="fill:none;stroke:#a3baa6;stroke-width:0.893677"
       d="m 62.373356,74.033649 c 5.247868,-5.247875 13.196611,-5.807623 20.276393,1.272158 7.079798,7.079799 12.723151,31.727383 12.723151,31.727383 0,0 -24.647584,-5.64335 -31.727385,-12.723148 -7.079783,-7.079788 -6.520038,-15.028517 -1.272159,-20.276393 z" />
    <path
       id="path38433"
       style="fill:none;stroke:#a3baa6;stroke-width:0.893677"
       d="m 48.457875,107.62859 c -3e-6,-7.42161 5.224805,-13.438018 15.237128,-13.438018 10.012347,0 31.431272,13.438018 31.431272,13.438018 0,0 -21.418922,13.43803 -31.431271,13.43803 -10.01233,-1e-5 -15.23713,-6.01641 -15.237129,-13.43803 z" />
    <path
       id="path38435"
       style="fill:none;stroke:#a3baa6;stroke-width:0.893677"
       d="m 62.373356,141.22353 c -5.24787,-5.24787 -5.80762,-13.1966 1.272162,-20.27638 7.079798,-7.0798 31.727381,-12.72316 31.727381,-12.72316 0,0 -5.643345,24.64759 -12.723143,31.72739 -7.079793,7.07978 -15.028519,6.52004 -20.2764,1.27215 z" />
    <path
       id="path38437"
       style="fill:none;stroke:#a3baa6;stroke-width:0.893677"
       d="m 95.968299,155.13902 c -7.421607,0 -13.438017,-5.22481 -13.438016,-15.23713 10e-7,-10.01234 13.438019,-31.43127 13.438019,-31.43127 0,0 13.438018,21.41892 13.438018,31.43127 -10e-6,10.01233 -6.0164,15.23713 -13.438021,15.23713 z" />
    <path
       id="path38439"
       style="fill:none;stroke:#a3baa6;stroke-width:0.893677"
       d="m 129.56323,141.22354 c -5.24786,5.24787 -13.1966,5.80761 -20.27638,-1.27217 -7.0798,-7.0798 -12.723145,-31.72738 -12.723145,-31.72738 0,0 24.647585,5.64335 31.727375,12.72315 7.07978,7.07979 6.52004,15.02852 1.27215,20.2764 z" />
    <ellipse
       style="fill:#819e80;fill-opacity:1;stroke:none;stroke-width:68.6588"
       id="path30561"
       cx="95.987846"
       cy="107.63383"
       rx="20.57922"
       ry="19.955606"
       sodipodi:insensitive="true" />
  </g>
</svg>
