<?xml version="1.0" encoding="UTF-8" standalone="no"?>
<!-- Created with Inkscape (http://www.inkscape.org/) -->

<svg
   width="168.46913mm"
   height="241.59596mm"
   viewBox="0 0 168.46913 241.59596"
   version="1.1"
   id="svg5"
   xml:space="preserve"
   sodipodi:docname="Avatar-François-2.svg"
   inkscape:version="1.2.2 (732a01da63, 2022-12-09)"
   xmlns:inkscape="http://www.inkscape.org/namespaces/inkscape"
   xmlns:sodipodi="http://sodipodi.sourceforge.net/DTD/sodipodi-0.dtd"
   xmlns="http://www.w3.org/2000/svg"
   xmlns:svg="http://www.w3.org/2000/svg"><sodipodi:namedview
     id="namedview23"
     pagecolor="#505050"
     bordercolor="#ffffff"
     borderopacity="1"
     inkscape:showpageshadow="0"
     inkscape:pageopacity="0"
     inkscape:pagecheckerboard="1"
     inkscape:deskcolor="#505050"
     inkscape:document-units="mm"
     showgrid="false"
     inkscape:zoom="0.5749527"
     inkscape:cx="123.48842"
     inkscape:cy="457.42894"
     inkscape:window-width="1366"
     inkscape:window-height="705"
     inkscape:window-x="-8"
     inkscape:window-y="-8"
     inkscape:window-maximized="1"
     inkscape:current-layer="svg5" /><defs
     id="defs2" /><g
     id="layer1"
     transform="translate(-24.675248,-27.338638)"><path
       id="rect18931"
       style="opacity:1;fill:#595147;fill-opacity:1;stroke:none;stroke-width:1.32954;stroke-opacity:1"
       d="M 95.629841,31.923244 C 89.44426,31.859594 79.526234,26.293127 73.344284,34.82394 69.482374,40.1532 52.919208,41.710656 50.713323,53.298222 48.024984,67.420129 41.72496,78.923825 41.72496,84.746917 c 0,0 3.206535,16.598993 3.811641,28.986243 26.526483,66.56226 99.845849,61.10371 126.031459,0.87003 2.21407,-5.20145 -0.031,-14.4672 0.38567,-21.217216 0.31515,-5.10497 4.09689,-13.688019 4.09689,-13.688019 0.59291,-6.183111 -4.96166,-11.789841 -6.85577,-23.225817 C 167.62977,47.0227 153.17289,42.465986 147.42979,36.802673 136.0978,25.628101 127.9933,30.848452 120.71774,30.526596 98.504986,22.746046 118.81508,31.61574 95.629841,31.923244 Z" /><path
       id="rect4036"
       style="fill:#ffffff;stroke:#e8b66d;stroke-width:2.17757;stroke-dasharray:none;stroke-opacity:1"
       d="m 91.438483,156.74389 v 38.1058 c -35.289415,8.00557 -64.527615,39.14028 -65.477499,72.83492 H 191.85865 c -0.94988,-33.69492 -30.18783,-64.8304 -65.4775,-72.83565 v -38.10507 z" /><path
       id="path4084"
       style="fill:#d19c51;fill-opacity:1;stroke:none;stroke-width:2.1446;stroke-dasharray:none;stroke-opacity:1"
       d="m 91.963505,156.74389 0.70377,9.74354 33.188855,16.5432 v -26.28674 z" /><path
       id="path4067"
       style="fill:#89a489;fill-opacity:1;stroke:#89a489;stroke-width:2.5;stroke-dasharray:none;stroke-opacity:1"
       d="m 149.04696,203.54539 c -10.13049,12.92627 -23.79709,22.01438 -40.13752,22.01438 -16.340254,0 -30.006317,-9.08763 -40.136755,-22.01365 -24.356307,13.46594 -42.07574,38.03219 -42.811701,64.13849 H 191.85865 C 191.12268,241.5781 173.40331,217.0114 149.04696,203.54539 Z" /><path
       id="path238"
       style="fill:#ffffff;stroke:#e9b66d;stroke-width:2.10825;stroke-dasharray:none;stroke-opacity:1"
       d="m 163.78586,92.567729 c 0,32.275881 -21.28277,77.977931 -54.87605,77.977931 -33.59326,0 -54.876036,-45.70205 -54.876035,-77.977931 3e-6,-32.275889 21.282778,-50.033288 54.876035,-50.033291 33.59326,10e-7 54.87605,17.757402 54.87605,50.033291 z" /><path
       id="path4090"
       style="fill:#595147;fill-opacity:1;stroke:none;stroke-width:2.05431;stroke-dasharray:none;stroke-opacity:1"
       d="m 108.70611,37.298296 c -47.247868,0.929385 -68.019567,41.819431 -53.64199,74.775174 3.850554,-0.82831 0.473251,-50.499811 27.572025,-46.431141 7.016043,1.053405 18.414595,5.382695 25.178115,5.097182 6.41428,-0.270771 16.17821,-4.242376 21.53007,-5.579634 28.98992,-7.243648 23.49027,33.052825 32.8551,44.462563 C 182.60726,63.204749 136.2998,37.710233 108.70611,37.298296 Z" /><path
       id="path51222-4"
       style="fill:none;stroke:#89a489;stroke-width:5.03926;stroke-dasharray:none;stroke-opacity:1"
       d="m 47.919237,113.09514 a 62.952094,62.138745 0 0 1 -1.543798,-13.676923 62.952094,62.138745 0 0 1 62.952091,-62.138745 62.952094,62.138745 0 0 1 62.9521,62.138745 v 0 a 62.952094,62.138745 0 0 1 -1.5438,13.676893" /><path
       style="fill:#89a489;fill-opacity:1;stroke:none;stroke-width:4.31009;stroke-opacity:0.467948"
       d="m 37.51287,111.43802 7.929796,-6.88223 a 2.9264161,2.9264161 0 0 1 4.783871,1.61721 l 6.978273,33.72824 a 4.2781013,4.2781013 0 0 1 -3.976353,5.13956 l -7.464936,0.37217 a 5.9469522,5.9469522 0 0 1 -6.095177,-4.62156 l -4.820521,-21.20948 a 8.3368326,8.3368326 0 0 1 2.665047,-8.14391 z"
       id="path63996" /><path
       style="fill:#f3e2ce;fill-opacity:1;stroke:none;stroke-width:4.31009;stroke-opacity:0.467948"
       d="m 55.744758,100.16162 c -1.481489,0.41277 -3.154835,0.6737 -4.303508,1.84774 -0.981822,1.28299 -0.51305,3.00989 -0.173276,4.44659 2.511644,12.17408 4.97527,24.36181 7.533005,36.52346 0.54393,1.52215 2.374329,1.65019 3.646023,1.27736 1.384326,-0.2541 3.175001,-0.80435 3.533092,-2.48711 0.179047,-1.59106 -0.499277,-3.09958 -0.707748,-4.6528 -2.440788,-11.79485 -4.806595,-23.61267 -7.315214,-35.38811 -0.369517,-0.91726 -1.256521,-1.62801 -2.212374,-1.56713 z"
       id="path63994" /><path
       style="fill:#89a489;fill-opacity:1;stroke:none;stroke-width:4.31009;stroke-opacity:0.467948"
       d="m 181.1422,111.43802 -7.92981,-6.88223 a 2.9264236,2.9264236 0 0 0 -4.78388,1.61721 l -6.97833,33.72824 a 4.2780941,4.2780941 0 0 0 3.97635,5.13956 l 7.46503,0.37217 a 5.9469529,5.9469529 0 0 0 6.09518,-4.62156 l 4.82051,-21.20948 a 8.3368262,8.3368262 0 0 0 -2.66505,-8.14391 z"
       id="path63992" /><path
       style="fill:#f3e3cc;fill-opacity:1;stroke:none;stroke-width:4.31009;stroke-opacity:0.467948"
       d="m 162.91025,100.16162 c 1.4815,0.41277 3.15486,0.6737 4.30354,1.84774 0.98182,1.28299 0.51305,3.00989 0.17328,4.44659 -2.51166,12.17408 -4.9753,24.36181 -7.53306,36.52346 -0.54394,1.52215 -2.37437,1.65019 -3.64607,1.27736 -1.38434,-0.2541 -3.17504,-0.80435 -3.53313,-2.48711 -0.17905,-1.59106 0.49928,-3.09958 0.70775,-4.6528 2.44082,-11.79485 4.80665,-23.61267 7.3153,-35.38811 0.36952,-0.91726 1.25654,-1.62801 2.21239,-1.56713 z"
       id="path63842" /></g></svg>
