<?xml version="1.0" encoding="UTF-8" standalone="no"?>
<!-- Created with Inkscape (http://www.inkscape.org/) -->

<svg
   width="157.56995mm"
   height="232.32002mm"
   viewBox="0 0 157.56995 232.32003"
   version="1.1"
   id="svg5"
   xml:space="preserve"
   sodipodi:docname="Avatar-Flavie.svg"
   xmlns:inkscape="http://www.inkscape.org/namespaces/inkscape"
   xmlns:sodipodi="http://sodipodi.sourceforge.net/DTD/sodipodi-0.dtd"
   xmlns="http://www.w3.org/2000/svg"
   xmlns:svg="http://www.w3.org/2000/svg"><sodipodi:namedview
     id="namedview64720"
     pagecolor="#505050"
     bordercolor="#ffffff"
     borderopacity="1"
     inkscape:showpageshadow="0"
     inkscape:pageopacity="0"
     inkscape:pagecheckerboard="1"
     inkscape:deskcolor="#505050"
     inkscape:document-units="mm"
     showgrid="false" /><defs
     id="defs2" /><g
     id="layer1"
     transform="translate(-29.846831,-22.831195)"
     inkscape:export-filename="Avatar-Flavie-2.svg"
     inkscape:export-xdpi="96"
     inkscape:export-ydpi="96"><path
       id="rect18931"
       style="opacity:1;fill:#ffa024;fill-opacity:1;stroke:none;stroke-width:1.58918;stroke-opacity:1"
       d="m 108.66009,22.831195 c -37.156229,0 -67.069334,28.827849 -67.069334,64.636065 0,0 8.920495,35.07133 3.822582,51.85691 -1.167367,3.84372 -9.843328,6.61749 -7.545096,10.08646 22.870482,34.52085 120.101488,35.13943 141.582528,0 1.98033,-3.2395 -6.43347,-5.35248 -7.64421,-8.84699 -5.90107,-17.03209 3.9217,-53.09638 3.9217,-53.09638 2.4133,-35.751308 -29.91191,-64.636065 -67.06817,-64.636065 z" /><g
       id="g27322"
       style="stroke:#e8b66d;stroke-opacity:1"
       transform="matrix(1.4054993,0,0,1.4054993,-33.842628,-73.027989)"><g
         id="g18891"
         transform="translate(0.02180292)"
         style="stroke:#e8b66d;stroke-opacity:1"><ellipse
           style="opacity:1;fill:#ffffff;stroke:#e8b66d;stroke-width:1.51839;stroke-dasharray:none;stroke-opacity:1"
           id="path4100"
           cx="65.349594"
           cy="115.15224"
           rx="8.3193417"
           ry="8.1190643"
           transform="matrix(0.97592637,0.21810027,0,1,0,0)" /><path
           style="opacity:1;fill:#000000;stroke:#e8b66d;stroke-width:0.7;stroke-dasharray:none;stroke-opacity:1"
           d="M 66.920463,131.13401 59.303675,128.127"
           id="path13735" /></g><g
         id="g18897"
         transform="matrix(-1,0,0,1,202.71672,0)"
         style="stroke:#e8b66d;stroke-opacity:1"><ellipse
           style="opacity:1;fill:#ffffff;stroke:#e8b66d;stroke-width:1.51839;stroke-dasharray:none;stroke-opacity:1"
           id="ellipse18893"
           cx="65.349594"
           cy="115.15224"
           rx="8.3193417"
           ry="8.1190643"
           transform="matrix(0.97592637,0.21810027,0,1,0,0)" /><path
           style="opacity:1;fill:#000000;stroke:#e8b66d;stroke-width:0.7;stroke-dasharray:none;stroke-opacity:1"
           d="M 66.920463,131.13401 59.303675,128.127"
           id="path18895" /></g></g><path
       id="rect4036"
       style="fill:#ffffff;stroke:#e8b66d;stroke-width:2.10825;stroke-dasharray:none;stroke-opacity:1"
       d="m 92.26546,143.08612 v 38.12993 C 59.207955,189.22669 31.81895,220.38112 30.929143,254.0971 H 186.33447 c -0.88981,-33.71626 -28.27858,-64.87146 -61.33632,-72.88178 v -38.1292 z" /><path
       id="path4084"
       style="fill:#d19c51;fill-opacity:1;stroke:none;stroke-width:2.07633;stroke-dasharray:none;stroke-opacity:1"
       d="m 92.75727,143.08612 0.65926,9.74971 31.08981,16.55368 v -26.30339 z" /><path
       id="path4067"
       style="fill:#f0d3a4;fill-opacity:1;stroke:#f0d3a5;stroke-width:2.108;stroke-dasharray:none;stroke-opacity:1"
       d="m 146.23044,189.91726 c -9.48978,12.93446 -22.29202,22.02832 -37.59899,22.02832 -15.3068,0 -28.108541,-9.09338 -37.59827,-22.02759 -22.815871,13.47447 -39.414623,38.05628 -40.104037,64.17911 H 186.33447 c -0.68942,-26.12304 -17.28812,-50.7053 -40.10403,-64.17984 z"
       inkscape:export-filename=".\Avatar-Flavie-2.svg"
       inkscape:export-xdpi="96"
       inkscape:export-ydpi="96" /><path
       id="path238"
       style="fill:#ffffff;stroke:#e9b66d;stroke-width:2.10825;stroke-dasharray:none;stroke-opacity:1"
       d="m 163.50785,78.945085 c 0,32.275885 -21.28277,77.977935 -54.87605,77.977935 -33.593267,0 -54.876043,-45.70205 -54.876042,-77.977935 3e-6,-32.275889 21.282778,-50.033288 54.876042,-50.033291 33.59326,1e-6 54.87605,17.757402 54.87605,50.033291 z" /><path
       id="path4090"
       style="fill:#ffa024;fill-opacity:1;stroke:none;stroke-width:2.20356;stroke-dasharray:none;stroke-opacity:1"
       d="m 108.63142,26.22051 c -35.111963,3e-6 -57.356678,18.559652 -57.356682,52.294674 0,2.823564 4.627337,27.329586 4.933502,30.313496 12.413956,-3.57218 31.35416,-35.45113 50.77452,-69.412622 17.32172,32.733325 37.53003,60.973842 56.22996,64.493762 0.30618,-2.98391 2.77614,-22.571072 2.77614,-25.394636 0,-33.735022 -22.24548,-52.294673 -57.35744,-52.294674 z" /><g
       id="g30562"
       transform="matrix(1.4054993,0,0,1.4054993,-33.790873,-73.027989)"
       style="fill:none;fill-opacity:1;stroke:#819e80;stroke-width:1.13839;stroke-dasharray:none;stroke-opacity:1"><g
         id="g29827"
         transform="translate(1.7652209)"
         style="fill:none;fill-opacity:1;stroke:#819e80;stroke-width:1.13839;stroke-dasharray:none;stroke-opacity:1"><path
           id="path28692"
           style="opacity:1;fill:none;fill-opacity:1;stroke:#819e80;stroke-width:1.13839;stroke-dasharray:none;stroke-opacity:1"
           d="M 96.548284,124.79066 A 14.142163,14.142163 0 0 1 82.40612,138.93282 14.142163,14.142163 0 0 1 68.263957,124.79066 14.142163,14.142163 0 0 1 82.40612,110.64849 14.142163,14.142163 0 0 1 96.548284,124.79066 Z" /><path
           id="circle29819"
           style="opacity:1;fill:none;fill-opacity:1;stroke:#819e80;stroke-width:1.13839;stroke-dasharray:none;stroke-opacity:1"
           d="m 130.94413,124.79066 a 14.142163,14.142163 0 0 1 -14.14217,14.14216 14.142163,14.142163 0 0 1 -14.14216,-14.14216 14.142163,14.142163 0 0 1 14.14216,-14.14217 14.142163,14.142163 0 0 1 14.14217,14.14217 z" /></g><path
         style="opacity:1;fill:none;fill-opacity:1;stroke:#819e80;stroke-width:1.13839;stroke-dasharray:none;stroke-opacity:1"
         d="m 96.599034,125.73418 c 3.260635,0.24364 6.494106,-0.15689 9.748936,0.0438"
         id="path30016" /><path
         style="opacity:1;fill:none;fill-opacity:1;stroke:#819e80;stroke-width:1.13839;stroke-dasharray:none;stroke-opacity:1"
         d="m 132.89022,125.14464 c 0.28575,-0.11804 0.58195,-0.20379 0.85726,-0.35414 0.62543,-0.34155 1.41402,-0.91208 2.10337,-1.27745 1.32076,-0.70008 2.74513,-1.22316 4.02617,-2.03635 0.44788,-0.28431 0.86228,-0.59964 1.3341,-0.79656"
         id="path30018" /><path
         style="opacity:1;fill:none;fill-opacity:1;stroke:#819e80;stroke-width:1.13839;stroke-dasharray:none;stroke-opacity:1"
         d="m 69.774614,125.14464 c -0.28575,-0.11804 -0.581947,-0.20379 -0.857257,-0.35414 -0.625427,-0.34155 -1.414011,-0.91208 -2.103358,-1.27745 -1.320751,-0.70008 -2.745115,-1.22316 -4.026146,-2.03635 -0.447877,-0.28431 -0.862277,-0.59964 -1.334094,-0.79656"
         id="path30033" /></g></g></svg>
