<?xml version="1.0" encoding="UTF-8" standalone="no"?>
<!-- Created with Inkscape (http://www.inkscape.org/) -->

<svg
   width="168.46915mm"
   height="249.41473mm"
   viewBox="0 0 168.46915 249.41474"
   version="1.1"
   id="svg5"
   inkscape:version="1.2.2 (732a01da63, 2022-12-09)"
   sodipodi:docname="Avatar-Benjamin-2.svg"
   xml:space="preserve"
   xmlns:inkscape="http://www.inkscape.org/namespaces/inkscape"
   xmlns:sodipodi="http://sodipodi.sourceforge.net/DTD/sodipodi-0.dtd"
   xmlns="http://www.w3.org/2000/svg"
   xmlns:svg="http://www.w3.org/2000/svg"><sodipodi:namedview
     id="namedview7"
     pagecolor="#505050"
     bordercolor="#ffffff"
     borderopacity="1"
     inkscape:showpageshadow="0"
     inkscape:pageopacity="0"
     inkscape:pagecheckerboard="1"
     inkscape:deskcolor="#505050"
     inkscape:document-units="mm"
     showgrid="false"
     inkscape:zoom="0.47584683"
     inkscape:cx="471.79048"
     inkscape:cy="586.32313"
     inkscape:window-width="1366"
     inkscape:window-height="705"
     inkscape:window-x="-8"
     inkscape:window-y="-8"
     inkscape:window-maximized="1"
     inkscape:current-layer="layer1"
     showguides="false"><inkscape:grid
       type="xygrid"
       id="grid4038" /></sodipodi:namedview><defs
     id="defs2" /><g
     inkscape:label="Calque 1"
     inkscape:groupmode="layer"
     id="layer1"
     transform="translate(-24.675249,-19.519868)"><path
       id="rect18931"
       style="opacity:1;fill:#d2a66c;fill-opacity:1;stroke:none;stroke-width:1.25653;stroke-opacity:1"
       d="M 109.10645,39.42347 C 102.37493,39.112755 91.302725,34.767741 76.263065,39.216069 63.868652,42.882004 47.008236,76.503528 47.008236,87.411277 c 0,0 0.09212,19.390303 3.526606,27.983063 24.542832,64.25863 92.379368,58.98899 116.606818,0.83992 3.59776,-8.8191 3.61805,-28.822983 3.61805,-28.822983 1.17668,-12.803832 -17.99468,-45.691526 -30.90657,-49.07096 -14.55319,-3.809017 -24.01519,1.393867 -30.74669,1.08315 z"
       sodipodi:nodetypes="zssccsszz"
       inkscape:export-filename="Avatar-Benjaminpng.svg"
       inkscape:export-xdpi="96"
       inkscape:export-ydpi="96" /><g
       id="g27322"
       style="stroke:#e8b66d;stroke-opacity:1"
       transform="matrix(1.4054993,0,0,1.4054993,-33.564607,-59.405345)"><g
         id="g18891"
         transform="translate(0.02180292)"
         style="stroke:#e8b66d;stroke-opacity:1"><ellipse
           style="opacity:1;fill:#ffffff;stroke:#e8b66d;stroke-width:1.51839;stroke-dasharray:none;stroke-opacity:1"
           id="path4100"
           cx="65.349594"
           cy="115.15224"
           rx="8.3193417"
           ry="8.1190643"
           transform="matrix(0.97592637,0.21810027,0,1,0,0)" /><path
           style="opacity:1;fill:#000000;stroke:#e8b66d;stroke-width:0.7;stroke-dasharray:none;stroke-opacity:1"
           d="M 66.920463,131.13401 59.303675,128.127"
           id="path13735" /></g><g
         id="g18897"
         transform="matrix(-1,0,0,1,202.71672,0)"
         style="stroke:#e8b66d;stroke-opacity:1"><ellipse
           style="opacity:1;fill:#ffffff;stroke:#e8b66d;stroke-width:1.51839;stroke-dasharray:none;stroke-opacity:1"
           id="ellipse18893"
           cx="65.349594"
           cy="115.15224"
           rx="8.3193417"
           ry="8.1190643"
           transform="matrix(0.97592637,0.21810027,0,1,0,0)" /><path
           style="opacity:1;fill:#000000;stroke:#e8b66d;stroke-width:0.7;stroke-dasharray:none;stroke-opacity:1"
           d="M 66.920463,131.13401 59.303675,128.127"
           id="path18895" /></g></g><path
       id="rect4036"
       style="fill:#ffffff;stroke:#e8b66d;stroke-width:2.17757;stroke-dasharray:none;stroke-opacity:1"
       d="m 91.438483,156.74389 v 38.1058 c -35.289415,8.00557 -64.527615,39.14028 -65.477499,72.83492 H 191.85865 c -0.94988,-33.69492 -30.18783,-64.8304 -65.4775,-72.83565 v -38.10507 z" /><path
       id="path4084"
       style="fill:#d19c51;fill-opacity:1;stroke:none;stroke-width:2.1446;stroke-dasharray:none;stroke-opacity:1"
       d="m 91.963506,156.74389 0.70377,9.74354 33.188854,16.5432 v -26.28674 z"
       sodipodi:nodetypes="ccccc" /><path
       id="path4067"
       style="fill:#a1bca6;fill-opacity:1;stroke:#a1bca6;stroke-width:2.5;stroke-dasharray:none;stroke-opacity:1"
       d="m 149.04696,203.54539 c -10.13049,12.92627 -23.79709,22.01438 -40.13752,22.01438 -16.340254,0 -30.006317,-9.08763 -40.136755,-22.01365 -24.356307,13.46594 -42.07574,38.03219 -42.811701,64.13849 H 191.85865 C 191.12268,241.5781 173.40331,217.0114 149.04696,203.54539 Z" /><path
       id="path238"
       style="fill:#ffffff;stroke:#e9b66d;stroke-width:2.10825;stroke-dasharray:none;stroke-opacity:1"
       d="m 163.78586,92.567729 c 0,32.275881 -21.28277,77.977931 -54.87605,77.977931 -33.593258,0 -54.876034,-45.70205 -54.876033,-77.977931 3e-6,-32.275889 21.282778,-50.033288 54.876033,-50.033291 33.59326,10e-7 54.87605,17.757402 54.87605,50.033291 z"
       sodipodi:nodetypes="sssss" /><path
       id="path4090"
       style="fill:#d2a66c;fill-opacity:1;stroke:none;stroke-width:2.28522;stroke-dasharray:none;stroke-opacity:1"
       d="m 108.66309,39.843154 c -35.111958,3e-6 -57.356673,19.960727 -57.356677,56.242418 0,3.036716 0.918363,19.649168 1.224528,22.858338 5.71719,-1.76935 18.956053,4.29573 26.766893,-6.43325 9.149141,-12.567206 8.717272,-41.377948 27.657666,-52.312905 18.975,11.405371 17.9793,41.216625 27.37362,52.724205 10.07758,12.34456 22.43049,4.08543 32.10855,6.04467 0.30618,-3.20917 -0.41714,-19.844342 -0.41714,-22.881058 0,-36.281691 -22.24548,-56.242417 -57.35744,-56.242418 z"
       sodipodi:nodetypes="sscscscss" /><ellipse
       style="opacity:1;fill:#7b9c7f;fill-opacity:1;stroke:none;stroke-width:0.590621;stroke-dasharray:none;stroke-opacity:1"
       id="path47773"
       cx="108.90982"
       cy="24.33457"
       rx="6.1610093"
       ry="4.814702" /><path
       id="path41472"
       style="opacity:1;fill:#a1bca6;fill-opacity:1;stroke-width:0.567373"
       d="m 108.90982,22.251532 c -14.049316,10e-6 -25.0743,5.348462 -36.0659,11.350979 -14.588295,8.559325 -24.976231,25.129184 -25.098769,43.393064 0.0031,1.400604 0.07293,2.800516 0.207053,4.19638 H 169.86791 c 0.13402,-1.395869 0.20297,-2.795783 0.20658,-4.19638 -1e-5,-15.857751 -8.95888,-35.604 -23.23314,-43.393064 -12.28531,-6.70375 -22.62637,-11.350967 -37.93153,-11.350979 z"
       sodipodi:nodetypes="ccccccsc" /><path
       id="rect42881"
       style="opacity:1;fill:#7b9c7f;fill-opacity:1;stroke-width:0.704229"
       d="m 63.764771,76.502743 c 10.389024,-3.942933 27.927183,-9.16618 44.551529,-9.1584 16.4382,0.0077 37.10076,5.805227 47.54833,9.1584 10.44756,3.353173 10.85931,2.894129 12.12185,11.080656 1.14238,7.407322 2.29579,17.887341 -1.1671,21.136131 -3.46289,3.24879 -11.13708,2.55264 -17.72961,-1.35292 -6.59254,-3.90555 -29.61289,-12.513441 -40.77347,-12.162825 -11.160575,0.350616 -33.195424,9.135455 -40.219378,12.162825 -7.023954,3.02737 -14.760315,3.53958 -16.969285,1.35292 -3.606878,-4.02082 -2.527626,-13.375177 -1.099664,-21.136131 1.498493,-8.144287 3.347775,-7.137723 13.736798,-11.080656 z"
       sodipodi:nodetypes="zszsszzscsz" /></g></svg>
