<?xml version="1.0" encoding="utf-8"?>
<!-- Generator: Adobe Illustrator 25.2.0, SVG Export Plug-In . SVG Version: 6.00 Build 0)  -->
<svg version="1.1"
	 id="svg5" sodipodi:docname="Avatar-François-2.svg" xmlns:inkscape="http://www.inkscape.org/namespaces/inkscape" xmlns:sodipodi="http://sodipodi.sourceforge.net/DTD/sodipodi-0.dtd" xmlns:svg="http://www.w3.org/2000/svg"
	 xmlns="http://www.w3.org/2000/svg" xmlns:xlink="http://www.w3.org/1999/xlink" x="0px" y="0px" viewBox="0 0 477.6 684.8"
	 style="enable-background:new 0 0 477.6 684.8;" xml:space="preserve">
<style type="text/css">
	.st0{fill:#595147;}
	.st1{fill:#FFFFFF;}
	.st2{fill:#E8B66D;}
	.st3{fill:#D19C51;}
	.st4{fill:#89A489;}
	.st5{fill:#E9B66D;}
	.st6{fill:#F3E2CE;}
	.st7{fill:#F3E3CC;}
</style>
<sodipodi:namedview  bordercolor="#ffffff" borderopacity="1" id="namedview23" inkscape:current-layer="svg5" inkscape:cx="123.48842" inkscape:cy="457.42894" inkscape:deskcolor="#505050" inkscape:document-units="mm" inkscape:pagecheckerboard="1" inkscape:pageopacity="0" inkscape:showpageshadow="0" inkscape:window-height="705" inkscape:window-maximized="1" inkscape:window-width="1366" inkscape:window-x="-8" inkscape:window-y="-8" inkscape:zoom="0.5749527" pagecolor="#505050" showgrid="false">
	</sodipodi:namedview>
<g id="layer1" transform="translate(-24.675248,-27.338638)">
	<g id="rect18931">
		<path class="st0" d="M225.8,40.3c-17.5-0.2-45.6-16-63.2,8.2c-10.9,15.1-57.9,19.5-64.2,52.4C90.9,141,73,173.6,73,190.1
			c0,0,9.1,47.1,10.8,82.2c75.2,188.7,283,173.2,357.3,2.5c6.3-14.7-0.1-41,1.1-60.1c0.9-14.5,11.6-38.8,11.6-38.8
			c1.7-17.5-14.1-33.4-19.4-65.8c-4.4-26.8-45.4-39.7-61.7-55.8c-32.1-31.7-55.1-16.9-75.7-17.8C234,14.3,291.5,39.5,225.8,40.3z"/>
	</g>
	<g id="rect4036">
		<path class="st1" d="M213.9,394.2v108C113.9,524.9,31,613.1,28.3,708.6h470.3C495.9,613.1,413,524.9,313,502.2v-108L213.9,394.2z"
			/>
		<path class="st2" d="M501.8,711.7H25.1l0.1-3.2C26.5,662.1,46.8,615,82.3,576c34.4-37.7,79.9-64.7,128.5-76.3V391.1h105.2v108.6
			c48.6,11.6,94.1,38.6,128.5,76.3c35.5,39,55.8,86.1,57.1,132.5L501.8,711.7z M31.5,705.5h463.8c-4.3-90.3-84.1-177.9-183.1-200.4
			l-2.4-0.5V397.2H217v107.4l-2.4,0.5C115.6,527.6,35.9,615.2,31.5,705.5z"/>
	</g>
	<g id="path4084">
		<path class="st3" d="M215.4,394.2l2,27.6l94.1,46.9v-74.5H215.4z"/>
	</g>
	<path class="st4" d="M502.1,708.5c-1-36.3-13.5-73-36.2-106.2c-21.8-32-51.9-59.2-87-78.6l-2.6-1.5l-1.9,2.4
		c-21.8,27.8-58.8,61-111,61c-52.2,0-89.2-33.2-111-61l-1.9-2.4l-2.6,1.5c-35.1,19.4-65.2,46.6-87,78.6
		c-22.6,33.2-35.2,69.9-36.2,106.2l-0.1,3.6h477.5L502.1,708.5z"/>
	<g id="path238">
		<path class="st1" d="M419,212.2c0,91.5-60.3,221-155.6,221s-155.6-129.5-155.6-221S168.2,70.4,263.5,70.4
			C358.7,70.4,419,120.7,419,212.2z"/>
		<path class="st5" d="M263.5,436.3c-44,0-85.2-27.6-116-77.6c-26.2-42.6-42.5-98.7-42.5-146.4c0-90.7,59.3-144.8,158.5-144.8
			S422,121.6,422,212.2c0,47.7-16.3,103.8-42.5,146.4C348.7,408.7,307.4,436.3,263.5,436.3z M263.5,73.4
			c-95.5,0-152.6,51.9-152.6,138.8c0,46.7,15.9,101.6,41.6,143.3c29.7,48.2,69.1,74.8,110.9,74.8c41.8,0,81.2-26.6,110.9-74.8
			c25.7-41.7,41.6-96.6,41.6-143.3C416,125.3,359,73.4,263.5,73.4z"/>
	</g>
	<g id="path4090">
		<path class="st0" d="M262.9,55.6c-133.9,2.6-192.8,118.5-152.1,212c10.9-2.3,1.3-143.1,78.2-131.6c19.9,3,52.2,15.3,71.4,14.4
			c18.2-0.8,45.9-12,61-15.8c82.2-20.5,66.6,93.7,93.1,126C472.4,129,341.1,56.7,262.9,55.6z"/>
	</g>
	<g id="path51222-4">
		<path class="st4" d="M83.6,272c-3-13.2-4.6-26.8-4.6-40.4c0-101.1,83.3-183.3,185.6-183.3s185.6,82.2,185.6,183.3
			c0,13.6-1.5,27.1-4.6,40.4l-13.9-3.2c2.8-12.2,4.2-24.7,4.2-37.2c0-93.2-76.8-169-171.3-169c-94.5,0-171.3,75.8-171.3,169
			c0,12.5,1.4,25,4.2,37.2L83.6,272z"/>
	</g>
	<g id="path63996">
		<path class="st4" d="M61.1,265.7l22.5-19.5c3.5-3,8.7-2.6,11.7,0.8c0.9,1.1,1.6,2.4,1.9,3.8l19.8,95.6c1.4,6.6-2.9,13-9.4,14.3
			c-0.6,0.1-1.2,0.2-1.9,0.2L84.5,362c-8.2,0.4-15.5-5.1-17.3-13.1l-13.7-60.1C51.6,280.3,54.5,271.4,61.1,265.7L61.1,265.7z"/>
	</g>
	<g id="path63994">
		<path class="st6" d="M112.7,233.8c-4.2,1.2-8.9,1.9-12.2,5.2c-2.8,3.6-1.5,8.5-0.5,12.6c7.1,34.5,14.1,69.1,21.4,103.5
			c1.5,4.3,6.7,4.7,10.3,3.6c3.9-0.7,9-2.3,10-7.1c0.5-4.5-1.4-8.8-2-13.2c-6.9-33.4-13.6-66.9-20.7-100.3
			C118,235.6,115.5,233.6,112.7,233.8L112.7,233.8z"/>
	</g>
	<g id="path63992">
		<path class="st4" d="M468.2,265.7l-22.5-19.5c-3.5-3-8.7-2.6-11.7,0.8c-0.9,1.1-1.6,2.4-1.9,3.8l-19.8,95.6
			c-1.4,6.6,2.9,13,9.4,14.3c0.6,0.1,1.2,0.2,1.9,0.2l21.2,1.1c8.2,0.4,15.5-5.1,17.3-13.1l13.7-60.1
			C477.7,280.3,474.8,271.4,468.2,265.7z"/>
	</g>
	<g id="path63842">
		<path class="st7" d="M416.5,233.8c4.2,1.2,8.9,1.9,12.2,5.2c2.8,3.6,1.5,8.5,0.5,12.6c-7.1,34.5-14.1,69.1-21.4,103.5
			c-1.5,4.3-6.7,4.7-10.3,3.6c-3.9-0.7-9-2.3-10-7.1c-0.5-4.5,1.4-8.8,2-13.2c6.9-33.4,13.6-66.9,20.7-100.3
			C411.3,235.6,413.8,233.6,416.5,233.8L416.5,233.8z"/>
	</g>
</g>
</svg>
