<?xml version="1.0" encoding="utf-8"?>
<!-- Generator: Adobe Illustrator 25.2.0, SVG Export Plug-In . SVG Version: 6.00 Build 0)  -->
<svg version="1.1"
	 id="svg5" inkscape:version="1.2.2 (732a01da63, 2022-12-09)" sodipodi:docname="Avatar-Benjamin-2.svg" xmlns:inkscape="http://www.inkscape.org/namespaces/inkscape" xmlns:sodipodi="http://sodipodi.sourceforge.net/DTD/sodipodi-0.dtd" xmlns:svg="http://www.w3.org/2000/svg"
	 xmlns="http://www.w3.org/2000/svg" xmlns:xlink="http://www.w3.org/1999/xlink" x="0px" y="0px" viewBox="0 0 477.6 707"
	 style="enable-background:new 0 0 477.6 707;" xml:space="preserve">
<style type="text/css">
	.st0{fill:#D2A66C;}
	.st1{fill:#FFFFFF;}
	.st2{fill:#E8B66D;}
	.st3{fill:#D19C51;}
	.st4{fill:#A1BCA6;}
	.st5{fill:#E9B66D;}
	.st6{fill:#7B9C7F;}
</style>
<sodipodi:namedview  bordercolor="#ffffff" borderopacity="1" id="namedview7" inkscape:current-layer="layer1" inkscape:cx="471.79048" inkscape:cy="586.32313" inkscape:deskcolor="#505050" inkscape:document-units="mm" inkscape:pagecheckerboard="1" inkscape:pageopacity="0" inkscape:showpageshadow="0" inkscape:window-height="705" inkscape:window-maximized="1" inkscape:window-width="1366" inkscape:window-x="-8" inkscape:window-y="-8" inkscape:zoom="0.47584683" pagecolor="#505050" showgrid="false" showguides="false">
	<inkscape:grid  id="grid4038" type="xygrid"></inkscape:grid>
</sodipodi:namedview>
<g id="layer1" transform="translate(-24.675249,-19.519868)" inkscape:groupmode="layer" inkscape:label="Calque 1">
	<g id="rect18931">
		
			<path inkscape:export-filename="Avatar-Benjaminpng.svg" inkscape:export-xdpi="96" inkscape:export-ydpi="96" sodipodi:nodetypes="zssccsszz" class="st0" d="
			M264,75.9c-19.1-0.9-50.5-13.2-93.1-0.6C135.8,85.7,88,181,88,212c0,0,0.3,55,10,79.3c69.6,182.2,261.9,167.2,330.5,2.4
			c10.2-25,10.3-81.7,10.3-81.7c3.3-36.3-51-129.5-87.6-139.1C309.9,62.1,283.1,76.8,264,75.9L264,75.9z"/>
	</g>
	<g id="g27322" transform="matrix(1.4054993,0,0,1.4054993,-33.564607,-59.405345)">
		<g id="g18891" transform="translate(0.02180292)">
			<g id="path4100">
				
					<ellipse transform="matrix(0.7453 -0.6667 0.6667 0.7453 -149.1795 137.049)" class="st1" cx="104.8" cy="263.8" rx="20.6" ry="25.7"/>
				<path class="st2" d="M109.9,287.9c-1.7,0-3.4-0.2-5.2-0.6c-12.9-2.9-23.4-15.8-23.4-28.7c0-6.2,2.4-11.5,6.7-15
					c4.5-3.6,10.5-4.8,16.9-3.4l0,0c12.9,2.9,23.4,15.8,23.4,28.7c0,6.2-2.4,11.5-6.7,15C118.4,286.6,114.3,287.9,109.9,287.9z
					 M99.7,240.7c-4.2,0-8,1.3-11.1,3.7c-4.1,3.3-6.3,8.3-6.3,14.2c0,12.5,10.1,24.8,22.6,27.6c6.1,1.4,11.8,0.2,16-3.2
					c4.1-3.3,6.3-8.3,6.3-14.2c0-12.5-10.1-24.8-22.6-27.6C103,240.9,101.3,240.7,99.7,240.7z"/>
			</g>
			<g id="path13735">
				<path class="st1" d="M113.7,268.7l-21.6-8.5"/>
				
					<rect x="101.5" y="248.1" transform="matrix(0.3672 -0.9301 0.9301 0.3672 -180.8336 263.0562)" class="st2" width="2.8" height="32.6"/>
			</g>
		</g>
		<g id="g18897" transform="matrix(-1,0,0,1,202.71672,0)">
			<g id="ellipse18893">
				
					<ellipse transform="matrix(0.6667 -0.7453 0.7453 0.6667 -234.9816 2.1316)" class="st1" cx="-115.1" cy="263.8" rx="25.7" ry="-20.6"/>
				<path class="st2" d="M-110,287.9c4.4,0,8.5-1.3,11.7-4c4.3-3.5,6.7-8.8,6.7-15c0-12.9-10.5-25.8-23.4-28.7l0,0
					c-6.4-1.4-12.4-0.2-16.9,3.4c-4.3,3.5-6.7,8.8-6.7,15c0,12.9,10.5,25.8,23.4,28.7C-113.5,287.7-111.7,287.9-110,287.9z
					 M-115.2,241.3c12.5,2.8,22.6,15.2,22.6,27.6c0,5.9-2.3,10.9-6.3,14.2c-4.2,3.4-9.9,4.5-16,3.2c-12.5-2.8-22.6-15.2-22.6-27.6
					c0-5.9,2.3-10.9,6.3-14.2C-127,241.1-121.3,239.9-115.2,241.3L-115.2,241.3z"/>
			</g>
			<g id="path18895">
				<path class="st1" d="M-106.2,268.7l-21.6-8.5"/>
				
					<rect x="-133.3" y="263" transform="matrix(0.9302 -0.367 0.367 0.9302 -105.2224 -24.4842)" class="st2" width="32.6" height="2.8"/>
			</g>
		</g>
	</g>
	<g id="rect4036">
		<path class="st1" d="M213.9,408.5v108C113.9,539.2,31,627.5,28.3,723h470.3C495.9,627.5,413,539.2,313,516.5v-108L213.9,408.5z"/>
		<path class="st2" d="M501.8,726.1H25.1l0.1-3.2c1.3-46.5,21.6-93.5,57.1-132.5c34.4-37.7,79.9-64.7,128.5-76.3V405.4h105.2v108.6
			c48.6,11.6,94.1,38.6,128.5,76.3c35.5,39,55.8,86.1,57.1,132.5L501.8,726.1z M31.5,719.9h463.8c-4.3-90.3-84.1-177.9-183.1-200.4
			l-2.4-0.5V411.6H217V519l-2.4,0.5C115.6,542,35.9,629.6,31.5,719.9z"/>
	</g>
	<g id="path4084">
		<path sodipodi:nodetypes="ccccc" class="st3" d="M215.4,408.5l2,27.6l94.1,46.9v-74.5H215.4z"/>
	</g>
	<path class="st4" d="M502.1,722.9c-1-36.3-13.5-73-36.2-106.2c-21.8-32-51.9-59.2-87-78.6l-2.6-1.5l-1.9,2.4
		c-21.8,27.8-58.8,61-111,61s-89.2-33.2-111-61l-1.9-2.4l-2.6,1.5c-35.1,19.4-65.2,46.6-87,78.6c-22.6,33.2-35.2,69.9-36.2,106.2
		l-0.1,3.6h477.5L502.1,722.9z"/>
	<g id="path238">
		<path sodipodi:nodetypes="sssss" class="st1" d="M419,226.6c0,91.5-60.3,221-155.6,221s-155.6-129.5-155.6-221
			c0-91.5,60.3-141.8,155.6-141.8C358.7,84.8,419,135.1,419,226.6z"/>
		<path class="st5" d="M263.5,450.6c-44,0-85.2-27.6-116-77.6c-26.2-42.6-42.5-98.7-42.5-146.4c0-90.7,59.3-144.8,158.5-144.8
			S422,135.9,422,226.6c0,47.7-16.3,103.8-42.5,146.4C348.7,423,307.4,450.6,263.5,450.6z M263.5,87.7
			c-95.5,0-152.6,51.9-152.6,138.8c0,46.7,15.9,101.6,41.6,143.3c29.7,48.2,69.1,74.8,110.9,74.8c41.8,0,81.2-26.6,110.9-74.8
			c25.7-41.7,41.6-96.6,41.6-143.3C416,139.6,359,87.7,263.5,87.7z"/>
	</g>
	<g id="path4090">
		<path sodipodi:nodetypes="sscscscss" class="st0" d="M262.8,77.1c-99.5,0-162.6,56.6-162.6,159.4c0,8.6,2.6,55.7,3.5,64.8
			c16.2-5,53.7,12.2,75.9-18.2c25.9-35.6,24.7-117.3,78.4-148.3c53.8,32.3,51,116.8,77.6,149.5c28.6,35,63.6,11.6,91,17.1
			c0.9-9.1-1.2-56.3-1.2-64.9C425.3,133.7,362.3,77.1,262.8,77.1L262.8,77.1z"/>
	</g>
	<g id="path47773">
		<ellipse class="st6" cx="263.5" cy="33.2" rx="17.5" ry="13.6"/>
	</g>
	<g id="path41472">
		<path sodipodi:nodetypes="ccccccsc" class="st4" d="M263.5,27.3c-39.8,0-71.1,15.2-102.2,32.2c-41.4,24.3-70.8,71.2-71.1,123
			c0,4,0.2,7.9,0.6,11.9h345.6c0.4-4,0.6-7.9,0.6-11.9c0-45-25.4-100.9-65.9-123C336.1,40.4,306.8,27.3,263.5,27.3L263.5,27.3z"/>
	</g>
	<g id="rect42881">
		<path sodipodi:nodetypes="zszsszzscsz" class="st6" d="M135.5,181c29.4-11.2,79.2-26,126.3-26c46.6,0,105.2,16.5,134.8,26
			c29.6,9.5,30.8,8.2,34.4,31.4c3.2,21,6.5,50.7-3.3,59.9c-9.8,9.2-31.6,7.2-50.3-3.8c-18.7-11.1-83.9-35.5-115.6-34.5
			c-31.6,1-94.1,25.9-114,34.5c-19.9,8.6-41.8,10-48.1,3.8c-10.2-11.4-7.2-37.9-3.1-59.9C100.8,189.4,106,192.2,135.5,181L135.5,181
			z"/>
	</g>
</g>
</svg>
