<?xml version="1.0" encoding="utf-8"?>
<!-- Generator: Adobe Illustrator 25.2.0, SVG Export Plug-In . SVG Version: 6.00 Build 0)  -->
<svg version="1.1"
	 id="svg5" sodipodi:docname="Avatar-Flavie.svg" xmlns:inkscape="http://www.inkscape.org/namespaces/inkscape" xmlns:sodipodi="http://sodipodi.sourceforge.net/DTD/sodipodi-0.dtd" xmlns:svg="http://www.w3.org/2000/svg"
	 xmlns="http://www.w3.org/2000/svg" xmlns:xlink="http://www.w3.org/1999/xlink" x="0px" y="0px" viewBox="0 0 446.7 658.5"
	 style="enable-background:new 0 0 446.7 658.5;" xml:space="preserve">
<style type="text/css">
	.st0{fill:#FFA024;}
	.st1{fill:#FFFFFF;}
	.st2{fill:#E8B66D;}
	.st3{fill:#D19C51;}
	.st4{fill:#F0D3A5;}
	.st5{fill:#E9B66D;}
	.st6{fill:#819E80;}
</style>
<sodipodi:namedview  bordercolor="#ffffff" borderopacity="1" id="namedview64720" inkscape:deskcolor="#505050" inkscape:document-units="mm" inkscape:pagecheckerboard="1" inkscape:pageopacity="0" inkscape:showpageshadow="0" pagecolor="#505050" showgrid="false">
	</sodipodi:namedview>
<g id="layer1" transform="translate(-29.846831,-22.831195)" inkscape:export-filename="Avatar-Flavie-2.svg" inkscape:export-xdpi="96" inkscape:export-ydpi="96">
	<g id="rect18931">
		<path class="st0" d="M253.3,22.8c-105.3,0-190.1,81.7-190.1,183.2c0,0,25.3,99.4,10.8,147c-3.3,10.9-27.9,18.8-21.4,28.6
			c64.8,97.9,340.4,99.6,401.3,0c5.6-9.2-18.2-15.2-21.7-25.1c-16.7-48.3,11.1-150.5,11.1-150.5C450.2,104.7,358.6,22.8,253.3,22.8
			L253.3,22.8z"/>
	</g>
	<g id="g27322" transform="matrix(1.4054993,0,0,1.4054993,-33.842628,-73.027989)">
		<g id="g18891" transform="translate(0.02180292)">
			<g id="path4100">
				
					<ellipse transform="matrix(0.7453 -0.6667 0.6667 0.7453 -136.2542 126.6772)" class="st1" cx="97.7" cy="241.7" rx="20.6" ry="25.7"/>
				<path class="st2" d="M102.8,265.8c-1.7,0-3.4-0.2-5.2-0.6c-12.9-2.9-23.4-15.8-23.4-28.7c0-6.2,2.4-11.5,6.7-15
					c4.5-3.6,10.5-4.8,16.9-3.4c12.9,2.9,23.4,15.8,23.4,28.7c0,6.2-2.4,11.5-6.7,15C111.2,264.5,107.2,265.8,102.8,265.8z
					 M92.6,218.6c-4.2,0-8,1.3-11.1,3.7c-4.1,3.3-6.3,8.3-6.3,14.2c0,12.5,10.1,24.8,22.6,27.6c6.1,1.4,11.8,0.2,16-3.2
					c4.1-3.3,6.3-8.3,6.3-14.2c0-12.5-10.1-24.8-22.6-27.6l0,0C95.9,218.8,94.2,218.6,92.6,218.6z"/>
			</g>
			<g id="path13735">
				<path d="M106.6,246.6L85,238.1"/>
				
					<rect x="94.4" y="226" transform="matrix(0.3672 -0.9301 0.9301 0.3672 -164.7748 242.456)" class="st2" width="2.8" height="32.6"/>
			</g>
		</g>
		<g id="g18897" transform="matrix(-1,0,0,1,202.71672,0)">
			<g id="ellipse18893">
				
					<ellipse transform="matrix(0.6667 -0.7453 0.7453 0.6667 -216.1353 6.592859e-02)" class="st1" cx="-108" cy="241.7" rx="25.7" ry="-20.6"/>
				<path class="st2" d="M-102.9,265.8c4.4,0,8.5-1.3,11.7-4c4.3-3.5,6.7-8.8,6.7-15c0-12.9-10.5-25.8-23.4-28.7l0,0
					c-6.4-1.4-12.4-0.2-16.9,3.4c-4.3,3.5-6.7,8.8-6.7,15c0,12.9,10.5,25.8,23.4,28.7C-106.3,265.6-104.6,265.8-102.9,265.8z
					 M-108.1,219.2c12.5,2.8,22.6,15.2,22.6,27.6c0,5.9-2.3,10.9-6.3,14.2c-4.2,3.4-9.9,4.5-16,3.2c-12.5-2.8-22.6-15.2-22.6-27.6
					c0-5.9,2.3-10.9,6.3-14.2C-119.9,219-114.2,217.8-108.1,219.2L-108.1,219.2z"/>
			</g>
			<g id="path18895">
				<path d="M-99.1,246.6l-21.6-8.5"/>
				
					<rect x="-126.2" y="240.9" transform="matrix(0.9302 -0.367 0.367 0.9302 -96.6128 -23.4161)" class="st2" width="32.6" height="2.8"/>
			</g>
		</g>
	</g>
	<g id="rect4036">
		<path class="st1" d="M206.8,363.7v108.1c-93.7,22.7-171.3,111-173.9,206.6h440.5c-2.5-95.6-80.2-183.9-173.9-206.6V363.7
			L206.8,363.7z"/>
		<path class="st2" d="M476.5,681.4H29.8l0.1-3.1c1.2-46.5,20.2-93.5,53.5-132.5c32.2-37.7,74.9-64.8,120.4-76.4V360.7h98.8v108.7
			c45.5,11.6,88.2,38.6,120.4,76.4c33.2,39,52.2,86,53.5,132.5L476.5,681.4z M36,675.4h434.3c-4-90.5-78.7-178.2-171.5-200.7
			l-2.3-0.6V366.7h-86.8v107.4l-2.3,0.6C114.7,497.2,40,584.9,36,675.4z"/>
	</g>
	<g id="path4084">
		<path class="st3" d="M208.2,363.7l1.9,27.6l88.1,46.9v-74.6H208.2z"/>
	</g>
	<path class="st4" d="M476.4,678.3c-1-36.2-12.6-72.8-33.8-105.9c-20.4-32-48.6-59.1-81.4-78.5l-2.3-1.4l-1.6,2.2
		c-20.5,27.9-55.2,61.2-104.2,61.2s-83.7-33.3-104.2-61.2l-1.6-2.2l-2.3,1.4c-32.8,19.4-60.9,46.5-81.4,78.5
		c-21.1,33.1-32.8,69.7-33.8,105.9l-0.1,3.1h446.7L476.4,678.3z"/>
	<g id="path238">
		<path class="st1" d="M408.7,181.9c0,91.5-60.3,221-155.6,221S97.6,273.4,97.6,181.9c0-91.5,60.3-141.8,155.6-141.8
			C348.4,40.1,408.7,90.4,408.7,181.9z"/>
		<path class="st5" d="M253.2,405.9c-44,0-85.2-27.6-116-77.6c-26.2-42.6-42.5-98.7-42.5-146.4c0-90.7,59.3-144.8,158.5-144.8
			s158.5,54.1,158.5,144.8c0,47.7-16.3,103.8-42.5,146.4C338.4,378.4,297.2,405.9,253.2,405.9z M253.2,43.1
			c-95.5,0-152.6,51.9-152.6,138.8c0,46.7,15.9,101.6,41.6,143.3c29.7,48.2,69.1,74.8,110.9,74.8s81.2-26.6,110.9-74.8
			c25.7-41.7,41.6-96.6,41.6-143.3C405.7,95,348.7,43.1,253.2,43.1z"/>
	</g>
	<g id="path4090">
		<path class="st0" d="M253.2,32.4C153.6,32.4,90.6,85,90.6,180.7c0,8,13.1,77.5,14,85.9c35.2-10.1,88.9-100.5,143.9-196.8
			c49.1,92.8,106.4,172.8,159.4,182.8c0.9-8.5,7.9-64,7.9-72C415.8,85,352.7,32.4,253.2,32.4L253.2,32.4z"/>
	</g>
	<g id="g30562" transform="matrix(1.4054993,0,0,1.4054993,-33.790873,-73.027989)">
		<g id="g29827" transform="translate(1.7652209)">
			<g id="path28692">
				<path class="st6" d="M153.8,270.3c-23,0-41.7-18.7-41.7-41.7s18.7-41.7,41.7-41.7s41.7,18.7,41.7,41.7S176.8,270.3,153.8,270.3z
					 M153.8,190.1c-21.2,0-38.5,17.3-38.5,38.5s17.3,38.5,38.5,38.5s38.5-17.3,38.5-38.5S175,190.1,153.8,190.1z"/>
			</g>
			<g id="circle29819">
				<path class="st6" d="M251.3,270.3c-23,0-41.7-18.7-41.7-41.7s18.7-41.7,41.7-41.7s41.7,18.7,41.7,41.7S274.3,270.3,251.3,270.3z
					 M251.3,190.1c-21.2,0-38.5,17.3-38.5,38.5s17.3,38.5,38.5,38.5s38.5-17.3,38.5-38.5S272.5,190.1,251.3,190.1z"/>
			</g>
		</g>
		<g id="path30016">
			<path class="st6" d="M197.7,233.1c-2.3,0-4.7-0.1-7-0.2l0.2-3.2c4.7,0.3,9.5,0.2,14.1,0.1c4.4-0.1,9-0.2,13.5,0l-0.2,3.2
				c-4.4-0.3-8.9-0.1-13.2,0C202.7,233.1,200.2,233.1,197.7,233.1z"/>
		</g>
		<g id="path30018">
			<path class="st6" d="M294.2,231.1l-1.2-3c0.3-0.1,0.6-0.2,0.9-0.3c0.5-0.2,1-0.4,1.4-0.6c0.8-0.4,1.7-1,2.6-1.6
				c1.1-0.7,2.3-1.4,3.4-2c1.5-0.8,3-1.5,4.5-2.2c2.3-1.1,4.7-2.2,6.8-3.5c0.3-0.2,0.6-0.4,0.9-0.6c1-0.6,2-1.3,3.1-1.8l1.2,3
				c-0.9,0.4-1.7,0.9-2.6,1.5c-0.3,0.2-0.6,0.4-1,0.6c-2.3,1.5-4.8,2.6-7.2,3.7c-1.4,0.7-2.9,1.4-4.4,2.1c-1,0.5-2.1,1.2-3.1,1.9
				c-1,0.6-1.9,1.2-2.8,1.7c-0.6,0.3-1.2,0.6-1.8,0.8C294.8,230.9,294.5,231,294.2,231.1z"/>
		</g>
		<g id="path30033">
			<path class="st6" d="M114.1,231.1c-0.3-0.1-0.5-0.2-0.8-0.3c-0.6-0.2-1.2-0.4-1.8-0.8c-0.9-0.5-1.8-1.1-2.8-1.7
				c-1.1-0.7-2.2-1.4-3.1-1.9c-1.4-0.7-2.9-1.4-4.4-2.1c-2.4-1.1-4.8-2.2-7.2-3.7c-0.3-0.2-0.7-0.4-1-0.6c-0.9-0.6-1.7-1.1-2.6-1.5
				l1.2-3c1.1,0.5,2.1,1.1,3.1,1.8c0.3,0.2,0.6,0.4,0.9,0.6c2.1,1.4,4.5,2.5,6.8,3.5c1.5,0.7,3,1.4,4.5,2.2c1.1,0.6,2.2,1.3,3.4,2
				c0.9,0.6,1.8,1.2,2.6,1.6c0.4,0.2,0.9,0.4,1.4,0.6c0.3,0.1,0.6,0.2,0.9,0.3L114.1,231.1z"/>
		</g>
	</g>
</g>
</svg>
