<?xml version="1.0" encoding="UTF-8"?>
<svg id="Calque_2" data-name="Calque 2" xmlns="http://www.w3.org/2000/svg" viewBox="0 0 181.42 284.32">
  <defs>
    <style>
      .cls-1 {
        fill: none;
        stroke: #43322f;
        stroke-miterlimit: 10;
        stroke-width: 4px;
      }

      .cls-2 {
        fill: #43312e;
        stroke-width: 0px;
      }
    </style>
  </defs>
  <g id="Calque_9" data-name="Calque 9">
    <g>
      <path class="cls-2" d="M146.47,119.04c-6.7,3.58-14.24,5.47-21.81,5.47-16.24,0-31.01-8.3-39.51-22.2l-.34-.55c-4.21-7.11-6.43-15.23-6.43-23.52,0-25.52,20.76-46.28,46.28-46.28,10.6,0,20.96,3.69,29.18,10.38l15.64,12.73-10.43-17.25C144.73,14.14,119.68,0,92.04,0,48.9,0,13.8,35.1,13.8,78.24c0,18.36,6.51,36.21,18.33,50.26,14.94,17.78,36.77,27.98,59.91,27.98,24.42,0,46.94-11.02,61.77-30.22,1.89-2.42,3.65-4.97,5.23-7.6l10.43-17.25-15.64,12.73c-2.31,1.87-4.79,3.52-7.37,4.9ZM149.87,123.19c-13.89,17.98-34.96,28.29-57.82,28.29-21.66,0-42.1-9.55-56.09-26.2-11.06-13.15-17.15-29.85-17.15-47.04C18.8,37.86,51.66,5,92.04,5c23.22,0,44.49,10.66,58.29,28.87-7.76-4.49-16.64-6.91-25.68-6.91-28.28,0-51.28,23-51.28,51.28,0,9.42,2.59,18.64,7.5,26.67l.74,1.2h.02c9.52,14.68,25.5,23.4,43.02,23.4,8.39,0,16.75-2.1,24.17-6.06.5-.27,1-.54,1.49-.82-.15.19-.29.38-.44.57Z"/>
      <path class="cls-2" d="M111.47,151.5c-2.08.54-4.18,1-6.31,1.36,2.13-.37,4.24-.82,6.31-1.36Z"/>
      <path class="cls-2" d="M119.6,148.87c-2.65,1.02-5.35,1.9-8.11,2.62,2.76-.73,5.47-1.6,8.11-2.62Z"/>
      <path class="cls-2" d="M123.53,147.22c-.64.29-1.28.57-1.92.83.66-.28,1.31-.57,1.96-.86.62-.29,1.25-.58,1.87-.88-.63.32-1.27.62-1.91.91Z"/>
      <path class="cls-2" d="M125.45,146.31h-.01s.03-.02.05-.03c1.89-.93,3.74-1.94,5.55-3.02-1.21.74-2.45,1.43-3.7,2.09-.63.33-1.26.65-1.89.96Z"/>
      <path class="cls-2" d="M131.05,143.26h-.01s.04-.03.06-.04c.59-.35,1.17-.71,1.75-1.08-.59.38-1.19.76-1.8,1.12Z"/>
      <path class="cls-2" d="M136.38,139.74h-.01s.04-.03.06-.05c.9-.65,1.79-1.33,2.66-2.03.22-.17.45-.35.67-.53-.55.45-1.1.89-1.66,1.33h-.01c-.57.44-1.13.86-1.71,1.28Z"/>
      <path class="cls-2" d="M149.07,128.11c-.38.43-.76.86-1.15,1.28.39-.42.76-.84,1.13-1.27t.02-.01Z"/>
      <path class="cls-2" d="M181.42,190.19c0,48.21-39.08,87.29-87.29,87.29-11.89,0-23.22-2.38-33.54-6.68,9.3,1.74,18.95,1.65,28.42-.48,25.95-5.86,36.98-21.84,38.94-34.47,3.16-20.37-10.51-48.32-51.68-43.86-10.02,1.09-16.75,5.06-16.75,5.06,11.59-25.94,40.41-33.36,40.41-33.36,0,0-9.42-4.58-20.66-4.9-35.78-1.03-61.54,26.62-63.61,54.2-.48,6.41.2,12.61,1.38,18.16-6.51-12.21-10.2-26.15-10.2-40.96,0-23.12,8.98-44.13,23.67-59.74,15.4,18.14,37.8,28.53,61.53,28.53,25.05,0,48.15-11.23,63.46-30.83,16.01,15.81,25.92,37.77,25.92,62.04Z"/>
      <path class="cls-2" d="M83.43,104.3l-.43-.69h.01c.23.38.47.76.71,1.13l-.29-.44Z"/>
      <path class="cls-2" d="M124.65,132.01c5.49,0,10.97-.86,16.2-2.51-13.01,12.49-30.31,19.48-48.81,19.48-20.92,0-40.66-9.22-54.17-25.31-.04-.04-.07-.09-.1-.13,11.23-9.5,24.89-16.22,39.93-19.09.34.6.68,1.19,1.04,1.78l1.5,2.38h.05c10.05,14.68,26.53,23.4,44.36,23.4Z"/>
      <path class="cls-2" d="M88.63,103.08c1.82-.11,3.65-.17,5.5-.17,18.14,0,34.99,5.54,48.95,15.01-5.76,2.69-12.09,4.09-18.43,4.09-14.53,0-27.81-7.02-36.02-18.93Z"/>
      <path class="cls-1" d="M56.62,250.49c-17.09,3.15-19.64,5.7-22.78,22.78-3.15-17.09-5.7-19.64-22.78-22.78,17.09-3.15,19.64-5.7,22.78-22.78,3.15,17.09,5.7,19.64,22.78,22.78Z"/>
    </g>
  </g>
</svg>