<?xml version="1.0" encoding="UTF-8"?>
<svg id="Calque_2" data-name="Calque 2" xmlns="http://www.w3.org/2000/svg" viewBox="0 0 176.57 275.98">
  <defs>
    <style>
      .cls-1 {
        fill: #43322f;
      }

      .cls-1, .cls-2, .cls-3 {
        stroke-width: 0px;
      }

      .cls-2 {
        fill: #42302d;
      }

      .cls-3 {
        fill: #43312e;
      }
    </style>
  </defs>
  <g id="Calque_6" data-name="Calque 6">
    <path class="cls-1" d="M50.77,248c-17.09,3.15-19.64,5.7-22.78,22.78-3.15-17.09-5.7-19.64-22.78-22.78,17.09-3.15,19.64-5.7,22.78-22.78,3.15,17.09,5.7,19.64,22.78,22.78Z"/>
    <path class="cls-3" d="M148.45,123.14c-2.5-2.35-5.14-4.54-7.91-6.56-14.64-10.79-32.71-17.17-52.25-17.17-3.02,0-6.01.15-8.95.45.39.64.8,1.28,1.22,1.9,2.55-.23,5.12-.35,7.73-.35,18.72,0,36.07,6,50.23,16.17,1.51,1.08,2.98,2.21,4.41,3.39.18.14.36.29.53.45,1.29,1.06,2.54,2.17,3.76,3.31,16.83,15.76,27.35,38.15,27.35,62.96,0,47.58-38.7,86.29-86.28,86.29-8.44,0-16.71-1.2-24.68-3.58,6.65.4,13.27-.14,19.78-1.61,26.16-5.9,37.67-22.1,39.71-35.29,1.85-11.94-1.91-24.17-10.07-32.71-6.68-7-19.51-14.81-42.71-12.29-6.47.7-11.57,2.56-14.47,3.86,11.96-23.11,38.22-30.13,38.49-30.2l2.64-.68-2.45-1.19c-.39-.19-9.75-4.67-21.07-5-37.27-1.09-62.59,27.78-64.64,55.13-.28,3.71-.19,7.57.27,11.54-4.65-10.76-7.09-22.47-7.09-34.27,0-23.66,9.59-45.15,25.08-60.75-.44-.51-.87-1.02-1.3-1.54C9.86,141.38,0,163.41,0,187.69c0,14.44,3.57,28.76,10.31,41.43l3.34,6.27-1.48-6.95c-1.32-6.22-1.78-12.23-1.35-17.87,1.98-26.44,26.46-54.34,62.58-53.28,7.55.22,14.32,2.42,17.8,3.77-7.48,2.59-28.86,11.65-38.43,33.08l-1.27,2.86,2.69-1.59c.06-.04,6.69-3.87,16.35-4.92,22.38-2.44,34.67,5.01,41.04,11.68,7.74,8.09,11.3,19.69,9.54,31.03-1.94,12.54-12.99,27.96-38.17,33.64-9.2,2.08-18.63,2.24-28.02.47l-9.35-1.75,8.78,3.66c10.77,4.48,22.18,6.76,33.93,6.76,48.68,0,88.28-39.61,88.28-88.29,0-25.46-10.83-48.43-28.12-64.55Z"/>
    <path class="cls-2" d="M118.81,124.52c-26.89,0-48.77-21.88-48.77-48.77s21.88-48.77,48.77-48.77c11.18,0,22.11,3.88,30.77,10.94l4.47,3.64-2.98-4.93C137.2,13.69,112.95,0,86.2,0,44.44,0,10.46,33.98,10.46,75.74s33.98,75.74,75.74,75.74c26.75,0,51-13.69,64.86-36.61l2.98-4.93-4.47,3.64c-8.66,7.05-19.59,10.94-30.77,10.94Z"/>
  </g>
</svg>