<?xml version="1.0" encoding="UTF-8"?>
<svg id="Calque_2" data-name="Calque 2" xmlns="http://www.w3.org/2000/svg" viewBox="0 0 181.42 181.42">
  <defs>
    <style>
      .cls-1 {
        fill: none;
        stroke: #43322f;
        stroke-miterlimit: 10;
        stroke-width: 4px;
      }

      .cls-2 {
        fill: #43312e;
        stroke-width: 0px;
      }
    </style>
  </defs>
  <g id="Calque_10" data-name="Calque 10">
    <path class="cls-2" d="M87.29,0c48.21,0,87.29,39.08,87.29,87.29,0,14.8-3.69,28.74-10.19,40.96,1.18-5.55,1.86-11.75,1.38-18.16-2.07-27.58-27.83-55.23-63.61-54.2-11.24.32-20.66,4.9-20.66,4.9,0,0,28.82,7.42,40.41,33.36,0,0-6.73-3.97-16.75-5.06-41.17-4.47-54.84,23.49-51.68,43.86,1.96,12.63,13,28.61,38.95,34.47,9.46,2.13,19.12,2.22,28.42.48-10.33,4.3-21.66,6.68-33.54,6.68C39.08,174.57,0,135.49,0,87.29S39.08,0,87.29,0Z"/>
    <path class="cls-1" d="M124.81,147.58c17.09,3.15,19.64,5.7,22.78,22.78,3.15-17.09,5.7-19.64,22.78-22.78-17.09-3.15-19.64-5.7-22.78-22.78-3.15,17.09-5.7,19.64-22.78,22.78Z"/>
  </g>
</svg>