<svg xmlns="http://www.w3.org/2000/svg" viewBox="0 0 510.91 602.09"><defs><style>.cls-1{fill:#7d414d;}.cls-2{fill:#d98d6b;}</style></defs><g id="Calque_2" data-name="Calque 2"><g id="Calque_1-2" data-name="Calque 1"><g id="Fond"><path id="Full_body" data-name="Full body" class="cls-1" d="M349,222c3.4-20.6-29.8-133.6-77.4-180.2-11.1-10.9-31.9-27.2-58.8-35.9-11.7-3.8-27.4-2.5-27.4-2.5s-15.7-2.9-20.6-3.1C91-3.91,59,38.69,52.41,46.19c-6.9.4-22.3,12-32.5,29.2-11.7,20.2,1.4,38.4,1.4,38.4s1.2,5.4,3.9,8.2,6.7,3.5,6.1,2.8c-1-1.1-4-4.9-4-8.1.2-5.9,4.3-8.3,7.2-8.6,2.3-.3,4.6,4.7,4.6,4.7l-.1,1.8a183.86,183.86,0,0,0-.2,19.7,50.5,50.5,0,0,0,2,9.2c2.4,6.7,10.5,17.8,10.5,17.8a81.48,81.48,0,0,1-2.3,10.3c-2.2,7.2-5.3,15.1-6.3,16.7-3.4,5.2-5.8,9.9-5.9,13.1a9.75,9.75,0,0,0,.9,5,12.43,12.43,0,0,0,8.8,5.7l.9.4c3.5,2.6,10.7,9.1,5.1,15.7l-.1.1a6.68,6.68,0,0,0,.4,5.3c.7,1.5,2.5,4.6,5.7,5.7l4.9,1.5c-5.9,2-5.4,5.8-5.3,7.9.1,1.8,1.9,4.8,7.3,5a12.77,12.77,0,0,0,6.7-1.2c.2-.1,1.8,1.5,2.3,2.8,1.2,3.4.2,4.4.3,8.2.2,4.8,1.6,9.8,4.7,12.9a16.1,16.1,0,0,0,8.6,4.3,26.23,26.23,0,0,0,11.8-.5,125.3,125.3,0,0,0,21.1-6.8c4.8-1.9,12-5,18.8-8.4l3-.8c7.4,3.3,16.1,5.6,23.8,15,5.5,6.6,6.9,13.4,4.6,13.9-7.4,1.8-12.4,3.5-24.1,8.4-5.1,2.1-13.2,2.5-20.8,2.6-12.7.3-36.2-.6-49.7-1.5-7.8-.5-15.2,1.5-19.1,2.7-19.9,5.7-30.9,17.9-37.5,28.4-5.1,8.1-5.4,14.3-6.9,17.4-6.6,13.1-11.9,35.1-12.9,53.6-.6,10.8.9,30.2,13.4,42.1,11,10.4,28.2,13.5,38.7,16.4,46.9,12.6,128.9,17.2,152.9,72.8,2.9,6.7,8.5,21,12.5,27.1,4.8,7.4,7.5,5.4,9.7,3.1,2.5-2.6,9.4-14.5,12.8-19.9,13.8-21.8,40.2-48.2,91.5-61.9,55.2-15,92.7-45.4,119-79.5,51.6-66.9,58.6-148.7,60.3-171.8.1-1.6-5.1,1-8.7,1.8a8,8,0,0,1-5.9-.5,12,12,0,0,1-2.5-2.8,14.37,14.37,0,0,0,7.2-2.9,16.88,16.88,0,0,0,3.1-3.5,18.33,18.33,0,0,0,2.8-9.2c.7-13.6-7.9-47.3-7.9-47.3-2.1-12.3-18.6-72-24.4-82.4-2.1-3.8-2.7-4.3-2.8,1.1-.3,14.8-5.1,36.8-10.3,49.3-11.8,28.5-29.7,58.2-83.2,77.3-6.5,2.3-17,5.3-29.3,8.3"/><path id="Loop" class="cls-1" d="M304.61,582.89c15.9-14.7,55.2-20.6,66.5-13.6,3.8,2.4,3.9,7.2,1.1,12.2-4.6,8.3-16.3,17.3-33.5,15.7-9-.8-18.2-4.9-24.6-8.3a96.23,96.23,0,0,1-8.3-5Z"/><path class="cls-1" d="M376.51,570.19a9.92,9.92,0,0,0-4.3-4.2,26.79,26.79,0,0,0-8.8-2.7,64,64,0,0,0-17-.2,115.55,115.55,0,0,0-16.4,3.1,91.21,91.21,0,0,0-15.8,5.8,50.94,50.94,0,0,0-9.9,6.1c-2.6-1.9-5.4-4-8.4-6.4-13.2-10.8-24.7-25.2-35.8-39.1-2-2.5-3.9-4.9-5.8-7.3l-1.7-2.1-6.2,9.2.9,1.2a188.14,188.14,0,0,0,13.5,14.6c2.2,2.2,4.5,4.6,6.7,6.9a297.65,297.65,0,0,0,23.5,22.6c2.7,2.3,5.2,4.3,7.6,6.1a22.37,22.37,0,0,0-3.5,6.4,18.47,18.47,0,0,0-.6,9.9l.4,2,7.2-1.5-.4-1.9a11.06,11.06,0,0,1,.4-6,14.93,14.93,0,0,1,2.6-4.5c2.1,1.4,4.2,2.7,6.4,3.9s4.8,2.5,7.5,3.8a71.6,71.6,0,0,0,16.4,5.2,44.42,44.42,0,0,0,8.8.6,39.43,39.43,0,0,0,24.6-9.7,34.83,34.83,0,0,0,5.9-6.9,19.49,19.49,0,0,0,3.3-9.2A9.77,9.77,0,0,0,376.51,570.19Zm-13.1,16a29.46,29.46,0,0,1-12.7,6.1,37.94,37.94,0,0,1-14.3.4,74.1,74.1,0,0,1-21.3-7.8c-1.4-.7-2.7-1.5-4-2.3a55.77,55.77,0,0,1,6.5-3.7,81.21,81.21,0,0,1,14.4-5.3,88.58,88.58,0,0,1,15.2-2.9c2.8-.3,5.3-.5,7.7-.6a58.68,58.68,0,0,1,7.5.2,16.84,16.84,0,0,1,6.5,1.8,3.15,3.15,0,0,1,1.7,3.3,10.7,10.7,0,0,1-2.4,5.6A23.57,23.57,0,0,1,363.41,586.19Z"/></g><g id="Fée"><g id="BO"><rect id="Crochet_1" data-name="Crochet 1" class="cls-2" x="194.3" y="183.18" width="3" height="23.5" transform="translate(-4.39 4.51) rotate(-1.31)"/><rect id="Crochet_2" data-name="Crochet 2" class="cls-2" x="194.8" y="222.38" width="3" height="19.8" transform="translate(-6.23 5.41) rotate(-1.56)"/><path id="BO_pièce_2" data-name="BO pièce 2" class="cls-2" d="M196.71,240.29a16.6,16.6,0,1,0,16.6,16.6A16.62,16.62,0,0,0,196.71,240.29Z"/><path id="BO_pièce_1" data-name="BO pièce 1" class="cls-2" d="M195.81,205.39h0a29,29,0,0,0-29,29v1.2h58v-1.2A29,29,0,0,0,195.81,205.39Z"/></g></g></g></g></svg>