<?xml version="1.0" encoding="utf-8"?>
<!-- Generator: Adobe Illustrator 25.2.0, SVG Export Plug-In . SVG Version: 6.00 Build 0)  -->
<svg version="1.1" id="Calque_2" xmlns="http://www.w3.org/2000/svg" xmlns:xlink="http://www.w3.org/1999/xlink" x="0px" y="0px"
	 viewBox="0 0 300 300" style="enable-background:new 0 0 300 300;" xml:space="preserve">
<style type="text/css">
	.st0{fill:#585223;}
	.st1{opacity:0.7;fill:#585223;}
</style>
<circle class="st0" cx="-198" cy="150" r="150"/>
<circle class="st1" cx="150" cy="150" r="150"/>
<path class="st0" d="M498,17c35.5,0,68.9,13.8,94,39c25.1,25.1,39,58.5,39,94s-13.8,68.9-39,94c-25.1,25.1-58.5,39-94,39
	s-68.9-13.8-94-39c-25.1-25.1-39-58.5-39-94s13.8-68.9,39-94C429.1,30.8,462.5,17,498,17 M498,0c-82.8,0-150,67.2-150,150
	s67.2,150,150,150s150-67.2,150-150S580.8,0,498,0L498,0z"/>
</svg>
